<svg width="170" height="32" viewBox="0 0 170 32" fill="none" xmlns="http://www.w3.org/2000/svg">
<path d="M6.27548 22.6923C5.07222 22.6923 4.01087 22.4984 3.09145 22.1138C2.17203 21.7292 1.43773 21.2123 0.88855 20.5661L3.14699 18.6369C3.6283 19.1138 4.16822 19.4615 4.76986 19.6831C5.37149 19.9046 5.94227 20.0154 6.48528 20.0154C6.692 20.0154 6.8802 19.9938 7.04681 19.9508C7.2165 19.9077 7.35534 19.8431 7.47258 19.7508C7.58674 19.6615 7.67621 19.5569 7.73792 19.44C7.79962 19.3231 7.83047 19.1877 7.83047 19.0369C7.83047 18.7354 7.69781 18.4984 7.42939 18.3323C7.28438 18.2523 7.04989 18.1569 6.72594 18.0461C6.40198 17.9384 5.98238 17.8184 5.46713 17.6892C4.74209 17.5015 4.11269 17.28 3.58202 17.0246C3.05134 16.7661 2.6194 16.4708 2.28311 16.1384C1.97149 15.8184 1.73392 15.4615 1.56732 15.0677C1.40071 14.6738 1.31741 14.2338 1.31741 13.7477C1.31741 13.1692 1.45007 12.6492 1.71232 12.1846C1.97458 11.7231 2.33864 11.3231 2.79835 10.9908C3.25806 10.6584 3.78256 10.4031 4.37185 10.2246C4.96115 10.0461 5.57512 9.95691 6.21069 9.95691C6.88637 9.95691 7.53429 10.0308 8.15135 10.1815C8.76841 10.3323 9.34227 10.5446 9.87911 10.8246C10.416 11.1046 10.888 11.4338 11.3014 11.8154L9.35153 13.9784C9.07694 13.7292 8.76532 13.5015 8.41668 13.2923C8.06804 13.0831 7.71323 12.9138 7.343 12.7877C6.97276 12.6615 6.63646 12.5969 6.32485 12.5969C6.09036 12.5969 5.88365 12.6154 5.7047 12.6554C5.52576 12.6954 5.37766 12.7569 5.25733 12.84C5.13701 12.9231 5.04753 13.0246 4.98583 13.1415C4.92412 13.2584 4.89327 13.3938 4.89327 13.5446C4.89944 13.7015 4.94263 13.8461 5.02285 13.9846C5.10307 14.1231 5.22648 14.24 5.38692 14.3354C5.5381 14.4246 5.78184 14.5261 6.11813 14.6492C6.45443 14.7692 6.91723 14.9108 7.51269 15.0677C8.24082 15.2677 8.86405 15.4923 9.38238 15.7446C9.90071 15.9969 10.3172 16.2892 10.6258 16.6246C10.8818 16.8892 11.07 17.1938 11.1934 17.5354C11.3169 17.8769 11.3786 18.2492 11.3786 18.6554C11.3786 19.4369 11.1564 20.1292 10.7091 20.7384C10.2617 21.3477 9.65389 21.8246 8.88565 22.1723C8.11741 22.52 7.24118 22.6923 6.26623 22.6923H6.27548Z" fill="#262626"/>
<path d="M16.2687 22.4615L12.2208 10.2122L16.1145 10.203L18.4007 18.1599L17.907 18.0861L20.4462 11.8892H22.6245L25.3056 18.0984L24.7749 18.1568L27.0549 10.2122H30.9486L26.7742 22.4615H24.0283L21.3687 15.8922L21.6464 15.923L19.0054 22.4615H16.2687Z" fill="#262626"/>
<path d="M34.9287 7.78772C34.2345 7.78772 33.6915 7.62157 33.3027 7.28926C32.914 6.95696 32.7196 6.48619 32.7196 5.87696C32.7196 5.31696 32.9171 4.85849 33.3151 4.50157C33.71 4.14465 34.2499 3.96619 34.9287 3.96619C35.6074 3.96619 36.1659 4.13234 36.5546 4.46465C36.9434 4.79696 37.1378 5.26772 37.1378 5.87696C37.1378 6.43696 36.9403 6.89542 36.5423 7.25234C36.1474 7.60926 35.6074 7.78772 34.9287 7.78772ZM33.0806 22.4616V10.2123H36.7922V22.4616H33.0806Z" fill="#262626"/>
<path d="M44.416 22.6923C43.2127 22.6923 42.1514 22.4984 41.232 22.1138C40.3125 21.7292 39.5782 21.2123 39.0291 20.5661L41.2875 18.6369C41.7688 19.1138 42.3087 19.4615 42.9104 19.6831C43.512 19.9046 44.0828 20.0154 44.6258 20.0154C44.8325 20.0154 45.0207 19.9938 45.1873 19.9508C45.357 19.9077 45.4958 19.8431 45.6131 19.7508C45.7303 19.6584 45.8167 19.5569 45.8784 19.44C45.9401 19.3231 45.971 19.1877 45.971 19.0369C45.971 18.7354 45.8383 18.4984 45.5699 18.3323C45.4249 18.2523 45.1904 18.1569 44.8664 18.0461C44.5425 17.9384 44.1229 17.8184 43.6076 17.6892C42.8826 17.5015 42.2532 17.28 41.7225 17.0246C41.1918 16.7661 40.7599 16.4708 40.4236 16.1384C40.112 15.8184 39.8744 15.4615 39.7078 15.0677C39.5412 14.6738 39.4579 14.2338 39.4579 13.7477C39.4579 13.1692 39.5906 12.6492 39.8528 12.1846C40.1151 11.7231 40.4791 11.3231 40.9389 10.9908C41.3986 10.6584 41.9231 10.4031 42.5124 10.2246C43.1016 10.0461 43.7156 9.95691 44.3512 9.95691C45.0269 9.95691 45.6748 10.0308 46.2918 10.1815C46.9089 10.3323 47.4828 10.5446 48.0196 10.8246C48.5565 11.1046 49.0285 11.4338 49.4419 11.8154L47.492 13.9784C47.2174 13.7292 46.9058 13.5015 46.5572 13.2923C46.2085 13.0831 45.8537 12.9138 45.4835 12.7877C45.1133 12.6615 44.777 12.5969 44.4653 12.5969C44.2309 12.5969 44.0242 12.6154 43.8452 12.6554C43.6663 12.6954 43.5182 12.7569 43.3978 12.84C43.2775 12.9231 43.188 13.0246 43.1263 13.1415C43.0646 13.2584 43.0338 13.3938 43.0338 13.5446C43.0399 13.7015 43.0831 13.8461 43.1634 13.9846C43.2436 14.1231 43.367 14.24 43.5274 14.3354C43.6786 14.4246 43.9223 14.5261 44.2586 14.6492C44.5949 14.7692 45.0577 14.9108 45.6532 15.0677C46.3813 15.2677 47.0046 15.4923 47.5229 15.7446C48.0412 15.9969 48.4577 16.2892 48.7663 16.6246C49.0223 16.8892 49.2105 17.1938 49.334 17.5354C49.4574 17.8769 49.5191 18.2492 49.5191 18.6554C49.5191 19.4369 49.2969 20.1292 48.8496 20.7384C48.4022 21.3477 47.7944 21.8246 47.0261 22.1723C46.2579 22.52 45.3817 22.6923 44.4067 22.6923H44.416Z" fill="#262626"/>
<path d="M55.8717 22.6923C54.6684 22.6923 53.6071 22.4984 52.6876 22.1138C51.7682 21.7292 51.0339 21.2123 50.4847 20.5661L52.7432 18.6369C53.2245 19.1138 53.7644 19.4615 54.366 19.6831C54.9677 19.9046 55.5385 20.0154 56.0815 20.0154C56.2882 20.0154 56.4764 19.9938 56.643 19.9508C56.8127 19.9077 56.9515 19.8431 57.0688 19.7508C57.186 19.6584 57.2724 19.5569 57.3341 19.44C57.3958 19.3231 57.4267 19.1877 57.4267 19.0369C57.4267 18.7354 57.294 18.4984 57.0256 18.3323C56.8806 18.2523 56.6461 18.1569 56.3221 18.0461C55.9982 17.9384 55.5786 17.8184 55.0633 17.6892C54.3383 17.5015 53.7089 17.28 53.1782 17.0246C52.6475 16.7661 52.2156 16.4708 51.8793 16.1384C51.5677 15.8184 51.3301 15.4615 51.1635 15.0677C50.9969 14.6738 50.9136 14.2338 50.9136 13.7477C50.9136 13.1692 51.0463 12.6492 51.3085 12.1846C51.5708 11.7231 51.9348 11.3231 52.3945 10.9908C52.8543 10.6584 53.3788 10.4031 53.968 10.2246C54.5573 10.0461 55.1713 9.95691 55.8069 9.95691C56.4826 9.95691 57.1305 10.0308 57.7475 10.1815C58.3646 10.3323 58.9385 10.5446 59.4753 10.8246C60.0121 11.1046 60.4842 11.4338 60.8976 11.8154L58.9477 13.9784C58.6731 13.7292 58.3615 13.5015 58.0129 13.2923C57.6642 13.0831 57.3094 12.9138 56.9392 12.7877C56.569 12.6615 56.2327 12.5969 55.921 12.5969C55.6866 12.5969 55.4798 12.6154 55.3009 12.6554C55.1219 12.6954 54.9738 12.7569 54.8535 12.84C54.7332 12.9231 54.6437 13.0246 54.582 13.1415C54.5203 13.2584 54.4895 13.3938 54.4895 13.5446C54.4956 13.7015 54.5388 13.8461 54.619 13.9846C54.6993 14.1231 54.8227 14.24 54.9831 14.3354C55.1343 14.4246 55.378 14.5261 55.7143 14.6492C56.0506 14.7692 56.5134 14.9108 57.1089 15.0677C57.837 15.2677 58.4602 15.4923 58.9786 15.7446C59.4969 15.9969 59.9134 16.2892 60.2219 16.6246C60.478 16.8892 60.6662 17.1938 60.7896 17.5354C60.9131 17.8769 60.9748 18.2492 60.9748 18.6554C60.9748 19.4369 60.7526 20.1292 60.3053 20.7384C59.8579 21.3477 59.2501 21.8246 58.4818 22.1723C57.7136 22.52 56.8374 22.6923 55.8624 22.6923H55.8717Z" fill="#262626"/>
<path d="M99.0535 13.4492V10.2154H107.313V13.4492H99.0535ZM101.232 22.4615V7.10767H104.943V22.4615H101.232Z" fill="#DA291C"/>
<path d="M109.436 22.4615V10.2123H112.959L113.119 14.1908L112.422 13.4277C112.61 12.7723 112.913 12.1815 113.335 11.6554C113.758 11.1292 114.258 10.7169 114.835 10.4123C115.412 10.1077 116.02 9.95691 116.661 9.95691C116.933 9.95691 117.189 9.97845 117.433 10.0184C117.676 10.0615 117.892 10.1108 118.087 10.1723L117.078 14.2554C116.911 14.16 116.683 14.0769 116.399 14C116.112 13.9231 115.813 13.8861 115.501 13.8861C115.165 13.8861 114.85 13.9446 114.563 14.0615C114.273 14.1784 114.026 14.3477 113.82 14.5661C113.613 14.7846 113.453 15.04 113.335 15.3323C113.218 15.6246 113.159 15.9538 113.159 16.3231V22.4584H109.439L109.436 22.4615Z" fill="#DA291C"/>
<path d="M125.242 19.5169C125.791 19.5169 126.281 19.3784 126.713 19.1015C127.148 18.8246 127.485 18.443 127.731 17.963C127.975 17.48 128.095 16.9353 128.089 16.3292C128.095 15.7046 127.978 15.1538 127.731 14.6707C127.488 14.1877 127.148 13.8123 126.713 13.5353C126.278 13.2615 125.788 13.123 125.242 13.123C124.695 13.123 124.189 13.2615 123.751 13.5384C123.313 13.8153 122.971 14.1969 122.724 14.6769C122.474 15.16 122.354 15.7077 122.36 16.3261C122.354 16.9353 122.474 17.48 122.724 17.96C122.974 18.443 123.316 18.8215 123.751 19.0984C124.186 19.3753 124.686 19.5138 125.242 19.5138V19.5169ZM125.242 22.6923C123.964 22.6923 122.826 22.4184 121.826 21.8677C120.826 21.3169 120.04 20.563 119.463 19.6092C118.889 18.6553 118.599 17.56 118.599 16.3261C118.599 15.0923 118.886 14 119.463 13.043C120.04 12.0861 120.826 11.3353 121.826 10.7846C122.826 10.2338 123.964 9.95996 125.242 9.95996C126.519 9.95996 127.645 10.2338 128.638 10.7846C129.632 11.3353 130.416 12.0892 130.986 13.043C131.557 13.9969 131.844 15.0923 131.844 16.3261C131.844 17.56 131.557 18.6523 130.986 19.6092C130.416 20.563 129.632 21.3169 128.638 21.8677C127.642 22.4184 126.51 22.6923 125.242 22.6923Z" fill="#DA291C"/>
<path d="M134.278 22.4615V10.2123H137.789L137.922 12.7046L137.172 12.9815C137.336 12.4153 137.638 11.9077 138.083 11.4523C138.527 11 139.054 10.6369 139.671 10.3661C140.289 10.0953 140.933 9.95996 141.609 9.95996C142.535 9.95996 143.315 10.1477 143.951 10.523C144.586 10.8984 145.065 11.4553 145.385 12.2C145.706 12.9415 145.867 13.8584 145.867 14.9446V22.4615H142.155V15.24C142.155 14.7507 142.084 14.3446 141.945 14.0184C141.803 13.6923 141.591 13.4492 141.301 13.2923C141.014 13.1323 140.662 13.0615 140.251 13.0738C139.921 13.0738 139.619 13.1261 139.344 13.2277C139.07 13.3292 138.832 13.4769 138.629 13.6677C138.425 13.8584 138.271 14.0769 138.157 14.32C138.042 14.563 137.987 14.8338 137.987 15.1292V22.4677H134.275L134.278 22.4615Z" fill="#DA291C"/>
<path d="M151.032 7.78772C150.337 7.78772 149.794 7.62157 149.406 7.28926C149.017 6.95696 148.823 6.48619 148.823 5.87696C148.823 5.31696 149.02 4.85849 149.418 4.50157C149.813 4.14465 150.353 3.96619 151.032 3.96619C151.71 3.96619 152.269 4.13234 152.658 4.46465C153.046 4.79696 153.241 5.26772 153.241 5.87696C153.241 6.43696 153.043 6.89542 152.645 7.25234C152.25 7.60926 151.71 7.78772 151.032 7.78772ZM149.183 22.4616V10.2123H152.895V22.4616H149.183Z" fill="#DA291C"/>
<path d="M164.69 22.4616L160.374 16.8646L162.981 14.8554L169.074 22.4616H164.69ZM156.366 22.4616V5.38464H160.078V22.4616H156.366ZM159.936 18.8616L158.56 16.0923L164.314 10.2123H169.192L159.936 18.8616Z" fill="#DA291C"/>
<path d="M86.3884 0.615356H82.069V31.3846H86.3884V0.615356Z" fill="#DA291C"/>
<path d="M77.7495 0.615356H73.4301V31.3846H77.7495V0.615356Z" fill="#DA291C"/>
<path d="M95.3357 18.1538H64.4827V22.4615H95.3357V18.1538Z" fill="#DA291C"/>
<path d="M95.3357 9.53845H64.4827V13.8461H95.3357V9.53845Z" fill="#DA291C"/>
<path d="M90.7078 5.23071H69.1107V26.7692H90.7078V5.23071Z" fill="#DA291C"/>
<path d="M86.3884 13.8461H73.4301V18.1538H86.3884V13.8461Z" fill="white"/>
<path d="M82.0689 9.53845H77.7495V22.4615H82.0689V9.53845Z" fill="white"/>
</svg>
