<svg width="296" height="266" viewBox="0 0 296 266" fill="none" xmlns="http://www.w3.org/2000/svg">
<g clip-path="url(#clip0_115_4205)">
<path d="M233.173 172.054V141.222C241.74 141.01 249.885 137.457 255.869 131.323C261.853 125.188 265.202 116.957 265.201 108.388C265.201 108.117 265.201 107.846 265.201 107.58H296V108.388C296.004 125.129 289.413 141.198 277.653 153.114C265.894 165.03 249.913 171.835 233.173 172.054Z" fill="#191A59"/>
<path d="M68.743 189.092C106.799 189.092 137.65 158.243 137.65 120.188C137.65 82.1339 106.799 51.2847 68.743 51.2847C30.6867 51.2847 -0.164062 82.1339 -0.164062 120.188C-0.164062 158.243 30.6867 189.092 68.743 189.092Z" fill="#3658FF"/>
<path d="M215.79 85.2457H186.77V60.1546C186.821 56.1118 186.069 52.0991 184.557 48.3493C183.045 44.5996 180.803 41.1873 177.962 38.3104C175.121 35.4336 171.737 33.1494 168.007 31.5904C164.276 30.0314 160.273 29.2287 156.23 29.2287C152.186 29.2287 148.183 30.0314 144.453 31.5904C140.722 33.1494 137.338 35.4336 134.497 38.3104C131.656 41.1873 129.414 44.5996 127.903 48.3493C126.391 52.0991 125.638 56.1118 125.689 60.1546V85.2457H96.6694V60.1546C96.5985 52.2883 98.0868 44.4858 101.048 37.1978C104.01 29.9098 108.385 23.2805 113.923 17.693C119.461 12.1054 126.051 7.67013 133.312 4.64332C140.574 1.61651 148.363 0.0581055 156.23 0.0581055C164.097 0.0581055 171.886 1.61651 179.147 4.64332C186.409 7.67013 192.999 12.1054 198.536 17.693C204.074 23.2805 208.45 29.9098 211.411 37.1978C214.373 44.4858 215.861 52.2883 215.79 60.1546V85.2457Z" fill="#FF5D24"/>
<path d="M236.747 75.7373H75.7168V208.109H236.747V75.7373Z" fill="#D7E2FF"/>
<path d="M72.3213 33.5062C78.8684 33.5062 84.1758 28.199 84.1758 21.6523C84.1758 15.1055 78.8684 9.79834 72.3213 9.79834C65.7742 9.79834 60.4668 15.1055 60.4668 21.6523C60.4668 28.199 65.7742 33.5062 72.3213 33.5062Z" fill="#3658FF"/>
<path d="M27.7427 135.5C36.7446 135.5 44.0421 128.203 44.0421 119.202C44.0421 110.2 36.7446 102.903 27.7427 102.903C18.7408 102.903 11.4434 110.2 11.4434 119.202C11.4434 128.203 18.7408 135.5 27.7427 135.5Z" fill="white"/>
<path d="M98.5745 220.572L84.853 260.859L67.1027 257.372L53.8311 230.371L80.8338 217.1L98.5745 220.572Z" fill="#FF5D24"/>
<path d="M98.5946 220.54L71.5928 233.814L84.8676 260.814L111.869 247.54L98.5946 220.54Z" fill="#D7E2FF"/>
<path d="M71.6491 233.969L53.8311 230.371L80.8338 217.1L98.5745 220.572L71.6491 233.969Z" fill="#191A59"/>
<path d="M130.836 254.485L162.736 264.037C166.362 265.122 170.182 263.063 171.268 259.437C172.354 255.812 170.294 251.992 166.668 250.906L134.768 241.354C131.142 240.269 127.322 242.328 126.236 245.954C125.151 249.579 127.21 253.399 130.836 254.485Z" fill="#FF5D24"/>
<path d="M173.953 136.463C173.954 133.365 173.142 130.321 171.6 127.634C170.057 124.947 167.837 122.712 165.161 121.15C162.485 119.589 159.446 118.756 156.348 118.735C153.25 118.714 150.2 119.505 147.503 121.03C144.806 122.554 142.556 124.759 140.977 127.425C139.397 130.09 138.544 133.123 138.503 136.221C138.461 139.319 139.232 142.373 140.739 145.08C142.246 147.788 144.436 150.052 147.091 151.649L143.081 175.347H169.378L165.368 151.649C167.989 150.074 170.156 147.848 171.661 145.187C173.165 142.525 173.955 139.52 173.953 136.463Z" fill="#3658FF"/>
<path d="M268.688 204.651C274.853 204.651 279.851 199.653 279.851 193.489C279.851 187.324 274.853 182.326 268.688 182.326C262.523 182.326 257.525 187.324 257.525 193.489C257.525 199.653 262.523 204.651 268.688 204.651Z" fill="#3658FF"/>
<path d="M207.563 188.587L266.023 204.316L271.823 182.763L213.363 167.034L207.563 188.587Z" fill="#3658FF"/>
<path d="M211.094 189.16C217.259 189.16 222.256 184.163 222.256 177.998C222.256 171.833 217.259 166.835 211.094 166.835C204.928 166.835 199.931 171.833 199.931 177.998C199.931 184.163 204.928 189.16 211.094 189.16Z" fill="white"/>
<path d="M255.09 12.7206L246.294 17.7988L251.372 26.5945L260.168 21.5163L255.09 12.7206Z" fill="#FF5D24"/>
<path d="M277.099 70.1319L237.144 46.337L277.558 26.3096L277.099 70.1319Z" fill="#FF5D24"/>
<path d="M237.144 46.337L265.307 44.5137L277.099 70.1319L237.144 46.337Z" fill="#191A59"/>
</g>
<defs>
<clipPath id="clip0_115_4205">
<rect width="296" height="266" fill="white"/>
</clipPath>
</defs>
</svg>
