<svg width="1440" height="180" viewBox="0 0 1440 180" fill="none" xmlns="http://www.w3.org/2000/svg">
<g opacity="0.25">
<path d="M1440 179C960.346 179 480.692 179 1.03829 179" stroke="url(#paint0_linear_689_2613)" stroke-miterlimit="10"/>
<path d="M1440 174.007C1197.12 174.044 954.35 173.152 711.526 172.142C606.462 171.702 500.678 171.846 395.624 172.772C264.119 173.93 132.554 172.84 1.07848 174.007" stroke="url(#paint1_linear_689_2613)" stroke-miterlimit="10"/>
<path d="M1440 169.088C1371.18 169.088 1302.34 169.266 1233.53 169.179C1172.03 169.102 1110.68 167.427 1049.2 167.139C934.685 166.602 820.187 167.226 705.68 166.592C604.043 166.028 501.357 164.535 399.791 166.813C340.593 168.156 282.006 168.766 222.758 169.32C148.812 170.011 74.955 168.135 1.03829 169.088" stroke="url(#paint2_linear_689_2613)" stroke-miterlimit="10"/>
<path d="M1440 164.237C1372.17 164.237 1304.16 164.619 1236.35 164.206C1172.62 163.817 1109.27 161.089 1045.59 160.388C930.857 159.123 817.02 162.737 702.402 162.093C601.545 161.536 502.117 157.013 401.15 161.059C342.132 163.425 284.943 165.277 225.496 165.817C150.55 166.488 75.9742 163.223 1.03829 164.237" stroke="url(#paint3_linear_689_2613)" stroke-miterlimit="10"/>
<path d="M1440 159.479C1373.4 159.479 1306.31 160.089 1239.75 159.247C1173.2 158.405 1107.6 154.53 1041.25 153.278C980.931 152.141 921.464 152.446 861.467 154.922C807.696 157.143 755.464 158.747 701.253 158.506C653.737 158.291 609.219 155.868 562.293 153.61C508.592 151.023 453.302 152.231 400.1 155.526C341.543 159.157 286.312 162.629 226.516 163.025C151.09 163.529 76.5138 158.61 1.03829 159.479" stroke="url(#paint4_linear_689_2613)" stroke-miterlimit="10"/>
<path d="M1440 154.788C1374.84 154.788 1308.68 155.61 1243.63 154.295C1174.12 152.892 1105.79 147.812 1036.43 145.906C976.879 144.249 916.929 145.385 858.31 149.282C805.977 152.711 755.384 155.774 701.893 155.633C652.358 155.503 607.541 151.292 559.455 147.886C504.875 144.021 450.864 145.487 397.112 150.174C339.504 155.207 286.322 160.63 226.116 160.774C150.56 160.958 76.7237 154.224 1.03829 154.791" stroke="url(#paint5_linear_689_2613)" stroke-miterlimit="10"/>
<path d="M1440 150.171C1376.38 150.151 1311.19 151.178 1247.79 149.383C1175 147.339 1103.89 141.035 1031.37 138.401C970.519 136.193 914.279 138.246 855.582 143.793C805.328 148.544 756.653 153.302 703.941 153.312C651.819 153.312 605.452 146.987 555.988 142.37C499.639 137.112 447.676 138.642 392.616 144.994C336.576 151.456 285.123 159.086 224.587 158.918C149.141 158.69 76.6937 150.017 1.03829 150.171" stroke="url(#paint6_linear_689_2613)" stroke-miterlimit="10"/>
<path d="M1440 145.628C1377.98 145.598 1313.78 146.739 1252.14 144.531C1176.01 141.806 1102.24 134.284 1026.39 130.888C964.683 128.127 911.122 131.079 853.373 138.468C805.728 144.564 758.931 151.171 707.079 151.379C652.278 151.601 602.874 142.914 552.191 137.065C493.663 130.311 443.689 131.747 387.13 139.978C333.269 147.816 283.045 157.878 222.249 157.315C147.073 156.617 76.534 145.95 1.05847 145.628" stroke="url(#paint7_linear_689_2613)" stroke-miterlimit="10"/>
<path d="M1440 141.159C1379.57 141.118 1316.37 142.333 1256.39 139.759C1177.01 136.354 1100.57 127.65 1021.56 123.496C958.607 120.184 908.084 123.976 851.555 133.311C806.847 140.692 761.939 149.218 710.806 149.668C653.328 150.168 599.956 138.884 548.104 131.948C520.943 128.335 492.314 124.949 462.705 125.727C433.726 126.493 406.286 130.589 380.944 135.122C329.861 144.239 280.097 156.788 219.311 155.828C144.465 154.644 76.284 141.991 1.02829 141.169" stroke="url(#paint8_linear_689_2613)" stroke-miterlimit="10"/>
<path d="M1439.95 136.767C1380.99 136.716 1318.82 137.961 1260.48 135.089C1178.07 131.042 1099.25 121.215 1017.31 116.343C952.914 112.511 905.308 117.071 850.308 128.328C808.608 136.864 765.579 147.296 714.905 148.004C654.949 148.839 596.99 134.901 544.149 127.013C516.469 122.879 485.941 118.52 455.023 119.48C426.044 120.379 398.894 125.291 374.661 130.385C326.346 140.545 277.091 155.627 216.155 154.281C141.629 152.63 76.0765 138.055 1.02062 136.767" stroke="url(#paint9_linear_689_2613)" stroke-miterlimit="10"/>
<path d="M1439.94 132.452C1382.39 132.391 1321.14 133.636 1264.29 130.553C1179.19 125.932 1098.25 115.068 1013.77 109.545C981.6 107.444 951.112 106.23 919.605 109.914C893.934 112.917 871.35 118.188 849.566 123.516C810.594 133.042 769.453 145.259 718.9 146.215C656.745 147.393 594.13 130.928 540.429 122.235C512.269 117.675 479.862 112.394 447.766 113.511C418.657 114.517 391.866 120.178 368.673 125.768C322.926 136.787 274.261 154.228 212.995 152.54C138.739 150.49 75.9039 134.109 0.977991 132.435" stroke="url(#paint10_linear_689_2613)" stroke-miterlimit="10"/>
<path d="M1439.93 128.207C1383.59 128.143 1323.16 129.381 1267.62 126.157C1180.37 121.09 1097.89 109.293 1011.28 103.25C979.002 100.999 948.604 99.6027 917.257 103.783C891.825 107.196 870.151 113.051 849.426 118.903C812.742 129.247 773.321 142.997 722.517 144.155C690.051 144.896 657.404 139.209 629.365 134.394C598.257 129.052 568.349 122.966 537.251 117.617C508.672 112.705 474.696 106.679 441.52 107.937C412.201 109.048 385.83 115.286 363.466 121.292C319.818 133.035 272.072 152.449 210.217 150.483C136.09 148.134 75.8839 130.123 0.967981 128.193" stroke="url(#paint11_linear_689_2613)" stroke-miterlimit="10"/>
<path d="M1439.92 124.04C1384.59 123.976 1324.8 125.217 1270.33 121.933C1181.54 116.581 1098.1 103.978 1010.04 97.5595C977.913 95.2108 947.285 93.711 916.257 98.1903C890.856 101.858 869.831 108.216 849.855 114.47C814.701 125.472 776.768 140.363 725.345 141.649C691.989 142.474 658.394 136.314 629.914 131.22C597.767 125.466 566.959 118.916 534.813 113.155C505.834 107.958 470.859 101.458 436.793 102.784C407.165 103.938 381.243 110.565 359.489 116.916C317.19 129.261 270.903 150.067 208.058 147.97C133.932 145.497 76.0237 126.04 0.95785 124.053" stroke="url(#paint12_linear_689_2613)" stroke-miterlimit="10"/>
<path d="M1439.9 119.946C1385.35 119.893 1325.93 121.158 1272.26 117.9C1182.72 112.464 1099.05 99.2004 1010.31 92.6072C978.623 90.2584 947.426 88.7284 916.838 93.238C891.226 97.0127 870.491 103.713 850.886 110.233C816.291 121.755 779.477 137.243 726.975 138.491C692.88 139.303 659.194 133.079 630.315 127.754C597.488 121.715 566.111 114.83 533.295 108.783C503.946 103.374 468.821 96.7711 434.056 98.0864C404.078 99.2205 378.596 105.968 357.112 112.591C315.142 125.526 271.064 146.859 206.75 144.782C132.434 142.383 76.2746 121.728 0.899018 119.953" stroke="url(#paint13_linear_689_2613)" stroke-miterlimit="10"/>
<path d="M1439.89 115.92C1385.54 115.806 1326.31 117.229 1272.87 113.907C1183.94 108.367 1101.33 94.7076 1013.3 87.9601C981.701 85.5409 950.523 84.0914 919.956 88.5473C893.974 92.3421 872.83 99.1232 852.934 105.723C817.699 117.413 780.496 133.099 727.305 134.562C692.969 135.505 659.483 129.358 630.474 123.949C597.598 117.816 566.281 110.796 533.414 104.66C503.926 99.1501 468.981 92.6374 433.956 94.0466C403.778 95.2613 378.446 102.022 356.922 108.719C314.782 121.835 271.543 142.887 206.72 140.931C132.194 138.689 76.6141 117.47 0.928675 115.92" stroke="url(#paint14_linear_689_2613)" stroke-miterlimit="10"/>
<path d="M1439.88 111.984C1385.3 111.776 1326.25 113.571 1272.62 110.018C1185.26 104.23 1104.52 90.3456 1018.09 83.3599C986.118 80.7729 955.76 79.4274 924.752 83.9135C898.301 87.7352 876.407 94.4459 855.782 100.989C819.378 112.551 780.606 128.395 727.415 130.391C693.289 131.673 659.683 125.509 630.924 120.104C598.448 114.001 567.6 106.975 535.133 100.865C505.705 95.3249 470.76 88.8626 435.785 90.5369C405.697 91.9763 379.995 98.8346 358.171 105.458C315.812 118.309 271.324 138.964 207.28 137.065C132.574 134.847 76.8141 113.507 0.948844 111.984" stroke="url(#paint15_linear_689_2613)" stroke-miterlimit="10"/>
<path d="M1439.86 108.115C1384.97 107.867 1326.08 110.162 1272.12 106.401C1186.54 100.435 1107.91 86.3696 1023.3 79.2228C991.053 76.4915 961.404 75.2735 930.047 79.7026C903.186 83.4974 880.413 90.0336 859.018 96.5262C821.395 107.934 780.835 123.721 727.693 126.201C693.877 127.781 660.532 121.745 632.032 116.363C600.105 110.323 569.907 103.341 538 97.3046C508.661 91.7549 474.046 85.4771 439.231 87.3896C409.113 89.0472 382.952 95.9356 360.638 102.489C317.719 115.071 271.772 135.21 208.218 133.337C133.182 131.13 77.1126 109.652 0.917601 108.136" stroke="url(#paint16_linear_689_2613)" stroke-miterlimit="10"/>
<path d="M1439.84 104.321C1384.57 104.082 1325.71 106.985 1271.37 103.032C1187.75 96.9558 1111.41 82.746 1028.79 75.475C996.41 72.6263 967.321 71.556 935.704 75.8575C908.364 79.5752 884.741 85.9235 862.517 92.2986C823.325 103.502 781.345 119.061 728.054 121.997C694.638 123.835 661.882 118.061 633.662 112.716C602.434 106.797 573.006 99.8749 541.798 93.9494C512.569 88.3963 478.624 82.4306 444.019 84.5545C413.761 86.4167 387.06 93.2783 364.077 99.7407C320.298 112.045 272.712 131.566 209.498 129.704C134.002 127.479 77.5033 105.857 0.848618 104.331" stroke="url(#paint17_linear_689_2613)" stroke-miterlimit="10"/>
<path d="M1439.83 100.599C1384.11 100.412 1325.27 104.012 1270.44 99.8881C1188.92 93.7579 1115 79.4206 1034.51 72.1094C1002.16 69.1634 973.467 68.2474 941.69 72.361C913.86 75.9646 889.407 82.0915 866.274 88.272C825.304 99.2204 782.045 114.407 728.554 117.765C664 121.822 598.767 100.71 546.455 90.7583C517.336 85.2153 484.31 79.6622 450.004 81.9875C419.507 84.0577 392.246 90.8522 368.473 97.2173C323.586 109.233 274.221 128.056 211.167 126.184C135.112 123.929 78.0729 102.15 0.868616 100.599" stroke="url(#paint18_linear_689_2613)" stroke-miterlimit="10"/>
<path d="M1439.81 96.9555C1383.6 96.8515 1324.75 101.223 1269.35 96.9555C1190.02 90.822 1118.65 76.4176 1040.4 69.0828C1008.15 66.063 979.742 65.3114 947.875 69.1868C919.536 72.6395 894.234 78.4945 870.191 84.4804C827.442 95.1168 782.894 109.796 729.133 113.571C665.559 118.027 603.134 97.5259 551.791 87.7351C523.402 82.3296 490.305 76.8806 456.939 79.6655C425.962 82.2491 398.672 88.5135 373.55 94.8886C327.373 106.599 276.11 124.66 213.055 122.768C136.351 120.47 78.7024 98.5258 0.848597 96.932" stroke="url(#paint19_linear_689_2613)" stroke-miterlimit="10"/>
<path d="M1439.79 93.3822C1383.05 93.3822 1324.14 98.593 1268.12 94.1673C1191.05 88.0774 1122.3 73.6126 1046.35 66.3181C914.449 53.6383 845.639 100.448 729.773 109.407C667.318 114.242 608.05 94.4793 557.637 84.8865C529.377 79.518 497.56 74.6292 464.614 77.5719C433.247 80.3736 405.317 86.5004 379.186 92.7547C331.57 104.163 278.318 121.402 215.134 119.48C137.72 117.131 79.3919 95.0162 0.818574 93.3822" stroke="url(#paint20_linear_689_2613)" stroke-miterlimit="10"/>
<path d="M1439.77 89.8859C1382.48 90.0268 1323.47 96.0932 1266.79 91.5367C1192.01 85.5273 1125.89 71.029 1052.31 63.7982C923.133 51.1084 844.46 95.6738 730.462 105.273C669.087 110.447 613.377 91.5602 563.883 82.1519C535.743 76.8035 505.315 72.559 472.838 75.6358C441.051 78.6556 412.412 84.6281 385.231 90.7516C336.087 101.824 280.807 118.235 217.353 116.269C139.179 113.85 80.1217 91.5736 0.788932 89.8859" stroke="url(#paint21_linear_689_2613)" stroke-miterlimit="10"/>
<path d="M1439.75 86.4635C1381.89 86.7487 1322.76 93.701 1265.37 89.0303C1192.88 83.1317 1129.46 68.6165 1058.17 61.4831C931.727 48.8302 843.321 90.9597 731.172 101.2C670.895 106.703 618.973 88.7451 570.348 79.5214C542.308 74.2032 513.389 70.6398 481.412 73.8173C449.185 77.0351 419.806 82.8767 391.547 88.8492C340.823 99.5862 283.505 115.141 219.731 113.132C140.788 110.639 80.951 88.1949 0.828842 86.4501" stroke="url(#paint22_linear_689_2613)" stroke-miterlimit="10"/>
<path d="M1439.73 83.1148C1381.31 83.5476 1322.02 91.389 1263.86 86.6211C1193.61 80.8566 1132.81 66.3348 1063.81 59.3221C940.061 46.743 842.202 86.3426 731.891 97.1971C672.704 103.022 624.679 86.0205 576.883 76.9745C548.963 71.6899 521.453 68.8278 490.006 72.1194C457.329 75.5418 427.181 81.2358 397.862 87.0606C345.55 97.4621 286.213 112.158 222.039 110.098C142.267 107.535 81.6904 84.9333 0.768763 83.1148" stroke="url(#paint23_linear_689_2613)" stroke-miterlimit="10"/>
<path d="M1439.71 79.8433C1380.75 80.4205 1321.26 89.1309 1262.43 84.2824C1194.34 78.669 1136.11 64.1505 1069.31 57.2754C948.005 44.7936 841.072 81.8163 732.551 93.2781C674.443 99.4183 630.325 83.3732 583.309 74.4883C555.509 69.2372 529.347 67.0763 498.5 70.4619C465.374 74.0923 434.466 79.6555 404.098 85.3192C350.247 95.3651 288.931 109.233 224.318 107.129C143.746 104.495 82.4201 81.7089 0.709112 79.8501" stroke="url(#paint24_linear_689_2613)" stroke-miterlimit="10"/>
<path d="M1439.69 76.6424C1380.14 77.357 1320.51 86.9029 1260.96 81.9874C1194.92 76.535 1139.15 62.0266 1074.42 55.2991C955.45 42.9314 839.963 77.3839 733.26 89.453C676.121 95.9153 635.95 80.7593 589.584 72.0523C561.874 66.8515 537.082 65.3416 506.754 68.8244C473.198 72.6629 441.541 78.1153 410.183 83.6147C354.853 93.315 291.649 106.367 226.586 104.21C145.255 101.509 83.2094 78.5582 0.7489 76.6424" stroke="url(#paint25_linear_689_2613)" stroke-miterlimit="10"/>
<path d="M1439.67 73.5186C1379.56 74.3507 1319.76 84.6818 1259.54 79.7159C1195.39 74.4279 1141.93 59.9195 1079.14 53.3497C1018.23 46.9746 953.441 54.1718 896.552 61.8622C841.692 69.2808 789.54 79.0113 733.86 85.7387C677.44 92.5567 641.456 78.1154 595.44 69.6331C534.334 58.376 471.749 72.6529 415.819 81.9103C359.15 91.2783 294.167 103.552 228.674 101.348C146.623 98.5896 83.8987 75.4781 0.708704 73.5153" stroke="url(#paint26_linear_689_2613)" stroke-miterlimit="10"/>
<path d="M1439.65 70.4653C1378.98 71.3947 1319.17 82.4404 1258.18 77.4376C1195.74 72.3107 1144.4 57.8123 1083.31 51.3869C1022.96 45.0319 956.459 51.9338 899.3 58.9766C843.331 65.8752 790.059 74.9849 734.39 82.1519C678.72 89.3188 646.203 75.5855 600.776 67.224C541.059 56.2353 475.866 71.5859 420.906 80.1923C363.048 89.2517 296.416 100.781 230.563 98.546C147.873 95.7376 84.5286 72.4717 0.729038 70.4653" stroke="url(#paint27_linear_689_2613)" stroke-miterlimit="10"/>
<path d="M1439.63 67.4891C1378.39 68.4957 1318.63 80.1588 1256.93 75.1258C1195.98 70.1566 1146.53 55.6649 1087.05 49.3636C1027.17 43.0389 959.147 49.6589 901.729 56.1179C844.77 62.5299 790.429 71.0927 734.849 78.6993C708.628 82.2861 689.412 82.4337 664.06 77.8067C643.455 74.0454 626.028 68.583 605.452 64.7948C578.002 59.735 556.138 59.8759 527.389 63.6372C492.844 68.1635 459.188 73.3676 425.293 78.4241C366.465 87.1748 298.384 98.0326 232.232 95.7779C148.972 92.9393 85.0981 69.5191 0.698966 67.4891" stroke="url(#paint28_linear_689_2613)" stroke-miterlimit="10"/>
<path d="M1439.61 64.5833C1377.81 65.5899 1318.22 77.81 1255.8 72.7602C1196.06 67.9252 1148.3 53.3799 1090.02 47.2396C1030.45 40.9618 961.176 47.3067 903.528 53.2792C845.879 59.2517 790.529 67.3716 735.129 75.4244C709.527 79.1454 690.811 79.6722 665.679 75.0687C645.754 71.4181 629.126 66.0295 609.25 62.352C581.95 57.2989 560.425 57.8358 532.176 61.7212C497.461 66.4959 463.285 71.6899 428.75 76.6054C369.183 85.081 299.773 95.3349 233.521 93.0734C149.801 90.218 85.4979 66.6569 0.689071 64.6135" stroke="url(#paint29_linear_689_2613)" stroke-miterlimit="10"/>
<path d="M1439.59 61.7583C1377.21 62.7381 1317.96 75.381 1254.84 70.3178C1195.99 65.5901 1149.72 50.9341 1092.25 44.975C1032.75 38.7978 962.735 44.8542 904.727 50.4006C846.249 55.9872 790.419 63.7682 735.249 72.2639C710.167 76.1225 691.66 76.9345 666.718 72.331C647.332 68.7575 631.374 63.4024 612.048 59.7955C584.877 54.7256 563.373 55.5476 535.553 59.5807C500.788 64.6137 466.213 69.8212 431.148 74.6327C371.192 82.8633 300.623 92.5871 234.42 90.3423C150.371 87.4903 85.7578 63.795 0.589239 61.7583" stroke="url(#paint30_linear_689_2613)" stroke-miterlimit="10"/>
<path d="M1439.57 59.0034C1376.62 59.8926 1317.88 72.8408 1254.06 67.7642C1195.82 63.1305 1150.55 48.4107 1093.77 42.5221C1034.46 36.3751 963.524 42.3006 905.366 47.5014C846.289 52.786 790.209 60.3556 735.299 69.311C710.627 73.3374 692.02 74.3104 667.208 69.6767C648.222 66.1301 632.763 60.7717 613.806 57.1915C586.736 52.078 564.932 53.0444 537.441 57.262C502.746 62.5835 467.912 67.8279 432.457 72.5589C372.321 80.5815 300.932 89.869 235 87.6579C150.751 84.8361 85.9773 61.0133 0.60885 59.0034" stroke="url(#paint31_linear_689_2613)" stroke-miterlimit="10"/>
<path d="M1439.54 56.3194C1376.27 57.1179 1317.94 70.2071 1253.73 65.0835C1195.69 60.4531 1150.69 45.7468 1094.09 39.8917C1034.84 33.7649 963.584 39.8112 905.406 44.9012C846.119 50.0885 790.219 57.6011 735.239 66.5967C710.656 70.6231 691.79 71.462 667.148 66.8585C648.292 63.3354 632.933 58.0239 614.076 54.4907C587.096 49.4376 564.892 50.3771 537.661 54.7155C503.116 60.2183 468.241 65.5029 432.637 70.1869C372.79 78.0619 300.472 87.2454 235.05 84.9504C150.92 82.0044 85.7274 58.5842 0.578821 56.3294" stroke="url(#paint32_linear_689_2613)" stroke-miterlimit="10"/>
<path d="M1439.52 53.6785C1376.11 54.4368 1317.95 67.6131 1253.59 62.4291C1195.64 57.7585 1150.41 43.1763 1093.77 37.3582C1034.52 31.2716 963.424 37.583 905.336 42.7065C846.239 47.9207 790.579 55.4199 735.219 63.9894C682.817 72.0992 656.846 59.6275 613.687 51.8498C586.706 46.9879 564.362 47.8737 537.382 52.229C502.986 57.782 468.172 63.0532 432.577 67.6836C373.08 75.421 299.823 84.6481 234.87 82.1585C151.1 78.9441 85.108 56.4768 0.529038 53.7288" stroke="url(#paint33_linear_689_2613)" stroke-miterlimit="10"/>
<path d="M1439.5 51.0782C1375.9 51.8097 1317.88 65.0834 1253.33 59.8558C1195.37 55.1583 1149.96 40.7304 1093.29 34.966C1034.04 28.9264 963.154 35.4793 905.156 40.6197C846.289 45.8372 790.839 53.3028 735.159 61.4395C683.196 69.0359 656.296 56.7856 613.107 49.3603C586.127 44.7098 563.583 45.5688 536.842 49.9307C502.607 55.514 467.892 60.7449 432.307 65.2947C373.05 72.8744 299.064 82.0043 234.65 79.3468C151.3 75.911 84.4984 54.4201 0.539026 51.2359" stroke="url(#paint34_linear_689_2613)" stroke-miterlimit="10"/>
<path d="M1439.48 48.5247C1375.66 49.236 1317.73 62.6171 1252.94 57.366C1195.05 52.6752 1149.37 38.4118 1092.66 32.7077C1033.41 26.7688 962.755 33.4861 904.866 38.6299C846.279 43.8306 790.949 51.2392 735.069 58.9262C683.476 66.016 655.656 54.0375 612.358 46.9578C585.307 42.5388 562.593 43.3978 536.053 47.7563C502.007 53.3497 467.362 58.5202 431.838 62.9627C372.73 70.3612 298.294 79.2662 234.32 76.4712C151.38 72.8508 83.8089 52.3699 0.488999 48.7931" stroke="url(#paint35_linear_689_2613)" stroke-miterlimit="10"/>
<path d="M1439.46 46.0151C1375.37 46.7197 1317.55 60.2048 1252.43 54.9503C1194.59 50.2864 1148.63 36.184 1091.87 30.594C1032.64 24.7591 962.345 31.6275 904.477 36.7544C846.209 41.9216 791.049 49.253 734.939 56.477C683.736 63.0702 654.937 51.4071 611.438 44.7099C584.298 40.5291 561.404 41.4183 535.033 45.7635C501.254 51.3852 466.591 56.3875 431.198 60.7483C372.141 67.9422 297.495 76.5184 233.891 73.5959C151.49 69.8278 83.0895 50.3804 0.499109 46.4647" stroke="url(#paint36_linear_689_2613)" stroke-miterlimit="10"/>
<path d="M1439.43 43.5522C1375.05 44.2568 1317.25 57.8593 1251.81 52.6116C1194.02 47.9846 1147.75 34.0701 1090.92 28.5942C1031.71 22.8901 961.715 29.8659 903.957 34.9693C845.999 40.0828 790.989 47.3135 734.749 54.0678C683.926 60.1745 654.087 48.857 610.329 42.5658C583.059 38.6434 559.995 39.5829 533.774 43.9079C500.198 49.4924 465.662 54.401 430.349 58.6076C371.261 65.5766 296.625 73.6864 233.361 70.6867C151.49 66.8046 82.3099 48.4208 0.43895 44.1998" stroke="url(#paint37_linear_689_2613)" stroke-miterlimit="10"/>
<path d="M1439.41 41.1431C1374.7 41.8511 1316.91 55.571 1251.1 50.3635C1193.35 45.7936 1146.75 32.0804 1089.9 26.7353C1030.73 21.1722 961.096 28.2318 903.388 33.2916C845.859 38.3246 790.869 45.4413 734.57 51.7157C684.106 57.3426 653.168 46.411 609.11 40.5459C581.69 36.8953 558.447 37.9052 532.336 42.2235C498.989 47.7546 464.608 52.5528 429.41 56.5877C370.223 63.2983 295.816 70.8679 232.822 67.7978C151.52 63.8385 81.5908 46.5385 0.459357 42.0591" stroke="url(#paint38_linear_689_2613)" stroke-miterlimit="10"/>
<path d="M1439.39 38.7808C1374.32 39.5056 1316.48 53.3564 1250.29 48.1757C1192.58 43.6863 1145.64 30.1912 1088.73 24.9904C1029.6 19.5884 960.347 26.6983 902.768 31.7011C845.639 36.667 790.709 43.6226 734.39 49.4138C684.276 54.5643 652.179 44.0453 607.791 38.6298C580.201 35.2745 556.778 36.3616 530.747 40.643C497.621 46.1086 463.383 50.7786 428.29 54.618C368.913 61.0702 294.927 67.999 232.162 64.8752C151.45 60.8488 80.8012 44.6728 0.429163 39.9619" stroke="url(#paint39_linear_689_2613)" stroke-miterlimit="10"/>
<path d="M1439.37 36.4726C1373.91 37.2175 1316.08 51.2025 1249.4 46.0923C1191.73 41.67 1144.42 28.403 1087.45 23.3633C1028.37 18.1391 959.547 25.2725 902.049 30.2116C845.32 35.0868 790.439 41.868 734.17 47.1694C684.396 51.8668 651.07 41.7774 606.332 36.8283C578.552 33.7581 554.949 34.9627 528.978 39.177C496.084 44.5596 462.008 49.087 427.052 52.7191C367.445 58.8761 294.057 65.0902 231.473 61.9294C151.36 57.9031 80.042 42.8376 0.429442 37.9322" stroke="url(#paint40_linear_689_2613)" stroke-miterlimit="10"/>
<path d="M1439.35 34.2212C1373.48 34.993 1315.59 49.1122 1248.49 44.0725C1190.79 39.7542 1143.11 26.7154 1086.08 21.8501C1027.05 16.8172 958.708 23.9472 901.209 28.8124C844.9 33.5837 790.059 40.1702 733.85 44.9784C684.416 49.2095 649.791 39.5898 604.683 35.1305C576.703 32.3657 552.93 33.6877 526.979 37.8819C494.325 43.1701 460.419 47.5391 425.612 50.9442C365.776 56.7858 293.128 62.2348 230.683 59.0372C151.2 54.9873 79.2422 41.0963 0.389124 36.023" stroke="url(#paint41_linear_689_2613)" stroke-miterlimit="10"/>
<path d="M1439.33 32.0367C1373.05 32.8319 1315.09 47.0853 1247.4 42.1295C1189.79 37.9085 1141.72 25.1247 1084.62 20.444C1025.66 15.609 957.788 22.7223 900.42 27.4902C844.52 32.1474 789.72 38.5158 733.63 42.8341C684.506 46.6189 648.512 37.4656 603.054 33.5197C574.875 31.067 550.912 32.5131 524.951 36.6771C492.543 41.8595 458.819 46.0581 424.183 49.2226C363.957 54.7254 292.209 59.3222 229.864 56.1313C151.001 52.1049 78.4729 39.3815 0.369226 34.1639" stroke="url(#paint42_linear_689_2613)" stroke-miterlimit="10"/>
<path d="M1439.31 29.8894C1372.55 30.7315 1314.48 45.1225 1246.31 40.2607C1188.71 36.1571 1140.22 23.6283 1083.08 19.1423C1024.17 14.522 956.809 21.595 899.521 26.2824C844.041 30.8221 789.28 36.949 733.34 40.7774C684.506 44.1327 647.093 35.4726 601.296 32.0535C572.906 29.9229 548.764 31.5234 522.762 35.6303C490.601 40.6965 457.064 44.7134 422.615 47.6256C362.018 52.766 291.269 56.4803 229.004 53.286C150.761 49.2764 77.7135 37.7677 0.349329 32.4293" stroke="url(#paint43_linear_689_2613)" stroke-miterlimit="10"/>
<path d="M1439.29 27.8124C1372.05 28.6982 1313.88 43.2268 1245.14 38.4723C1187.59 34.4895 1138.71 22.2258 1081.47 17.9444C1022.64 13.5422 955.8 20.5649 898.601 25.1483C843.521 29.5606 788.83 35.429 733.071 38.7676C684.486 41.6766 645.624 33.54 599.477 30.6309C570.888 28.8291 546.575 30.5873 520.484 34.6573C488.573 39.5975 455.231 43.4204 420.986 46.0654C360.03 50.8165 290.36 53.6082 228.125 50.4273C150.491 46.4647 76.984 36.1705 0.329309 30.7248" stroke="url(#paint44_linear_689_2613)" stroke-miterlimit="10"/>
<path d="M1439.27 25.7991C1371.56 26.7319 1313.24 41.398 1243.97 36.7576C1186.41 32.9024 1137.12 20.9104 1079.81 16.8404C1021.06 12.6697 954.751 19.622 897.592 24.098C842.901 28.3827 788.291 33.9693 732.711 36.8214C684.336 39.301 643.995 31.6944 597.518 29.3222C568.719 27.8492 544.237 29.7752 518.046 33.7848C486.383 38.5972 453.236 42.2227 419.207 44.5957C357.841 48.9341 289.361 50.7728 227.146 47.6155C150.201 43.7031 76.2545 34.6505 0.30929 29.1142" stroke="url(#paint45_linear_689_2613)" stroke-miterlimit="10"/>
<path d="M1439.25 23.8498C1371.05 24.833 1312.58 39.6199 1242.74 35.1204C1185.18 31.3993 1135.48 19.6792 1078.1 15.8306C1019.43 11.9049 953.662 18.7699 896.573 23.1318C842.252 27.2823 787.741 32.5703 732.401 34.9392C684.196 37.0027 642.386 29.9364 595.61 28.101C566.631 26.9636 541.959 29.064 515.668 33.0233C484.251 37.6988 451.305 41.1168 417.508 43.2067C355.753 47.109 288.482 47.978 226.266 44.8441C149.882 40.9989 75.6451 33.1978 0.35946 27.581" stroke="url(#paint46_linear_689_2613)" stroke-miterlimit="10"/>
<path d="M1439.23 21.9708C1370.53 23.0042 1311.89 37.9421 1241.49 33.5601C1183.95 29.9732 1133.8 18.5349 1076.35 14.9246C1017.79 11.2337 952.562 18.0216 895.484 22.2627C841.522 26.2891 787.132 31.2516 732.021 33.1407C683.906 34.7915 640.667 28.2754 593.531 26.9803C564.342 26.1784 539.57 28.4633 513.029 32.3689C481.855 36.9052 449.11 40.111 415.56 41.9115C274.661 49.726 136.591 36.543 0.219568 26.1415" stroke="url(#paint47_linear_689_2613)" stroke-miterlimit="10"/>
<path d="M1439.21 20.1524C1370 21.2429 1311.19 36.3116 1240.21 32.0672C1182.67 28.6246 1132.09 17.4715 1074.57 14.0726C1016.11 10.6166 951.433 17.3205 894.474 21.4375C840.823 25.3263 786.592 29.9667 731.732 31.3659C683.626 32.604 639.029 26.6684 591.543 25.8967C562.184 25.427 537.202 27.9099 510.511 31.7585C479.694 36.2311 446.967 39.0831 413.741 40.6601C276.43 47.1795 133.214 35.0769 0.249475 24.7458" stroke="url(#paint48_linear_689_2613)" stroke-miterlimit="10"/>
<path d="M1439.19 18.4073C1369.47 19.5549 1310.48 34.7545 1238.93 30.6509C1181.37 27.3392 1130.37 16.4847 1072.79 13.314C1014.42 10.1029 950.304 16.7163 893.405 20.6957C840.043 24.4369 786.002 28.7485 731.392 29.6913C683.197 30.5234 637.34 25.1482 589.494 24.9234C559.966 24.7858 534.824 27.4634 507.923 31.265C477.305 35.59 444.799 38.1971 411.852 39.4922C349.088 41.9584 285.444 39.8579 223.199 36.8415C148.512 33.2211 73.7164 29.2484 0.229456 23.4202" stroke="url(#paint49_linear_689_2613)" stroke-miterlimit="10"/>
<path d="M1439.17 16.7331C1369.54 17.9175 1310.63 33.144 1239.15 29.3927C1181.82 26.3729 1130.72 15.9412 1073.58 12.7772C1015.83 9.57953 953.002 15.9245 896.603 19.7562C842.082 23.4471 786.852 27.5708 731.042 28.0875C681.498 28.5472 633.223 23.4672 583.788 24.0611C553.95 24.4201 529.078 27.6949 501.728 31.3321C473.318 35.1102 443.32 37.2744 412.982 38.2978C348.408 40.4754 284.364 37.2643 220.56 34.2345C146.914 30.7382 72.6072 28.0472 0.179429 22.2023" stroke="url(#paint50_linear_689_2613)" stroke-miterlimit="10"/>
<path d="M1439.16 15.1326C1369.05 16.3741 1309.9 31.728 1237.89 28.1211C1180.55 25.2489 1129.04 15.0923 1071.82 12.1598C1014.18 9.22051 951.853 15.4748 895.533 19.1825C841.273 22.7592 786.252 26.5642 730.732 26.5642C680.898 26.5642 631.554 22.1586 581.71 23.2827C551.831 23.9537 526.75 27.4164 499.189 30.9764C470.97 34.6203 441.171 36.5563 411.093 37.3214C346.31 38.9688 283.375 34.731 219.581 31.7851C146.414 28.4063 72.1175 26.9668 0.199427 21.048" stroke="url(#paint51_linear_689_2613)" stroke-miterlimit="10"/>
<path d="M1439.14 13.6094C1368.5 14.9079 1309.23 30.386 1236.61 26.92C1179.25 24.182 1127.35 14.3106 1070.04 11.6062C1012.52 8.88508 950.684 15.0958 894.394 18.6826C840.433 22.1285 785.623 25.5912 730.393 25.1014C680.199 24.6551 629.885 20.9106 579.622 22.558C549.703 23.5411 524.421 27.1884 496.681 30.6712C468.702 34.1842 439.043 35.8921 409.244 36.3987C344.291 37.5094 282.396 32.265 218.622 29.3995C145.915 26.1315 71.728 25.9503 0.229592 19.9577" stroke="url(#paint52_linear_689_2613)" stroke-miterlimit="10"/>
<path d="M1439.12 12.1633C1367.99 13.5055 1308.48 29.1144 1235.34 25.7927C1177.97 23.1856 1125.67 13.5826 1068.27 11.1198C1010.87 8.65702 949.535 14.7838 893.395 18.2465C839.564 21.5683 785.013 24.7055 730.083 23.7224C679.449 22.8165 628.276 19.743 577.593 21.9072C547.615 23.1856 522.153 27.0308 494.153 30.4331C466.153 33.8354 436.875 35.2983 407.356 35.5533C342.403 36.1204 281.327 29.8929 217.623 27.108C145.335 23.9472 71.2084 25.0209 0.189689 18.9411" stroke="url(#paint53_linear_689_2613)" stroke-miterlimit="10"/>
<path d="M1439.11 10.794C1367.49 12.2033 1307.77 27.9062 1234.11 24.7388C1176.71 22.2592 1124.03 12.9482 1066.55 10.6934C1009.31 8.44867 948.355 14.5352 892.316 17.8805C838.645 21.0815 784.394 23.8899 729.733 22.4236C678.6 21.0513 626.668 18.6455 575.535 21.3163C545.646 22.8799 519.885 26.9264 491.685 30.2516C464.005 33.513 434.726 34.7678 405.527 34.7779C340.574 34.8047 280.278 27.6244 216.664 24.9133C144.716 21.8465 70.7689 24.1717 0.189804 17.9946" stroke="url(#paint54_linear_689_2613)" stroke-miterlimit="10"/>
<path d="M1439.1 9.50903C1367 10.9652 1307.1 26.799 1232.91 23.7524C1175.48 21.4037 1122.42 12.3443 1064.87 10.3311C1007.69 8.31789 947.346 14.3575 891.297 17.5853C837.735 20.6588 783.754 23.1518 729.413 21.2091C677.731 19.3636 625.129 17.6256 573.526 20.793C543.647 22.6216 517.666 26.8728 489.257 30.1208C461.707 33.2681 432.678 34.2982 403.748 34.07C338.895 33.5634 279.228 25.4636 215.704 22.8163C144.166 19.8367 70.409 23.4135 0.159667 17.1122" stroke="url(#paint55_linear_689_2613)" stroke-miterlimit="10"/>
<path d="M1439.08 8.30444C1366.53 9.81098 1306.42 25.7521 1231.74 22.8397C1174.28 20.595 1120.82 11.8275 1063.24 10.0056C1006.18 8.20043 946.327 14.2299 890.307 17.337C836.846 20.293 783.135 22.474 729.104 20.0649C676.841 17.7363 623.59 16.6558 571.627 20.3098C541.779 22.4069 515.578 26.8594 486.918 30.0402C459.538 33.06 430.659 33.8922 401.98 33.4325C337.297 32.4024 278.139 23.4235 214.725 20.8332C143.526 17.9242 69.9895 22.7424 0.079962 16.317" stroke="url(#paint56_linear_689_2613)" stroke-miterlimit="10"/>
<path d="M1439.07 7.18384C1366.12 8.73735 1305.79 24.7926 1230.63 21.9976C1173.14 19.8569 1119.38 11.3545 1061.67 9.73388C1004.71 8.13675 945.298 14.1562 889.368 17.1559C835.976 20.0247 782.535 21.8768 728.824 19.0114C675.952 16.1929 622.221 15.7567 569.809 19.8837C540.02 22.2325 513.569 26.8863 484.72 29.9933C457.48 32.9259 428.76 33.5332 400.381 32.8554C335.927 31.3153 277.18 21.5077 213.886 18.951C142.937 16.0956 69.6996 22.1486 0.099874 15.5688" stroke="url(#paint57_linear_689_2613)" stroke-miterlimit="10"/>
<path d="M1439.06 6.15381C1365.65 7.74423 1305.16 23.9068 1229.58 21.2226C1172.04 19.1825 1117.95 10.9318 1060.18 9.50913C1003.32 8.10996 944.358 14.1294 888.479 17.0351C835.137 19.81 781.956 21.3534 728.544 18.0417C675.133 14.73 620.872 14.9246 568.05 19.508C538.331 22.0882 511.621 26.8897 482.612 29.9833C455.631 32.8656 426.872 33.2279 398.842 32.3321C334.648 30.3189 276.23 19.7194 213.066 17.1962C142.427 14.3744 69.3997 21.6521 0.0996952 14.8944" stroke="url(#paint58_linear_689_2613)" stroke-miterlimit="10"/>
<path d="M1439 5.19409C1365.19 6.81807 1304.57 23.088 1228.54 20.5078C1171.02 18.5651 1116.61 10.5626 1058.78 9.3245C1002.04 8.10987 943.459 14.1495 887.639 16.9713C834.328 19.6555 781.396 20.9071 728.294 17.1592C674.193 13.3442 619.613 14.1394 566.411 19.1724C536.753 21.9707 509.812 26.9534 480.633 30.0034C453.762 32.8118 425.153 32.9728 397.413 31.8958C367.145 30.7181 337.636 28.0204 308.577 25.0274C277.22 21.803 244.953 16.884 212.287 15.5822C141.887 12.7738 69.11 21.2594 0.089821 14.3004" stroke="url(#paint59_linear_689_2613)" stroke-miterlimit="10"/>
<path d="M1439 4.35547C1364.83 6.00629 1304.1 22.3803 1227.63 19.8873C1170.07 18.0083 1115.36 10.2273 1057.46 9.17372C1000.81 8.13021 942.65 14.2067 886.88 16.9581C833.568 19.5819 780.846 20.5382 728.054 16.3675C673.364 12.0459 618.424 13.4182 564.832 18.8874C535.304 21.9072 508.133 27.0408 478.804 30.0472C452.044 32.7885 423.564 32.7684 396.094 31.5068C365.886 30.1244 336.547 27.1918 307.658 24.0076C276.53 20.5785 244.214 15.4046 211.557 14.0926C141.378 11.2775 68.8302 20.9543 0.0798185 13.7571" stroke="url(#paint60_linear_689_2613)" stroke-miterlimit="10"/>
<path d="M1439 3.59351C1364.5 5.27117 1303.6 21.7425 1226.8 19.3233C1169.2 17.5047 1114.24 9.95856 1056.28 9.05597C999.708 8.17352 941.94 14.3205 886.21 17.0014C832.889 19.5615 780.357 20.2493 727.875 15.6593C672.554 10.8377 617.364 12.7502 563.393 18.6388C533.974 21.8465 506.604 27.1378 477.125 30.1106C450.475 32.7949 422.165 32.607 394.895 31.181C364.757 29.604 335.568 26.45 306.828 23.0913C275.911 19.4776 243.554 14.0755 210.898 12.7435C140.948 9.89145 68.5704 20.7459 0.0498108 13.2904" stroke="url(#paint61_linear_689_2613)" stroke-miterlimit="10"/>
<path d="M1439 2.92603C1364.19 4.60369 1303.19 21.1891 1226.07 18.8269C1168.39 17.0587 1113.15 9.72056 1055.13 8.96561C998.619 8.22744 941.211 14.465 885.541 17.0922C832.199 19.6053 779.817 20.0382 727.655 15.0555C671.765 9.7172 616.435 12.133 562.084 18.4109C532.765 21.8031 505.215 27.232 475.617 30.178C449.056 32.8186 420.846 32.4831 393.836 30.9061C363.737 29.1479 334.708 25.7926 306.099 22.2728C275.351 18.4847 242.975 12.8981 210.278 11.5358C140.468 8.62337 68.2706 20.6287 0.0498108 12.8779" stroke="url(#paint62_linear_689_2613)" stroke-miterlimit="10"/>
<path d="M1439 2.35547C1363.9 4.03313 1302.84 20.7225 1225.42 18.3973C1167.73 16.6659 1112.24 9.52244 1054.17 8.88493C997.72 8.27762 940.691 14.6259 885.021 17.2162C831.65 19.6991 779.367 19.9005 727.505 14.5319C671.035 8.68361 615.675 11.5558 560.925 18.2228C531.736 21.7794 504.026 27.3325 474.317 30.2583C447.837 32.8688 419.767 32.4058 392.946 30.6945C362.888 28.7719 333.989 25.2354 305.499 21.5681C274.891 17.6256 242.545 11.8947 209.758 10.4955C140.099 7.49247 67.9906 20.6286 0.0396366 12.5355" stroke="url(#paint63_linear_689_2613)" stroke-miterlimit="10"/>
<path d="M1439 1.87915C1364.27 3.55681 1303.41 20.2462 1226.43 18.082C1165.61 16.3742 1106.81 8.66026 1045.44 8.81796C992.963 8.95218 940.311 14.7401 888.479 17.2298C833.408 19.8738 780.696 19.7999 727.365 14.1395C668.228 7.87847 612.818 11.17 555.819 18.6155C530.267 21.9507 505.925 26.5005 480.183 29.6243C452.943 32.9293 423.035 32.6072 395.005 30.7719C363.198 28.6916 332.75 24.7323 302.751 20.7059C272.513 16.6325 240.366 10.8983 207.76 9.55614C138.81 6.73431 67.1014 20.6656 0.0498108 12.2639" stroke="url(#paint64_linear_689_2613)" stroke-miterlimit="10"/>
<path d="M1439 1.50317C1364.06 3.15735 1303.2 19.9575 1226.02 17.7899C1165.17 16.0787 1106.1 8.546 1044.75 8.79765C992.314 9.01575 939.931 14.9647 888.129 17.4577C833.019 20.1085 780.317 19.8467 727.245 13.8172C667.508 7.02604 612.388 10.7035 554.919 18.5147C529.488 21.9707 505.075 26.5607 479.264 29.6879C452.083 32.9963 422.305 32.607 394.435 30.6677C362.648 28.4565 332.32 24.3261 302.411 20.1923C272.213 16.0183 240.076 10.2203 207.39 8.81107C138.57 5.8651 66.7815 20.8399 0.0396366 12.0322" stroke="url(#paint65_linear_689_2613)" stroke-miterlimit="10"/>
<path d="M1439 1.23486C1363.91 2.8622 1303.1 19.763 1225.7 17.5619C1164.84 15.8305 1105.64 8.45888 1044.21 8.79105C991.794 9.0729 939.662 15.2131 887.879 17.7263C832.739 20.4105 779.957 19.9844 727.225 13.5925C666.908 6.28463 612.228 10.2708 554.27 18.4108C528.898 21.9708 504.426 26.6078 478.594 29.7719C451.434 33.097 421.915 32.6776 394.065 30.6476C329.722 25.9502 272.073 11.2438 207.11 8.27769C138.41 5.14046 66.4317 21.1252 0.0396366 11.8746" stroke="url(#paint66_linear_689_2613)" stroke-miterlimit="10"/>
<path d="M1439 1.06445C1363.79 2.65823 1303 19.6597 1225.51 17.4049C1164.64 15.6299 1105.24 8.40255 1043.84 8.78841C991.414 9.12394 939.512 15.4789 887.749 18.0357C832.589 20.7602 779.627 20.2099 727.195 13.4724C666.349 5.65118 612.278 9.86883 553.77 18.3377C528.608 21.9715 504.076 26.7864 478.185 29.8263C450.685 33.0508 422.055 32.7891 393.906 30.6685C329.452 25.81 272.123 11.0902 206.931 7.90932C138.32 4.55399 66.0322 21.5152 0.0798185 11.7747" stroke="url(#paint67_linear_689_2613)" stroke-miterlimit="10"/>
<path d="M1439 1C1363.71 2.5468 1303.03 19.6489 1225.46 17.3102C1164.59 15.4749 1105.11 8.36829 1043.59 8.78435C991.155 9.14002 939.452 15.7634 887.699 18.3806C832.539 21.1689 779.297 20.528 727.175 13.4516C665.859 5.12034 612.548 9.48897 553.481 18.2799C499.519 26.3059 455.061 35.4424 393.956 30.7382C329.332 25.7623 272.273 11.1666 206.851 7.73078C138.32 4.13052 65.6526 22.0077 -3.02486e-05 11.7572" stroke="url(#paint68_linear_689_2613)" stroke-miterlimit="10"/>
</g>
<defs>
<linearGradient id="paint0_linear_689_2613" x1="1440" y1="180" x2="1.03833" y2="180" gradientUnits="userSpaceOnUse">
<stop stop-color="#3658FF"/>
<stop offset="1" stop-color="#FF5D24"/>
</linearGradient>
<linearGradient id="paint1_linear_689_2613" x1="1440" y1="174.008" x2="1.07849" y2="174.008" gradientUnits="userSpaceOnUse">
<stop stop-color="#3658FF"/>
<stop offset="1" stop-color="#FF5D24"/>
</linearGradient>
<linearGradient id="paint2_linear_689_2613" x1="1440" y1="169.477" x2="1.03833" y2="169.477" gradientUnits="userSpaceOnUse">
<stop stop-color="#3658FF"/>
<stop offset="1" stop-color="#FF5D24"/>
</linearGradient>
<linearGradient id="paint3_linear_689_2613" x1="1440" y1="165.909" x2="1.03833" y2="165.909" gradientUnits="userSpaceOnUse">
<stop stop-color="#3658FF"/>
<stop offset="1" stop-color="#FF5D24"/>
</linearGradient>
<linearGradient id="paint4_linear_689_2613" x1="1440" y1="163.062" x2="1.03833" y2="163.062" gradientUnits="userSpaceOnUse">
<stop stop-color="#3658FF"/>
<stop offset="1" stop-color="#FF5D24"/>
</linearGradient>
<linearGradient id="paint5_linear_689_2613" x1="1440" y1="160.778" x2="1.03833" y2="160.778" gradientUnits="userSpaceOnUse">
<stop stop-color="#3658FF"/>
<stop offset="1" stop-color="#FF5D24"/>
</linearGradient>
<linearGradient id="paint6_linear_689_2613" x1="1440" y1="158.921" x2="1.03833" y2="158.921" gradientUnits="userSpaceOnUse">
<stop stop-color="#3658FF"/>
<stop offset="1" stop-color="#FF5D24"/>
</linearGradient>
<linearGradient id="paint7_linear_689_2613" x1="1440" y1="157.337" x2="1.05847" y2="157.337" gradientUnits="userSpaceOnUse">
<stop stop-color="#3658FF"/>
<stop offset="1" stop-color="#FF5D24"/>
</linearGradient>
<linearGradient id="paint8_linear_689_2613" x1="1440" y1="155.88" x2="1.02832" y2="155.88" gradientUnits="userSpaceOnUse">
<stop stop-color="#3658FF"/>
<stop offset="1" stop-color="#FF5D24"/>
</linearGradient>
<linearGradient id="paint9_linear_689_2613" x1="1439.95" y1="154.366" x2="1.02063" y2="154.366" gradientUnits="userSpaceOnUse">
<stop stop-color="#3658FF"/>
<stop offset="1" stop-color="#FF5D24"/>
</linearGradient>
<linearGradient id="paint10_linear_689_2613" x1="1439.94" y1="152.654" x2="0.978027" y2="152.654" gradientUnits="userSpaceOnUse">
<stop stop-color="#3658FF"/>
<stop offset="1" stop-color="#FF5D24"/>
</linearGradient>
<linearGradient id="paint11_linear_689_2613" x1="1439.93" y1="150.622" x2="0.968018" y2="150.622" gradientUnits="userSpaceOnUse">
<stop stop-color="#3658FF"/>
<stop offset="1" stop-color="#FF5D24"/>
</linearGradient>
<linearGradient id="paint12_linear_689_2613" x1="1439.92" y1="148.117" x2="0.957886" y2="148.117" gradientUnits="userSpaceOnUse">
<stop stop-color="#3658FF"/>
<stop offset="1" stop-color="#FF5D24"/>
</linearGradient>
<linearGradient id="paint13_linear_689_2613" x1="1439.9" y1="144.924" x2="0.899048" y2="144.924" gradientUnits="userSpaceOnUse">
<stop stop-color="#3658FF"/>
<stop offset="1" stop-color="#FF5D24"/>
</linearGradient>
<linearGradient id="paint14_linear_689_2613" x1="1439.89" y1="141.058" x2="0.928711" y2="141.058" gradientUnits="userSpaceOnUse">
<stop stop-color="#3658FF"/>
<stop offset="1" stop-color="#FF5D24"/>
</linearGradient>
<linearGradient id="paint15_linear_689_2613" x1="1439.88" y1="137.188" x2="0.948853" y2="137.188" gradientUnits="userSpaceOnUse">
<stop stop-color="#3658FF"/>
<stop offset="1" stop-color="#FF5D24"/>
</linearGradient>
<linearGradient id="paint16_linear_689_2613" x1="1439.86" y1="133.459" x2="0.917603" y2="133.459" gradientUnits="userSpaceOnUse">
<stop stop-color="#3658FF"/>
<stop offset="1" stop-color="#FF5D24"/>
</linearGradient>
<linearGradient id="paint17_linear_689_2613" x1="1439.84" y1="129.828" x2="0.848633" y2="129.828" gradientUnits="userSpaceOnUse">
<stop stop-color="#3658FF"/>
<stop offset="1" stop-color="#FF5D24"/>
</linearGradient>
<linearGradient id="paint18_linear_689_2613" x1="1439.83" y1="126.314" x2="0.868652" y2="126.314" gradientUnits="userSpaceOnUse">
<stop stop-color="#3658FF"/>
<stop offset="1" stop-color="#FF5D24"/>
</linearGradient>
<linearGradient id="paint19_linear_689_2613" x1="1439.81" y1="122.906" x2="0.848633" y2="122.906" gradientUnits="userSpaceOnUse">
<stop stop-color="#3658FF"/>
<stop offset="1" stop-color="#FF5D24"/>
</linearGradient>
<linearGradient id="paint20_linear_689_2613" x1="1439.79" y1="119.628" x2="0.818604" y2="119.628" gradientUnits="userSpaceOnUse">
<stop stop-color="#3658FF"/>
<stop offset="1" stop-color="#FF5D24"/>
</linearGradient>
<linearGradient id="paint21_linear_689_2613" x1="1439.77" y1="116.431" x2="0.78894" y2="116.431" gradientUnits="userSpaceOnUse">
<stop stop-color="#3658FF"/>
<stop offset="1" stop-color="#FF5D24"/>
</linearGradient>
<linearGradient id="paint22_linear_689_2613" x1="1439.75" y1="113.309" x2="0.828857" y2="113.309" gradientUnits="userSpaceOnUse">
<stop stop-color="#3658FF"/>
<stop offset="1" stop-color="#FF5D24"/>
</linearGradient>
<linearGradient id="paint23_linear_689_2613" x1="1439.73" y1="110.294" x2="0.768799" y2="110.294" gradientUnits="userSpaceOnUse">
<stop stop-color="#3658FF"/>
<stop offset="1" stop-color="#FF5D24"/>
</linearGradient>
<linearGradient id="paint24_linear_689_2613" x1="1439.71" y1="107.343" x2="0.709106" y2="107.343" gradientUnits="userSpaceOnUse">
<stop stop-color="#3658FF"/>
<stop offset="1" stop-color="#FF5D24"/>
</linearGradient>
<linearGradient id="paint25_linear_689_2613" x1="1439.69" y1="104.446" x2="0.748901" y2="104.446" gradientUnits="userSpaceOnUse">
<stop stop-color="#3658FF"/>
<stop offset="1" stop-color="#FF5D24"/>
</linearGradient>
<linearGradient id="paint26_linear_689_2613" x1="1439.67" y1="101.608" x2="0.70874" y2="101.608" gradientUnits="userSpaceOnUse">
<stop stop-color="#3658FF"/>
<stop offset="1" stop-color="#FF5D24"/>
</linearGradient>
<linearGradient id="paint27_linear_689_2613" x1="1439.65" y1="98.8275" x2="0.729004" y2="98.8275" gradientUnits="userSpaceOnUse">
<stop stop-color="#3658FF"/>
<stop offset="1" stop-color="#FF5D24"/>
</linearGradient>
<linearGradient id="paint28_linear_689_2613" x1="1439.63" y1="96.0792" x2="0.698975" y2="96.0792" gradientUnits="userSpaceOnUse">
<stop stop-color="#3658FF"/>
<stop offset="1" stop-color="#FF5D24"/>
</linearGradient>
<linearGradient id="paint29_linear_689_2613" x1="1439.61" y1="93.3914" x2="0.689087" y2="93.3914" gradientUnits="userSpaceOnUse">
<stop stop-color="#3658FF"/>
<stop offset="1" stop-color="#FF5D24"/>
</linearGradient>
<linearGradient id="paint30_linear_689_2613" x1="1439.59" y1="90.6703" x2="0.589233" y2="90.6703" gradientUnits="userSpaceOnUse">
<stop stop-color="#3658FF"/>
<stop offset="1" stop-color="#FF5D24"/>
</linearGradient>
<linearGradient id="paint31_linear_689_2613" x1="1439.57" y1="87.9892" x2="0.608887" y2="87.9892" gradientUnits="userSpaceOnUse">
<stop stop-color="#3658FF"/>
<stop offset="1" stop-color="#FF5D24"/>
</linearGradient>
<linearGradient id="paint32_linear_689_2613" x1="1439.54" y1="85.3086" x2="0.578857" y2="85.3086" gradientUnits="userSpaceOnUse">
<stop stop-color="#3658FF"/>
<stop offset="1" stop-color="#FF5D24"/>
</linearGradient>
<linearGradient id="paint33_linear_689_2613" x1="1439.52" y1="82.5728" x2="0.529053" y2="82.5728" gradientUnits="userSpaceOnUse">
<stop stop-color="#3658FF"/>
<stop offset="1" stop-color="#FF5D24"/>
</linearGradient>
<linearGradient id="paint34_linear_689_2613" x1="1439.5" y1="79.8175" x2="0.539062" y2="79.8175" gradientUnits="userSpaceOnUse">
<stop stop-color="#3658FF"/>
<stop offset="1" stop-color="#FF5D24"/>
</linearGradient>
<linearGradient id="paint35_linear_689_2613" x1="1439.48" y1="76.9972" x2="0.489014" y2="76.9972" gradientUnits="userSpaceOnUse">
<stop stop-color="#3658FF"/>
<stop offset="1" stop-color="#FF5D24"/>
</linearGradient>
<linearGradient id="paint36_linear_689_2613" x1="1439.46" y1="74.1828" x2="0.499146" y2="74.1828" gradientUnits="userSpaceOnUse">
<stop stop-color="#3658FF"/>
<stop offset="1" stop-color="#FF5D24"/>
</linearGradient>
<linearGradient id="paint37_linear_689_2613" x1="1439.43" y1="71.3284" x2="0.438965" y2="71.3284" gradientUnits="userSpaceOnUse">
<stop stop-color="#3658FF"/>
<stop offset="1" stop-color="#FF5D24"/>
</linearGradient>
<linearGradient id="paint38_linear_689_2613" x1="1439.41" y1="68.5016" x2="0.459351" y2="68.5016" gradientUnits="userSpaceOnUse">
<stop stop-color="#3658FF"/>
<stop offset="1" stop-color="#FF5D24"/>
</linearGradient>
<linearGradient id="paint39_linear_689_2613" x1="1439.39" y1="65.6486" x2="0.429199" y2="65.6486" gradientUnits="userSpaceOnUse">
<stop stop-color="#3658FF"/>
<stop offset="1" stop-color="#FF5D24"/>
</linearGradient>
<linearGradient id="paint40_linear_689_2613" x1="1439.37" y1="62.7809" x2="0.429443" y2="62.7809" gradientUnits="userSpaceOnUse">
<stop stop-color="#3658FF"/>
<stop offset="1" stop-color="#FF5D24"/>
</linearGradient>
<linearGradient id="paint41_linear_689_2613" x1="1439.35" y1="59.9848" x2="0.38916" y2="59.9848" gradientUnits="userSpaceOnUse">
<stop stop-color="#3658FF"/>
<stop offset="1" stop-color="#FF5D24"/>
</linearGradient>
<linearGradient id="paint42_linear_689_2613" x1="1439.33" y1="57.181" x2="0.369263" y2="57.181" gradientUnits="userSpaceOnUse">
<stop stop-color="#3658FF"/>
<stop offset="1" stop-color="#FF5D24"/>
</linearGradient>
<linearGradient id="paint43_linear_689_2613" x1="1439.31" y1="54.473" x2="0.349365" y2="54.473" gradientUnits="userSpaceOnUse">
<stop stop-color="#3658FF"/>
<stop offset="1" stop-color="#FF5D24"/>
</linearGradient>
<linearGradient id="paint44_linear_689_2613" x1="1439.29" y1="51.7862" x2="0.329346" y2="51.7862" gradientUnits="userSpaceOnUse">
<stop stop-color="#3658FF"/>
<stop offset="1" stop-color="#FF5D24"/>
</linearGradient>
<linearGradient id="paint45_linear_689_2613" x1="1439.27" y1="49.2019" x2="0.309326" y2="49.2019" gradientUnits="userSpaceOnUse">
<stop stop-color="#3658FF"/>
<stop offset="1" stop-color="#FF5D24"/>
</linearGradient>
<linearGradient id="paint46_linear_689_2613" x1="1439.25" y1="46.747" x2="0.359497" y2="46.747" gradientUnits="userSpaceOnUse">
<stop stop-color="#3658FF"/>
<stop offset="1" stop-color="#FF5D24"/>
</linearGradient>
<linearGradient id="paint47_linear_689_2613" x1="1439.23" y1="44.277" x2="0.219604" y2="44.277" gradientUnits="userSpaceOnUse">
<stop stop-color="#3658FF"/>
<stop offset="1" stop-color="#FF5D24"/>
</linearGradient>
<linearGradient id="paint48_linear_689_2613" x1="1439.21" y1="42.501" x2="0.249512" y2="42.501" gradientUnits="userSpaceOnUse">
<stop stop-color="#3658FF"/>
<stop offset="1" stop-color="#FF5D24"/>
</linearGradient>
<linearGradient id="paint49_linear_689_2613" x1="1439.19" y1="40.578" x2="0.229492" y2="40.578" gradientUnits="userSpaceOnUse">
<stop stop-color="#3658FF"/>
<stop offset="1" stop-color="#FF5D24"/>
</linearGradient>
<linearGradient id="paint50_linear_689_2613" x1="1439.17" y1="39.013" x2="0.179443" y2="39.013" gradientUnits="userSpaceOnUse">
<stop stop-color="#3658FF"/>
<stop offset="1" stop-color="#FF5D24"/>
</linearGradient>
<linearGradient id="paint51_linear_689_2613" x1="1439.16" y1="37.69" x2="0.199463" y2="37.69" gradientUnits="userSpaceOnUse">
<stop stop-color="#3658FF"/>
<stop offset="1" stop-color="#FF5D24"/>
</linearGradient>
<linearGradient id="paint52_linear_689_2613" x1="1439.14" y1="36.5508" x2="0.229614" y2="36.5508" gradientUnits="userSpaceOnUse">
<stop stop-color="#3658FF"/>
<stop offset="1" stop-color="#FF5D24"/>
</linearGradient>
<linearGradient id="paint53_linear_689_2613" x1="1439.12" y1="35.5896" x2="0.189697" y2="35.5896" gradientUnits="userSpaceOnUse">
<stop stop-color="#3658FF"/>
<stop offset="1" stop-color="#FF5D24"/>
</linearGradient>
<linearGradient id="paint54_linear_689_2613" x1="1439.11" y1="34.778" x2="0.189819" y2="34.778" gradientUnits="userSpaceOnUse">
<stop stop-color="#3658FF"/>
<stop offset="1" stop-color="#FF5D24"/>
</linearGradient>
<linearGradient id="paint55_linear_689_2613" x1="1439.1" y1="34.1005" x2="0.159668" y2="34.1005" gradientUnits="userSpaceOnUse">
<stop stop-color="#3658FF"/>
<stop offset="1" stop-color="#FF5D24"/>
</linearGradient>
<linearGradient id="paint56_linear_689_2613" x1="1439.08" y1="33.5506" x2="0.0799561" y2="33.5506" gradientUnits="userSpaceOnUse">
<stop stop-color="#3658FF"/>
<stop offset="1" stop-color="#FF5D24"/>
</linearGradient>
<linearGradient id="paint57_linear_689_2613" x1="1439.07" y1="33.107" x2="0.0998535" y2="33.107" gradientUnits="userSpaceOnUse">
<stop stop-color="#3658FF"/>
<stop offset="1" stop-color="#FF5D24"/>
</linearGradient>
<linearGradient id="paint58_linear_689_2613" x1="1439.06" y1="32.7649" x2="0.0997314" y2="32.7649" gradientUnits="userSpaceOnUse">
<stop stop-color="#3658FF"/>
<stop offset="1" stop-color="#FF5D24"/>
</linearGradient>
<linearGradient id="paint59_linear_689_2613" x1="1439" y1="32.5119" x2="0.0898437" y2="32.5119" gradientUnits="userSpaceOnUse">
<stop stop-color="#3658FF"/>
<stop offset="1" stop-color="#FF5D24"/>
</linearGradient>
<linearGradient id="paint60_linear_689_2613" x1="1439" y1="32.3278" x2="0.079834" y2="32.3278" gradientUnits="userSpaceOnUse">
<stop stop-color="#3658FF"/>
<stop offset="1" stop-color="#FF5D24"/>
</linearGradient>
<linearGradient id="paint61_linear_689_2613" x1="1439" y1="32.2052" x2="0.0498047" y2="32.2052" gradientUnits="userSpaceOnUse">
<stop stop-color="#3658FF"/>
<stop offset="1" stop-color="#FF5D24"/>
</linearGradient>
<linearGradient id="paint62_linear_689_2613" x1="1439" y1="32.1271" x2="0.0498047" y2="32.1271" gradientUnits="userSpaceOnUse">
<stop stop-color="#3658FF"/>
<stop offset="1" stop-color="#FF5D24"/>
</linearGradient>
<linearGradient id="paint63_linear_689_2613" x1="1439" y1="32.0971" x2="0.0396729" y2="32.0971" gradientUnits="userSpaceOnUse">
<stop stop-color="#3658FF"/>
<stop offset="1" stop-color="#FF5D24"/>
</linearGradient>
<linearGradient id="paint64_linear_689_2613" x1="1439" y1="32.1383" x2="0.0498047" y2="32.1383" gradientUnits="userSpaceOnUse">
<stop stop-color="#3658FF"/>
<stop offset="1" stop-color="#FF5D24"/>
</linearGradient>
<linearGradient id="paint65_linear_689_2613" x1="1439" y1="32.152" x2="0.0396729" y2="32.152" gradientUnits="userSpaceOnUse">
<stop stop-color="#3658FF"/>
<stop offset="1" stop-color="#FF5D24"/>
</linearGradient>
<linearGradient id="paint66_linear_689_2613" x1="1439" y1="32.2216" x2="0.0396729" y2="32.2216" gradientUnits="userSpaceOnUse">
<stop stop-color="#3658FF"/>
<stop offset="1" stop-color="#FF5D24"/>
</linearGradient>
<linearGradient id="paint67_linear_689_2613" x1="1439" y1="32.2578" x2="0.079834" y2="32.2578" gradientUnits="userSpaceOnUse">
<stop stop-color="#3658FF"/>
<stop offset="1" stop-color="#FF5D24"/>
</linearGradient>
<linearGradient id="paint68_linear_689_2613" x1="1439" y1="32.0233" x2="0" y2="32.0233" gradientUnits="userSpaceOnUse">
<stop stop-color="#3658FF"/>
<stop offset="1" stop-color="#FF5D24"/>
</linearGradient>
</defs>
</svg>
