<svg width="375" height="202" viewBox="0 0 375 202" fill="none" xmlns="http://www.w3.org/2000/svg">
<g opacity="0.25">
<path d="M375 201C250.09 201 125.18 201 0.270381 201" stroke="url(#paint0_linear_368_1716)" stroke-miterlimit="10"/>
<path d="M375 195.391C311.749 195.432 248.529 194.429 185.293 193.294C157.933 192.801 130.385 192.963 103.027 194.003C68.7809 195.304 34.5192 194.079 0.280843 195.391" stroke="url(#paint1_linear_368_1716)" stroke-miterlimit="10"/>
<path d="M375 189.863C357.078 189.863 339.151 190.063 321.232 189.965C305.217 189.879 289.239 187.997 273.23 187.673C243.407 187.07 213.59 187.771 183.771 187.059C157.303 186.425 130.562 184.747 104.112 187.307C88.6962 188.815 73.4389 189.501 58.01 190.124C38.753 190.9 19.5195 188.793 0.270381 189.863" stroke="url(#paint2_linear_368_1716)" stroke-miterlimit="10"/>
<path d="M375 184.412C357.336 184.412 339.624 184.842 321.965 184.378C305.371 183.941 288.872 180.876 272.29 180.088C242.411 178.667 212.765 182.727 182.917 182.003C156.652 181.377 130.76 176.295 104.466 180.842C89.0969 183.5 74.204 185.581 58.723 186.188C39.2058 186.942 19.7849 183.274 0.270381 184.412" stroke="url(#paint3_linear_368_1716)" stroke-miterlimit="10"/>
<path d="M375 179.065C357.656 179.065 340.184 179.752 322.853 178.805C305.521 177.859 288.437 173.505 271.158 172.098C255.451 170.82 239.965 171.163 224.34 173.946C210.338 176.441 196.735 178.244 182.618 177.972C170.244 177.731 158.651 175.009 146.431 172.472C132.446 169.565 118.047 170.922 104.193 174.624C88.9434 178.704 74.5605 182.605 58.9884 183.05C39.3464 183.616 19.9255 178.089 0.270381 179.065" stroke="url(#paint4_linear_368_1716)" stroke-miterlimit="10"/>
<path d="M375 173.796C358.03 173.796 340.803 174.719 323.862 173.242C305.761 171.666 287.966 165.958 269.904 163.817C254.395 161.954 238.784 163.231 223.518 167.609C209.89 171.462 196.715 174.904 182.785 174.746C169.885 174.599 158.214 169.867 145.691 166.041C131.478 161.698 117.412 163.345 103.415 168.612C88.4125 174.267 74.5631 180.359 58.8843 180.521C39.2084 180.729 19.9801 173.162 0.270381 173.8" stroke="url(#paint5_linear_368_1716)" stroke-miterlimit="10"/>
<path d="M375 168.608C358.431 168.585 341.456 169.739 324.945 167.722C305.99 165.426 287.472 158.342 268.587 155.383C252.739 152.902 238.094 155.209 222.808 161.441C209.721 166.78 197.045 172.126 183.318 172.137C169.744 172.137 157.67 165.03 144.788 159.843C130.114 153.935 116.582 155.654 102.244 162.791C87.65 170.052 74.2508 178.625 58.4862 178.437C38.8389 178.18 19.9723 168.435 0.270381 168.608" stroke="url(#paint6_linear_368_1716)" stroke-miterlimit="10"/>
<path d="M375 163.503C358.85 163.469 342.13 164.751 326.077 162.27C306.253 159.209 287.043 150.757 267.289 146.941C251.22 143.839 237.271 147.156 222.233 155.458C209.825 162.308 197.638 169.731 184.135 169.965C169.864 170.214 156.998 160.453 143.8 153.882C128.558 146.293 115.544 147.907 100.815 157.154C86.7887 165.961 73.7096 177.267 57.8773 176.634C38.3003 175.85 19.9307 163.865 0.275634 163.503" stroke="url(#paint7_linear_368_1716)" stroke-miterlimit="10"/>
<path d="M375 158.481C359.264 158.436 342.804 159.801 327.186 156.909C306.513 153.083 286.608 143.303 266.032 138.636C249.637 134.915 236.48 139.175 221.759 149.663C210.116 157.957 198.422 167.537 185.106 168.042C170.137 168.604 156.239 155.925 142.735 148.133C135.662 144.072 128.207 140.268 120.496 141.143C112.949 142.003 105.804 146.606 99.2042 151.699C85.9013 161.942 72.9419 176.042 57.1122 174.964C37.621 173.633 19.8656 159.416 0.267776 158.493" stroke="url(#paint8_linear_368_1716)" stroke-miterlimit="10"/>
<path d="M374.988 153.547C359.634 153.49 343.443 154.889 328.25 151.662C306.789 147.115 286.263 136.073 264.924 130.598C248.155 126.293 235.757 131.417 221.434 144.065C210.575 153.656 199.369 165.377 186.173 166.172C170.56 167.111 155.466 151.451 141.705 142.587C134.497 137.943 126.547 133.045 118.496 134.123C110.949 135.134 103.879 140.653 97.568 146.376C84.9859 157.792 72.1592 174.738 56.2905 173.226C36.8826 171.371 19.8116 154.994 0.265787 153.547" stroke="url(#paint9_linear_368_1716)" stroke-miterlimit="10"/>
<path d="M374.984 148.699C359.998 148.631 344.046 150.029 329.241 146.565C307.08 141.373 286.002 129.166 264.002 122.961C255.625 120.601 247.686 119.236 239.48 123.375C232.795 126.749 226.914 132.672 221.241 138.659C211.092 149.362 200.379 163.089 187.214 164.163C171.027 165.487 154.721 146.987 140.737 137.219C133.403 132.095 124.964 126.161 116.606 127.417C109.025 128.548 102.048 134.908 96.0085 141.189C84.0953 153.569 71.4221 173.166 55.4675 171.27C36.1299 168.966 19.7667 150.561 0.25472 148.68" stroke="url(#paint10_linear_368_1716)" stroke-miterlimit="10"/>
<path d="M374.982 143.93C360.31 143.858 344.574 145.249 330.11 141.626C307.387 135.934 285.908 122.678 263.354 115.888C254.949 113.359 247.032 111.79 238.869 116.488C232.246 120.322 226.602 126.901 221.205 133.475C211.652 145.098 201.386 160.548 188.156 161.849C179.701 162.682 171.199 156.292 163.897 150.882C155.796 144.88 148.007 138.041 139.909 132.032C132.467 126.512 123.619 119.741 114.979 121.155C107.344 122.403 100.477 129.411 94.6527 136.16C83.2859 149.355 70.8521 171.168 54.744 168.959C35.4402 166.32 19.7614 146.082 0.25207 143.915" stroke="url(#paint11_linear_368_1716)" stroke-miterlimit="10"/>
<path d="M374.979 139.247C360.57 139.175 345.001 140.57 330.816 136.88C307.692 130.866 285.963 116.706 263.031 109.494C254.665 106.855 246.689 105.17 238.609 110.203C231.994 114.323 226.519 121.468 221.317 128.495C212.162 140.857 202.283 157.588 188.892 159.032C180.206 159.96 171.457 153.038 164.04 147.315C155.669 140.849 147.646 133.49 139.274 127.017C131.728 121.177 122.62 113.875 113.748 115.364C106.033 116.661 99.2822 124.107 93.617 131.243C82.6015 145.113 70.5477 168.491 54.1819 166.135C34.8781 163.356 19.7979 141.494 0.249464 139.262" stroke="url(#paint12_linear_368_1716)" stroke-miterlimit="10"/>
<path d="M374.974 134.648C360.768 134.587 345.295 136.009 331.318 132.348C307.999 126.24 286.21 111.338 263.102 103.929C254.85 101.29 246.725 99.5712 238.76 104.638C232.09 108.879 226.69 116.408 221.585 123.733C212.576 136.68 202.989 154.082 189.316 155.485C180.437 156.397 171.665 149.403 164.144 143.42C155.596 136.634 147.425 128.898 138.879 122.105C131.236 116.027 122.089 108.608 113.035 110.086C105.229 111.36 98.5928 118.942 92.9978 126.384C82.0682 140.917 70.5896 164.887 53.8412 162.553C34.488 159.858 19.8631 136.649 0.234089 134.655" stroke="url(#paint13_linear_368_1716)" stroke-miterlimit="10"/>
<path d="M374.972 130.124C360.818 129.995 345.394 131.594 331.477 127.862C308.317 121.637 286.806 106.29 263.88 98.708C255.651 95.9898 247.532 94.3612 239.572 99.3678C232.806 103.632 227.299 111.251 222.118 118.667C212.943 131.801 203.254 149.426 189.402 151.07C180.461 152.129 171.741 145.223 164.186 139.145C155.625 132.254 147.469 124.367 138.91 117.471C131.231 111.281 122.131 103.963 113.009 105.547C105.151 106.912 98.5538 114.508 92.9485 122.033C81.9746 136.77 70.7145 160.423 53.8334 158.225C34.4256 155.707 19.9516 131.865 0.241896 130.124" stroke="url(#paint14_linear_368_1716)" stroke-miterlimit="10"/>
<path d="M374.969 125.701C360.755 125.467 345.378 127.484 331.412 123.492C308.662 116.989 287.636 101.388 265.129 93.539C256.801 90.6323 248.896 89.1205 240.821 94.1611C233.933 98.4551 228.231 105.995 222.86 113.347C213.38 126.338 203.283 144.14 189.431 146.383C180.544 147.824 171.792 140.898 164.303 134.825C155.846 127.967 147.812 120.072 139.358 113.207C131.694 106.983 122.594 99.7218 113.486 101.603C105.65 103.22 98.957 110.926 93.2736 118.368C82.2425 132.808 70.6571 156.016 53.9791 153.882C34.5244 151.39 20.0036 127.413 0.247031 125.701" stroke="url(#paint15_linear_368_1716)" stroke-miterlimit="10"/>
<path d="M374.963 121.354C360.669 121.075 345.334 123.654 331.281 119.428C308.995 112.725 288.518 96.9208 266.484 88.8906C258.087 85.8218 250.366 84.4533 242.2 89.4297C235.205 93.6936 229.274 101.038 223.703 108.333C213.905 121.151 203.342 138.889 189.503 141.675C180.697 143.45 172.013 136.668 164.592 130.621C156.277 123.835 148.413 115.99 140.104 109.207C132.464 102.972 123.449 95.9179 114.383 98.0668C106.54 99.9292 99.727 107.669 93.9161 115.032C82.7392 129.17 70.7739 151.797 54.2234 149.694C34.6828 147.213 20.0813 123.081 0.23889 121.377" stroke="url(#paint16_linear_368_1716)" stroke-miterlimit="10"/>
<path d="M374.958 117.09C360.565 116.823 345.238 120.084 331.086 115.642C309.31 108.815 289.429 92.8489 267.913 84.6793C259.482 81.4785 251.907 80.2759 243.673 85.109C236.553 89.2862 230.401 96.4191 224.614 103.582C214.408 116.17 203.475 133.652 189.597 136.951C180.895 139.017 172.365 132.528 165.016 126.523C156.884 119.872 149.22 112.095 141.093 105.437C133.482 99.1976 124.642 92.4945 115.63 94.881C107.75 96.9733 100.797 104.683 94.8116 111.944C83.4109 125.769 71.0188 147.703 54.5567 145.61C34.8965 143.111 20.1831 118.817 0.220972 117.101" stroke="url(#paint17_linear_368_1716)" stroke-miterlimit="10"/>
<path d="M374.956 112.909C360.445 112.698 345.123 116.743 330.844 112.11C309.615 105.222 290.366 89.113 269.404 80.8981C260.978 77.588 253.507 76.5588 245.232 81.1808C237.984 85.2298 231.617 92.1139 225.592 99.0583C214.923 111.36 203.658 128.423 189.727 132.197C172.917 136.755 155.929 113.034 142.306 101.852C134.723 95.6238 126.122 89.3844 117.189 91.997C109.247 94.3231 102.147 101.957 95.9566 109.109C84.2671 122.61 71.4119 143.759 54.9914 141.656C35.1854 139.122 20.3315 114.651 0.226234 112.909" stroke="url(#paint18_linear_368_1716)" stroke-miterlimit="10"/>
<path d="M374.951 108.815C360.313 108.699 344.988 113.611 330.561 108.815C309.901 101.924 291.316 85.739 270.937 77.4977C262.54 74.1047 255.141 73.2602 246.843 77.6146C239.462 81.494 232.874 88.0727 226.612 94.7984C215.48 106.749 203.879 123.243 189.878 127.485C173.323 132.491 157.066 109.456 143.696 98.4553C136.303 92.3818 127.684 86.2593 118.995 89.3884C110.928 92.2913 103.821 99.33 97.2786 106.493C85.2534 119.65 71.9037 139.944 55.4832 137.818C35.5081 135.236 20.4955 110.58 0.221022 108.789" stroke="url(#paint19_linear_368_1716)" stroke-miterlimit="10"/>
<path d="M374.945 104.801C360.17 104.801 344.829 110.656 330.241 105.683C310.169 98.8403 292.265 82.5877 272.488 74.3917C238.138 60.1447 220.219 112.74 190.045 122.806C173.781 128.239 158.346 106.034 145.218 95.255C137.859 89.223 129.573 83.73 120.993 87.0363C112.825 90.1843 105.551 97.0684 98.7463 104.096C86.3463 116.914 72.4787 136.284 56.0245 134.124C35.8645 131.485 20.675 106.637 0.213168 104.801" stroke="url(#paint20_linear_368_1716)" stroke-miterlimit="10"/>
<path d="M374.94 100.872C360.021 101.03 344.655 107.846 329.892 102.727C310.419 95.9746 293.2 79.6843 274.039 71.5599C240.399 57.3017 219.912 107.375 190.225 118.161C174.241 123.975 159.734 102.753 146.844 92.182C139.516 86.1726 131.592 81.4035 123.135 84.8606C114.857 88.2536 107.399 94.9643 100.321 101.845C87.5227 114.286 73.1268 132.725 56.6023 130.516C36.2446 127.797 20.8651 102.768 0.205522 100.872" stroke="url(#paint21_linear_368_1716)" stroke-miterlimit="10"/>
<path d="M374.935 97.0262C359.868 97.3467 344.47 105.158 329.522 99.9103C310.645 93.2826 294.131 76.9734 275.564 68.9584C242.637 54.7416 219.615 102.078 190.409 113.584C174.712 119.767 161.191 99.5899 148.528 89.226C141.226 83.2505 133.695 79.2468 125.368 82.817C116.975 86.4325 109.325 92.9961 101.965 99.7067C88.7561 111.771 73.8294 129.249 57.2216 126.99C36.6635 124.189 21.081 98.9716 0.215866 97.0112" stroke="url(#paint22_linear_368_1716)" stroke-miterlimit="10"/>
<path d="M374.93 93.2641C359.717 93.7504 344.275 102.561 329.13 97.2038C310.836 90.7268 295.003 74.4102 277.034 66.5308C244.808 52.397 219.323 96.8908 190.597 109.087C175.183 115.632 162.677 96.5289 150.23 86.3649C142.959 80.4271 135.795 77.2113 127.606 80.9097C119.096 84.7551 111.245 91.1529 103.61 97.6976C89.9871 109.385 74.5347 125.897 57.8228 123.583C37.0487 120.702 21.2736 95.3074 0.20027 93.2641" stroke="url(#paint23_linear_368_1716)" stroke-miterlimit="10"/>
<path d="M374.925 89.5879C359.571 90.2363 344.077 100.023 328.757 94.5756C311.025 88.2684 295.862 71.9555 278.466 64.2307C246.876 50.2062 219.029 91.8047 190.768 104.683C175.636 111.582 164.147 93.554 151.903 83.5709C144.664 77.6708 137.851 75.2429 129.818 79.0469C121.191 83.1261 113.142 89.3768 105.234 95.7406C91.2101 107.028 75.2425 122.61 58.4161 120.246C37.4338 117.286 21.4636 91.684 0.184683 89.5954" stroke="url(#paint24_linear_368_1716)" stroke-miterlimit="10"/>
<path d="M374.919 85.9912C359.412 86.7942 343.882 97.52 328.375 91.9969C311.176 85.8706 296.653 69.569 279.798 62.0101C248.815 48.1137 218.74 86.8244 190.953 100.385C176.073 107.646 165.612 90.6171 153.537 80.8338C146.321 74.9903 139.865 73.2938 131.967 77.2071C123.229 81.52 114.985 87.6463 106.819 93.8253C92.4097 104.725 75.9502 119.39 59.0067 116.966C37.8267 113.931 21.6691 88.1439 0.194988 85.9912" stroke="url(#paint25_linear_368_1716)" stroke-miterlimit="10"/>
<path d="M374.914 82.4813C359.261 83.4163 343.687 95.0242 328.005 89.4446C311.299 83.503 297.376 67.2014 281.026 59.8197C265.165 52.6566 248.292 60.7433 233.477 69.3842C219.191 77.7198 205.609 88.6529 191.109 96.2118C176.417 103.872 167.046 87.6463 155.062 78.1156C139.149 65.4672 122.851 81.5087 108.286 91.9102C93.5287 102.436 76.606 116.227 59.5506 113.75C38.1832 110.651 21.8487 84.683 0.184608 82.4775" stroke="url(#paint26_linear_368_1716)" stroke-miterlimit="10"/>
<path d="M374.909 79.051C359.111 80.0953 343.533 92.5062 327.652 86.8851C311.39 81.1245 298.022 64.8342 282.111 57.6146C266.396 50.4742 249.078 58.2291 234.193 66.1424C219.617 73.8936 205.745 84.1292 191.247 92.182C176.75 100.235 168.282 84.8041 156.452 75.4091C140.901 63.0623 123.924 80.3102 109.611 89.9803C94.5437 100.159 77.1916 113.113 60.0425 110.602C38.5086 107.447 22.0127 81.3055 0.189912 79.051" stroke="url(#paint27_linear_368_1716)" stroke-miterlimit="10"/>
<path d="M374.904 75.7067C358.957 76.8377 343.393 89.9424 327.326 84.2873C311.452 78.7039 298.576 62.4211 283.087 55.341C267.492 48.2345 249.778 55.6728 234.825 62.9301C219.992 70.1346 205.841 79.7557 191.367 88.3024C184.539 92.3326 179.534 92.4984 172.932 87.2996C167.566 83.0734 163.028 76.9358 157.67 72.6794C150.521 66.9942 144.828 67.1525 137.341 71.3787C128.345 76.4645 119.58 82.3118 110.753 87.9932C95.4336 97.8255 77.7042 110.025 60.4771 107.492C38.7948 104.302 22.161 77.9876 0.182047 75.7067" stroke="url(#paint28_linear_368_1716)" stroke-miterlimit="10"/>
<path d="M374.899 72.4418C358.803 73.5728 343.286 87.3033 327.032 81.6294C311.473 76.1968 299.037 59.8537 283.86 52.9545C268.345 45.9008 250.306 53.0299 235.294 59.7406C220.281 66.4513 205.867 75.5747 191.44 84.6228C184.773 88.8038 179.899 89.3956 173.354 84.2232C168.165 80.1214 163.835 74.0667 158.659 69.9348C151.549 64.2571 145.944 64.8603 138.587 69.226C129.547 74.5907 120.647 80.4267 111.654 85.9498C96.1414 95.4729 78.0659 106.994 60.8128 104.453C39.0108 101.245 22.2651 74.7717 0.179446 72.4758" stroke="url(#paint29_linear_368_1716)" stroke-miterlimit="10"/>
<path d="M374.893 69.2681C358.647 70.369 343.218 84.5744 326.782 78.8855C311.455 73.5735 299.406 57.106 284.44 50.4104C268.946 43.4698 250.712 50.2747 235.606 56.5066C220.377 62.7837 205.838 71.5264 191.471 81.0721C184.939 85.4076 180.12 86.3199 173.625 81.1475C168.576 77.1324 164.42 71.1154 159.387 67.0626C152.312 61.3661 146.712 62.2898 139.467 66.8214C130.414 72.4764 121.41 78.3275 112.278 83.7337C96.6645 92.9816 78.2871 103.907 61.047 101.385C39.1591 98.1805 22.3327 71.5565 0.153433 69.2681" stroke="url(#paint30_linear_368_1716)" stroke-miterlimit="10"/>
<path d="M374.888 66.1727C358.494 67.1717 343.198 81.7203 326.579 76.0162C311.411 70.8098 299.622 54.2707 284.836 47.6543C269.391 40.7476 250.918 47.4055 235.772 53.249C220.388 59.1868 205.784 67.692 191.484 77.7542C185.059 82.2782 180.214 83.3715 173.752 78.1651C168.808 74.1802 164.782 68.1595 159.845 64.1369C152.796 58.3913 147.118 59.4771 139.959 64.216C130.924 70.1953 121.852 76.0879 112.619 81.4036C96.9585 90.4177 78.3678 100.853 61.1979 98.3687C39.258 95.1981 22.3899 68.4309 0.158565 66.1727" stroke="url(#paint31_linear_368_1716)" stroke-miterlimit="10"/>
<path d="M374.88 63.1562C358.403 64.0534 343.213 78.7603 326.493 73.0035C311.377 67.8008 299.659 51.2768 284.919 44.6981C269.49 37.8141 250.933 44.6076 235.783 50.3268C220.343 56.1552 205.786 64.5963 191.468 74.7038C185.067 79.2278 180.154 80.1703 173.736 74.9978C168.826 71.0393 164.826 65.0713 159.916 61.1015C152.89 55.4238 147.107 56.4795 140.016 61.3541C131.02 67.5369 121.938 73.4747 112.666 78.7377C97.0808 87.5859 78.2481 97.9045 61.2109 95.3258C39.3022 92.0157 22.3249 65.7009 0.150795 63.1675" stroke="url(#paint32_linear_368_1716)" stroke-miterlimit="10"/>
<path d="M374.875 60.1892C358.361 61.0413 343.216 75.8461 326.457 70.0215C311.364 64.7736 299.586 48.389 284.836 41.8518C269.407 35.013 250.892 42.1044 235.765 47.8612C220.375 53.7199 205.88 62.1459 191.463 71.7745C177.817 80.8867 171.054 66.8735 159.814 58.1346C152.788 52.6718 146.969 53.6671 139.943 58.5606C130.986 64.8 121.92 70.7227 112.65 75.9253C97.1563 84.619 78.079 94.9866 61.1641 92.1892C39.3491 88.5775 22.1636 63.3334 0.137811 60.2458" stroke="url(#paint33_linear_368_1716)" stroke-miterlimit="10"/>
<path d="M374.87 57.2674C358.306 58.0892 343.198 73.0035 326.387 67.1298C311.293 61.8517 299.469 45.6406 284.711 39.1637C269.282 32.3776 250.821 39.7405 235.718 45.5162C220.388 51.3786 205.948 59.7669 191.448 68.9092C177.916 77.4446 170.91 63.6802 159.663 55.3371C152.637 50.1118 146.766 51.077 139.803 55.978C130.887 62.2513 121.847 68.1288 112.58 73.241C97.1485 81.7575 77.8811 92.0157 61.1068 89.0299C39.4011 85.1693 22.0048 61.0223 0.140333 57.4446" stroke="url(#paint34_linear_368_1716)" stroke-miterlimit="10"/>
<path d="M374.865 54.3985C358.244 55.1977 343.158 70.2326 326.285 64.3325C311.21 59.062 299.315 43.0356 284.547 36.6266C269.118 29.9536 250.717 37.5012 235.642 43.2807C220.385 49.1242 205.976 57.4484 191.424 66.0856C177.989 74.0516 170.744 60.5927 159.468 52.6379C152.424 47.6728 146.509 48.6379 139.597 53.5352C130.731 59.8198 121.709 65.6294 112.458 70.6209C97.0652 78.9338 77.6808 88.9395 61.0209 85.7991C39.4219 81.7312 21.8252 58.7189 0.127355 54.7001" stroke="url(#paint35_linear_368_1716)" stroke-miterlimit="10"/>
<path d="M374.86 51.5786C358.169 52.3703 343.112 67.522 326.153 61.6182C311.091 56.3778 299.123 40.5324 284.342 34.2515C268.918 27.6955 250.611 35.4127 235.541 41.1733C220.367 46.9792 206.002 55.2167 191.39 63.3335C178.056 70.7416 170.556 57.637 159.229 50.1121C152.161 45.4146 146.199 46.4137 139.332 51.2958C130.535 57.6124 121.508 63.233 112.291 68.1328C96.9117 76.2157 77.4726 85.8519 60.909 82.5682C39.4506 78.3345 21.6379 56.4834 0.129957 52.0838" stroke="url(#paint36_linear_368_1716)" stroke-miterlimit="10"/>
<path d="M374.852 48.8117C358.085 49.6034 343.034 64.8871 325.991 58.9908C310.942 53.7919 298.894 38.1576 284.094 32.0049C268.676 25.5959 250.447 33.4338 235.406 39.168C220.312 44.9135 205.987 53.0379 191.341 60.627C178.106 67.4885 170.335 54.7721 158.94 47.7033C151.838 43.2962 145.832 44.3518 139.004 49.2114C130.26 55.4861 121.266 61.0013 112.07 65.7279C96.6827 73.5582 77.2462 82.6704 60.7711 79.3C39.4505 74.938 21.4349 54.282 0.11433 49.5393" stroke="url(#paint37_linear_368_1716)" stroke-miterlimit="10"/>
<path d="M374.847 46.1047C357.994 46.9002 342.945 62.3158 325.806 56.4648C310.768 51.33 298.633 35.9219 283.829 29.9162C268.418 23.6655 250.285 31.5977 235.257 37.2829C220.276 42.9379 205.955 50.9341 191.294 57.9841C178.153 64.3064 170.096 52.0237 158.622 45.4337C151.482 41.3319 145.429 42.4667 138.629 47.3187C129.945 53.5334 120.992 58.9246 111.825 63.4582C96.4121 70.9982 77.0354 79.5034 60.6306 76.0538C39.4584 71.6052 21.2476 52.1669 0.119629 47.1339" stroke="url(#paint38_linear_368_1716)" stroke-miterlimit="10"/>
<path d="M374.841 43.4501C357.895 44.2645 342.833 59.8271 325.596 54.0062C310.567 48.9619 298.344 33.7989 283.524 27.9553C268.124 21.8856 250.09 29.8743 235.096 35.4954C220.219 41.075 205.914 48.8903 191.247 55.3974C178.197 61.1844 169.838 49.3653 158.279 43.2805C151.094 39.5105 144.994 40.732 138.215 45.5425C129.589 51.6836 120.673 56.9308 111.534 61.2447C96.0711 68.4944 76.8038 76.2795 60.4588 72.7696C39.4401 68.2456 21.0419 50.0703 0.111732 44.7772" stroke="url(#paint39_linear_368_1716)" stroke-miterlimit="10"/>
<path d="M374.836 40.8567C357.788 41.6936 342.729 57.4071 325.364 51.6654C310.346 46.6965 298.027 31.7898 283.191 26.1272C267.804 20.2573 249.882 28.2723 234.908 33.8218C220.135 39.2997 205.843 46.9189 191.19 52.8755C178.228 58.1536 169.549 46.8171 157.899 41.2563C150.665 37.8067 144.518 39.1602 137.755 43.8953C129.188 49.9433 120.315 55.0301 111.211 59.1112C95.6886 66.0292 76.5774 73.0113 60.2793 69.4599C39.4167 64.9359 20.8442 48.0084 0.111779 42.4967" stroke="url(#paint40_linear_368_1716)" stroke-miterlimit="10"/>
<path d="M374.831 38.3268C357.677 39.1939 342.602 55.0582 325.127 49.3956C310.102 44.5435 297.686 29.8932 282.832 24.4267C267.46 18.7716 249.663 26.7829 234.69 32.2495C220.026 37.6105 205.745 45.011 191.107 50.4135C178.233 55.1675 169.216 44.3588 157.47 39.3485C150.183 36.242 143.992 37.7273 137.234 42.4399C128.73 48.3816 119.901 53.2907 110.837 57.1166C95.254 63.6802 76.3354 69.8027 60.0737 66.2099C39.3751 61.6595 20.636 46.0516 0.101314 40.3513" stroke="url(#paint41_linear_368_1716)" stroke-miterlimit="10"/>
<path d="M374.826 35.8731C357.565 36.7666 342.471 52.7817 324.844 47.2134C309.841 42.4707 297.322 28.1069 282.452 22.8477C267.099 17.4151 249.424 25.4075 234.484 30.7647C219.927 35.9975 205.656 43.153 191.049 48.0051C178.257 52.2577 168.883 41.973 157.045 37.5395C149.707 34.7836 143.467 36.4085 136.706 41.0871C128.266 46.91 119.484 51.6275 110.464 55.1832C94.7804 61.3661 76.096 66.531 59.8603 62.9457C39.323 58.4217 20.4356 44.1257 0.0961075 38.2633" stroke="url(#paint42_linear_368_1716)" stroke-miterlimit="10"/>
<path d="M374.821 33.4601C357.435 34.4064 342.313 50.5761 324.56 45.1133C309.56 40.5025 296.931 26.4253 282.052 21.3847C266.711 16.1934 249.169 24.1406 234.25 29.4074C219.802 34.5082 205.542 41.3923 190.974 45.6939C178.257 49.4639 168.514 39.7335 156.587 35.8918C149.194 33.4978 142.907 35.2961 136.136 39.9107C127.761 45.603 119.027 50.1164 110.056 53.3885C94.2756 59.1642 75.8513 63.3376 59.6365 59.7485C39.2605 55.2434 20.2378 42.3122 0.0908947 36.314" stroke="url(#paint43_linear_368_1716)" stroke-miterlimit="10"/>
<path d="M374.815 31.126C357.305 32.1213 342.157 48.4455 324.256 43.1034C309.269 38.6284 296.539 24.8489 281.633 20.0384C266.313 15.0921 248.906 22.9828 234.011 28.1326C219.667 33.0902 205.425 39.684 190.904 43.4352C178.252 46.7038 168.131 37.5615 156.114 34.2929C148.669 32.2684 142.337 34.2438 135.543 38.8169C127.233 44.3677 118.55 48.6631 109.632 51.635C93.7578 56.9733 75.6146 60.11 59.4075 56.536C39.1904 52.0836 20.0479 40.5172 0.0857677 34.3984" stroke="url(#paint44_linear_368_1716)" stroke-miterlimit="10"/>
<path d="M374.81 28.8643C357.177 29.9123 341.99 46.3911 323.951 41.1772C308.962 36.8454 296.125 23.3713 281.201 18.7983C265.902 14.1121 248.633 21.9236 233.748 26.9528C219.506 31.7672 205.284 38.0443 190.81 41.2488C178.212 44.0349 167.707 35.4882 155.604 32.8228C148.104 31.1677 141.728 33.3317 134.908 37.8369C126.662 43.2441 118.03 47.3178 109.169 49.984C93.1878 54.8586 75.3544 56.9246 59.1525 53.377C39.1149 48.9811 19.858 38.8096 0.0805616 32.589" stroke="url(#paint45_linear_368_1716)" stroke-miterlimit="10"/>
<path d="M374.805 26.6737C357.044 27.7783 341.818 44.3928 323.631 39.3372C308.642 35.1562 295.698 21.9875 280.756 17.6633C265.478 13.2524 248.349 20.9658 233.482 25.8669C219.336 30.5304 205.141 36.472 190.729 39.1336C178.176 41.4522 167.288 33.5125 155.107 31.4503C147.56 30.1723 141.135 32.5323 134.288 36.9809C126.107 42.2343 117.527 46.0747 108.726 48.423C92.644 52.8075 75.1254 53.7839 58.9236 50.2627C39.0317 45.9423 19.6992 37.177 0.0936005 30.8659" stroke="url(#paint46_linear_368_1716)" stroke-miterlimit="10"/>
<path d="M374.8 24.5627C356.909 25.7238 341.639 42.508 323.306 37.5844C308.319 33.5542 295.261 20.7022 280.3 16.6456C265.048 12.4986 248.063 20.1254 233.199 24.8907C219.147 29.4147 204.982 34.9906 190.631 37.1131C178.101 38.968 166.841 31.6466 154.566 30.1913C146.964 29.2903 140.513 31.8577 133.601 36.246C125.483 41.3429 116.956 44.945 108.219 46.968C71.5265 55.7484 35.5707 40.9359 0.0572362 29.2488" stroke="url(#paint47_linear_368_1716)" stroke-miterlimit="10"/>
<path d="M374.795 22.5195C356.771 23.7447 341.457 40.6759 322.973 35.9069C307.986 32.0388 294.816 19.5072 279.837 15.6882C264.611 11.8051 247.769 19.3376 232.936 23.9634C218.964 28.3329 204.842 33.5468 190.555 35.1189C178.028 36.5101 166.414 29.8409 154.048 28.9738C146.402 28.446 139.896 31.2358 132.946 35.56C124.92 40.5855 116.398 43.79 107.745 45.5619C71.987 52.8871 34.691 39.2886 0.0649796 27.6807" stroke="url(#paint48_linear_368_1716)" stroke-miterlimit="10"/>
<path d="M374.789 20.559C356.633 21.8483 341.272 38.9265 322.637 34.3158C307.648 30.5948 294.368 18.3987 279.371 14.8361C264.171 11.2281 247.475 18.6589 232.658 23.1301C218.761 27.3337 204.688 32.1782 190.467 33.2376C177.916 34.1725 165.974 28.1329 153.514 27.8803C145.824 27.7258 139.277 30.7343 132.272 35.0057C124.298 39.8653 115.833 42.7946 107.253 44.2498C90.9083 47.0208 74.3343 44.6607 58.1246 41.2715C38.6751 37.2036 19.197 32.7399 0.0597734 26.1914" stroke="url(#paint49_linear_368_1716)" stroke-miterlimit="10"/>
<path d="M374.784 18.6774C356.651 20.0083 341.311 37.1166 322.694 32.9018C307.765 29.5087 294.459 17.7877 279.579 14.2326C264.538 10.6397 248.178 17.7689 233.49 22.0742C219.292 26.2213 204.909 30.8546 190.375 31.4352C177.473 31.9517 164.902 26.2439 152.028 26.9112C144.258 27.3146 137.781 30.9941 130.658 35.0808C123.26 39.3259 115.448 41.7576 107.547 42.9074C90.7312 45.3542 74.0532 41.7462 57.4376 38.3419C38.2587 34.4135 18.9081 31.39 0.046667 24.8226" stroke="url(#paint50_linear_368_1716)" stroke-miterlimit="10"/>
<path d="M374.782 16.8791C356.524 18.274 341.121 35.5257 322.366 31.4729C307.434 28.2458 294.022 16.8339 279.119 13.5389C264.109 10.2363 247.878 17.2637 233.212 21.4295C219.081 25.4484 204.753 29.7236 190.295 29.7236C177.317 29.7236 164.467 24.7736 151.487 26.0365C143.706 26.7905 137.174 30.6812 129.997 34.6812C122.648 38.7754 114.888 40.9507 107.055 41.8103C90.1848 43.6614 73.7956 38.8998 57.1826 35.5898C38.1286 31.7933 18.7806 30.176 0.0519543 23.5257" stroke="url(#paint51_linear_368_1716)" stroke-miterlimit="10"/>
<path d="M374.776 15.1681C356.381 16.6271 340.947 34.0182 322.033 30.1238C307.096 27.0474 293.58 15.956 278.656 12.9174C263.677 9.85986 247.574 16.8382 232.915 20.8683C218.863 24.7402 204.589 28.6308 190.206 28.0804C177.135 27.579 164.033 23.3716 150.943 25.2227C143.152 26.3273 136.568 30.4254 129.344 34.3387C122.058 38.2859 114.334 40.2048 106.574 40.7741C89.6592 42.022 73.5406 36.1294 56.9328 32.9098C37.9986 29.2378 18.6792 29.0342 0.0597835 22.301" stroke="url(#paint52_linear_368_1716)" stroke-miterlimit="10"/>
<path d="M374.771 13.543C356.248 15.051 340.749 32.5892 321.703 28.8569C306.763 25.9275 293.143 15.1377 278.195 12.3705C263.247 9.60332 247.275 16.4874 232.655 20.3781C218.636 24.1104 204.431 27.6354 190.126 26.5307C176.94 25.5128 163.614 22.0595 150.415 24.4912C142.608 25.9275 135.977 30.248 128.686 34.0708C121.394 37.8936 113.769 39.5373 106.082 39.8239C89.1673 40.461 73.2621 33.4638 56.6725 30.3347C37.8476 26.7833 18.5438 27.9898 0.0493565 21.1585" stroke="url(#paint53_linear_368_1716)" stroke-miterlimit="10"/>
<path d="M374.769 12.0051C356.118 13.5885 340.564 31.2323 321.383 27.6734C306.435 24.8873 292.716 14.4255 277.747 11.892C262.842 9.36987 246.968 16.2087 232.374 19.9674C218.397 23.564 204.269 26.7195 190.035 25.072C176.719 23.5301 163.195 20.827 149.879 23.8279C142.095 25.5848 135.387 30.1314 128.043 33.8675C120.835 37.532 113.21 38.942 105.606 38.9533C88.6912 38.9834 72.9889 30.9156 56.4228 27.8694C37.6863 24.4236 18.4294 27.0362 0.0493979 20.0956" stroke="url(#paint54_linear_368_1716)" stroke-miterlimit="10"/>
<path d="M374.766 10.561C355.99 12.1972 340.39 29.988 321.07 26.5648C306.115 23.9258 292.297 13.7467 277.31 11.4847C262.42 9.22267 246.705 16.0087 232.109 19.6355C218.16 23.0888 204.103 25.89 189.951 23.7071C176.492 21.6336 162.794 19.6807 149.356 23.2396C141.575 25.2943 134.809 30.0709 127.411 33.7203C120.236 37.2566 112.676 38.414 105.143 38.1576C88.254 37.5884 72.7157 28.4875 56.173 25.513C37.5432 22.1652 18.3357 26.184 0.0416248 19.1039" stroke="url(#paint55_linear_368_1716)" stroke-miterlimit="10"/>
<path d="M374.761 9.20776C355.868 10.9005 340.213 28.8119 320.766 25.5395C305.803 23.0174 291.88 13.1663 276.886 11.1192C262.027 9.09089 246.439 15.8656 231.851 19.3567C217.929 22.6781 203.941 25.1286 189.871 22.4217C176.261 19.8053 162.393 18.5914 148.861 22.6969C141.088 25.0532 134.265 30.056 126.802 33.63C119.671 37.023 112.151 37.958 104.682 37.4415C87.8377 36.2841 72.4321 26.1955 55.918 23.285C37.3767 20.0164 18.2265 25.4302 0.0208644 18.2106" stroke="url(#paint56_linear_368_1716)" stroke-miterlimit="10"/>
<path d="M374.758 7.94824C355.761 9.69376 340.049 27.7333 320.477 24.5929C305.506 22.1876 291.506 12.6344 276.478 10.8135C261.644 9.01893 246.171 15.7824 231.606 19.1528C217.702 22.3761 203.785 24.4572 189.798 21.2376C176.029 18.0708 162.037 17.5807 148.388 22.2178C140.63 24.8568 133.742 30.0858 126.229 33.5769C119.135 36.8719 111.656 37.5543 104.266 36.7927C87.4811 35.0623 72.1822 24.0425 55.6993 21.1697C37.2231 17.9614 18.1509 24.7626 0.0259866 17.3695" stroke="url(#paint57_linear_368_1716)" stroke-miterlimit="10"/>
<path d="M374.755 6.79077C355.639 8.57776 339.885 26.738 320.204 23.722C305.22 21.4298 291.134 12.1593 276.09 10.5608C261.28 8.9887 245.927 15.7521 231.375 19.017C217.484 22.1348 203.634 23.869 189.725 20.148C175.816 16.427 161.685 16.6456 147.93 21.7955C140.19 24.6946 133.234 30.0895 125.68 33.5655C118.654 36.804 111.164 37.2111 103.865 36.2045C87.148 33.9425 71.935 22.033 55.4859 19.1979C37.0904 16.0273 18.0728 24.2045 0.02596 16.6117" stroke="url(#paint58_linear_368_1716)" stroke-miterlimit="10"/>
<path d="M374.74 5.7124C355.519 7.5371 339.731 25.818 319.933 22.9188C304.954 20.736 290.785 11.7444 275.723 10.3533C260.947 8.98856 245.692 15.7746 231.156 18.9452C217.273 21.9612 203.489 23.3674 189.66 19.1563C175.571 14.8698 161.358 15.7633 147.503 21.4183C139.779 24.5625 132.764 30.161 125.165 33.588C118.167 36.7435 110.717 36.9245 103.493 35.7143C95.6107 34.391 87.9261 31.3599 80.3586 27.997C72.1927 24.374 63.7899 18.8472 55.283 17.3844C36.9499 14.2289 17.9974 23.7633 0.0233954 15.9443" stroke="url(#paint59_linear_368_1716)" stroke-miterlimit="10"/>
<path d="M374.74 4.77026C355.426 6.62512 339.609 25.0229 319.696 22.2217C304.705 20.1105 290.46 11.3678 275.379 10.184C260.627 9.01155 245.482 15.8391 230.958 18.9305C217.075 21.8787 203.345 22.9531 189.598 18.267C175.355 13.4112 161.048 14.9531 147.092 21.0983C139.402 24.4913 132.326 30.2594 124.689 33.6374C117.72 36.7175 110.303 36.6949 103.149 35.2773C95.2828 33.7241 87.6424 30.4291 80.1192 26.8513C72.0131 22.9984 63.5973 17.185 55.093 15.7109C36.8172 12.5478 17.9245 23.4206 0.0207905 15.3339" stroke="url(#paint60_linear_368_1716)" stroke-miterlimit="10"/>
<path d="M374.74 3.91455C355.337 5.79956 339.479 24.3066 319.48 21.5884C304.478 19.5451 290.166 11.0663 275.072 10.0522C260.341 9.06064 245.297 15.9673 230.784 18.9796C216.898 21.8561 203.218 22.629 189.551 17.4716C175.144 12.054 160.772 14.203 146.717 20.8194C139.056 24.4235 131.928 30.3688 124.251 33.7091C117.311 36.7251 109.939 36.514 102.837 34.9117C94.9887 33.1398 87.3874 29.596 79.9032 25.8222C71.8518 21.7619 63.4256 15.6921 54.9213 14.1954C36.7053 10.9909 17.8569 23.1869 0.012976 14.8099" stroke="url(#paint61_linear_368_1716)" stroke-miterlimit="10"/>
<path d="M374.74 3.16357C355.257 5.04859 339.372 23.6838 319.288 21.0297C304.267 19.0429 289.882 10.7979 274.773 9.94962C260.057 9.12022 245.107 16.1287 230.61 19.0806C216.719 21.9044 203.077 22.3907 189.493 16.7922C174.939 10.7941 160.53 13.5085 146.376 20.5623C138.741 24.3738 131.566 30.4737 123.859 33.7837C116.942 36.7508 109.595 36.3738 102.561 34.6018C94.7233 32.6263 87.1636 28.8563 79.7133 24.9016C71.706 20.6452 63.2746 14.3681 54.7599 12.8375C36.5803 9.56508 17.7788 23.0542 0.012976 14.3455" stroke="url(#paint62_linear_368_1716)" stroke-miterlimit="10"/>
<path d="M374.74 2.52295C355.181 4.40796 339.281 23.1601 319.119 20.5474C304.096 18.6021 289.645 10.5757 274.523 9.85942C259.823 9.17705 244.972 16.3099 230.474 19.2204C216.575 22.0102 202.96 22.2364 189.454 16.2044C174.749 9.63322 160.332 12.8604 146.074 20.3514C138.473 24.3476 131.257 30.587 123.52 33.8745C116.624 36.8076 109.314 36.2873 102.33 34.3646C94.502 32.2044 86.9762 28.2308 79.5571 24.1101C71.5863 19.6803 63.1627 13.2411 54.6246 11.669C36.484 8.29486 17.7059 23.0545 0.0103283 13.9612" stroke="url(#paint63_linear_368_1716)" stroke-miterlimit="10"/>
<path d="M374.74 1.98755C355.277 3.87256 339.43 22.6247 319.384 20.193C303.544 18.2741 288.232 9.60678 272.249 9.78397C258.584 9.93477 244.873 16.4381 231.375 19.2354C217.033 22.2062 203.306 22.1233 189.418 15.7632C174.018 8.72836 159.588 12.4268 144.744 20.7924C138.09 24.5399 131.751 29.652 125.048 33.1619C117.954 36.8754 110.165 36.5135 102.866 34.4513C94.5828 32.1138 86.6536 27.6652 78.8415 23.1412C70.967 18.5644 62.5954 12.1214 54.1042 10.6134C36.1484 7.44278 17.4743 23.0959 0.012976 13.6558" stroke="url(#paint64_linear_368_1716)" stroke-miterlimit="10"/>
<path d="M374.74 1.56567C355.223 3.4243 339.375 22.3008 319.275 19.8654C303.429 17.9427 288.047 9.47896 272.069 9.76172C258.415 10.0068 244.774 16.691 231.284 19.4922C216.932 22.4705 203.207 22.1764 189.387 15.4017C173.83 7.77114 159.476 11.9031 144.51 20.6797C137.887 24.5628 131.53 29.7202 124.808 33.2339C117.73 36.9512 109.975 36.5138 102.717 34.3348C94.4396 31.8503 86.5416 27.2094 78.753 22.5647C70.8889 17.8748 62.5199 11.3602 54.0078 9.7768C36.0859 6.46671 17.391 23.2923 0.0103283 13.396" stroke="url(#paint65_linear_368_1716)" stroke-miterlimit="10"/>
<path d="M374.74 1.26392C355.184 3.09238 339.349 22.082 319.192 19.6089C303.344 17.6635 287.928 9.38078 271.929 9.75401C258.28 10.0707 244.704 16.9698 231.219 19.7936C216.859 22.8096 203.114 22.3308 189.382 15.1489C173.674 6.9378 159.434 11.4166 144.341 20.5627C137.734 24.5627 131.361 29.7729 124.634 33.328C117.561 37.0641 109.874 36.5928 102.621 34.312C85.8651 29.0339 70.8524 12.5099 53.935 9.1772C36.0442 5.65223 17.2999 23.6126 0.0103283 13.2187" stroke="url(#paint66_linear_368_1716)" stroke-miterlimit="10"/>
<path d="M374.74 1.07275C355.153 2.86352 339.323 21.9663 319.142 19.4328C303.292 17.4384 287.824 9.31781 271.832 9.75136C258.181 10.1284 244.665 17.2688 231.185 20.1416C216.82 23.2028 203.028 22.5845 189.374 15.0143C173.528 6.22638 159.447 10.9653 144.211 20.4809C137.658 24.5638 131.27 29.9738 124.527 33.3894C117.366 37.0124 109.91 36.7184 102.58 34.3357C85.7948 28.8767 70.8655 12.3376 53.8882 8.76361C36.0209 4.99358 17.1959 24.0511 0.0207905 13.1067" stroke="url(#paint67_linear_368_1716)" stroke-miterlimit="10"/>
<path d="M374.74 1C355.132 2.73798 339.331 21.9538 319.129 19.3261C303.279 17.2639 287.79 9.27898 271.767 9.74647C258.113 10.1461 244.649 17.5881 231.172 20.5287C216.807 23.6616 202.942 22.9416 189.369 14.9906C173.401 5.6296 159.518 10.5382 144.136 20.4156C130.083 29.4336 118.506 39.6993 102.593 34.4138C85.7637 28.8228 70.9046 12.4232 53.8674 8.56268C36.0209 4.51744 17.0971 24.6041 1.29221e-05 13.0867" stroke="url(#paint68_linear_368_1716)" stroke-miterlimit="10"/>
</g>
<defs>
<linearGradient id="paint0_linear_368_1716" x1="375" y1="202" x2="0.270386" y2="202" gradientUnits="userSpaceOnUse">
<stop stop-color="#3658FF"/>
<stop offset="1" stop-color="#FF5D24"/>
</linearGradient>
<linearGradient id="paint1_linear_368_1716" x1="375" y1="195.392" x2="0.280853" y2="195.392" gradientUnits="userSpaceOnUse">
<stop stop-color="#3658FF"/>
<stop offset="1" stop-color="#FF5D24"/>
</linearGradient>
<linearGradient id="paint2_linear_368_1716" x1="375" y1="190.3" x2="0.270386" y2="190.3" gradientUnits="userSpaceOnUse">
<stop stop-color="#3658FF"/>
<stop offset="1" stop-color="#FF5D24"/>
</linearGradient>
<linearGradient id="paint3_linear_368_1716" x1="375" y1="186.291" x2="0.270386" y2="186.291" gradientUnits="userSpaceOnUse">
<stop stop-color="#3658FF"/>
<stop offset="1" stop-color="#FF5D24"/>
</linearGradient>
<linearGradient id="paint4_linear_368_1716" x1="375" y1="183.091" x2="0.270386" y2="183.091" gradientUnits="userSpaceOnUse">
<stop stop-color="#3658FF"/>
<stop offset="1" stop-color="#FF5D24"/>
</linearGradient>
<linearGradient id="paint5_linear_368_1716" x1="375" y1="180.526" x2="0.270386" y2="180.526" gradientUnits="userSpaceOnUse">
<stop stop-color="#3658FF"/>
<stop offset="1" stop-color="#FF5D24"/>
</linearGradient>
<linearGradient id="paint6_linear_368_1716" x1="375" y1="178.44" x2="0.270386" y2="178.44" gradientUnits="userSpaceOnUse">
<stop stop-color="#3658FF"/>
<stop offset="1" stop-color="#FF5D24"/>
</linearGradient>
<linearGradient id="paint7_linear_368_1716" x1="375" y1="176.66" x2="0.275635" y2="176.66" gradientUnits="userSpaceOnUse">
<stop stop-color="#3658FF"/>
<stop offset="1" stop-color="#FF5D24"/>
</linearGradient>
<linearGradient id="paint8_linear_368_1716" x1="375" y1="175.022" x2="0.267792" y2="175.022" gradientUnits="userSpaceOnUse">
<stop stop-color="#3658FF"/>
<stop offset="1" stop-color="#FF5D24"/>
</linearGradient>
<linearGradient id="paint9_linear_368_1716" x1="374.988" y1="173.321" x2="0.265808" y2="173.321" gradientUnits="userSpaceOnUse">
<stop stop-color="#3658FF"/>
<stop offset="1" stop-color="#FF5D24"/>
</linearGradient>
<linearGradient id="paint10_linear_368_1716" x1="374.984" y1="171.398" x2="0.2547" y2="171.398" gradientUnits="userSpaceOnUse">
<stop stop-color="#3658FF"/>
<stop offset="1" stop-color="#FF5D24"/>
</linearGradient>
<linearGradient id="paint11_linear_368_1716" x1="374.982" y1="169.115" x2="0.252075" y2="169.115" gradientUnits="userSpaceOnUse">
<stop stop-color="#3658FF"/>
<stop offset="1" stop-color="#FF5D24"/>
</linearGradient>
<linearGradient id="paint12_linear_368_1716" x1="374.979" y1="166.3" x2="0.249481" y2="166.3" gradientUnits="userSpaceOnUse">
<stop stop-color="#3658FF"/>
<stop offset="1" stop-color="#FF5D24"/>
</linearGradient>
<linearGradient id="paint13_linear_368_1716" x1="374.974" y1="162.712" x2="0.2341" y2="162.712" gradientUnits="userSpaceOnUse">
<stop stop-color="#3658FF"/>
<stop offset="1" stop-color="#FF5D24"/>
</linearGradient>
<linearGradient id="paint14_linear_368_1716" x1="374.972" y1="158.369" x2="0.241882" y2="158.369" gradientUnits="userSpaceOnUse">
<stop stop-color="#3658FF"/>
<stop offset="1" stop-color="#FF5D24"/>
</linearGradient>
<linearGradient id="paint15_linear_368_1716" x1="374.969" y1="154.02" x2="0.24704" y2="154.02" gradientUnits="userSpaceOnUse">
<stop stop-color="#3658FF"/>
<stop offset="1" stop-color="#FF5D24"/>
</linearGradient>
<linearGradient id="paint16_linear_368_1716" x1="374.963" y1="149.831" x2="0.238892" y2="149.831" gradientUnits="userSpaceOnUse">
<stop stop-color="#3658FF"/>
<stop offset="1" stop-color="#FF5D24"/>
</linearGradient>
<linearGradient id="paint17_linear_368_1716" x1="374.958" y1="145.75" x2="0.220978" y2="145.75" gradientUnits="userSpaceOnUse">
<stop stop-color="#3658FF"/>
<stop offset="1" stop-color="#FF5D24"/>
</linearGradient>
<linearGradient id="paint18_linear_368_1716" x1="374.956" y1="141.802" x2="0.226227" y2="141.802" gradientUnits="userSpaceOnUse">
<stop stop-color="#3658FF"/>
<stop offset="1" stop-color="#FF5D24"/>
</linearGradient>
<linearGradient id="paint19_linear_368_1716" x1="374.951" y1="137.973" x2="0.221008" y2="137.973" gradientUnits="userSpaceOnUse">
<stop stop-color="#3658FF"/>
<stop offset="1" stop-color="#FF5D24"/>
</linearGradient>
<linearGradient id="paint20_linear_368_1716" x1="374.945" y1="134.29" x2="0.213165" y2="134.29" gradientUnits="userSpaceOnUse">
<stop stop-color="#3658FF"/>
<stop offset="1" stop-color="#FF5D24"/>
</linearGradient>
<linearGradient id="paint21_linear_368_1716" x1="374.94" y1="130.697" x2="0.205505" y2="130.697" gradientUnits="userSpaceOnUse">
<stop stop-color="#3658FF"/>
<stop offset="1" stop-color="#FF5D24"/>
</linearGradient>
<linearGradient id="paint22_linear_368_1716" x1="374.935" y1="127.189" x2="0.215851" y2="127.189" gradientUnits="userSpaceOnUse">
<stop stop-color="#3658FF"/>
<stop offset="1" stop-color="#FF5D24"/>
</linearGradient>
<linearGradient id="paint23_linear_368_1716" x1="374.93" y1="123.802" x2="0.200256" y2="123.802" gradientUnits="userSpaceOnUse">
<stop stop-color="#3658FF"/>
<stop offset="1" stop-color="#FF5D24"/>
</linearGradient>
<linearGradient id="paint24_linear_368_1716" x1="374.925" y1="120.486" x2="0.184662" y2="120.486" gradientUnits="userSpaceOnUse">
<stop stop-color="#3658FF"/>
<stop offset="1" stop-color="#FF5D24"/>
</linearGradient>
<linearGradient id="paint25_linear_368_1716" x1="374.919" y1="117.232" x2="0.194977" y2="117.232" gradientUnits="userSpaceOnUse">
<stop stop-color="#3658FF"/>
<stop offset="1" stop-color="#FF5D24"/>
</linearGradient>
<linearGradient id="paint26_linear_368_1716" x1="374.914" y1="114.042" x2="0.184601" y2="114.042" gradientUnits="userSpaceOnUse">
<stop stop-color="#3658FF"/>
<stop offset="1" stop-color="#FF5D24"/>
</linearGradient>
<linearGradient id="paint27_linear_368_1716" x1="374.909" y1="110.919" x2="0.189911" y2="110.919" gradientUnits="userSpaceOnUse">
<stop stop-color="#3658FF"/>
<stop offset="1" stop-color="#FF5D24"/>
</linearGradient>
<linearGradient id="paint28_linear_368_1716" x1="374.904" y1="107.83" x2="0.182068" y2="107.83" gradientUnits="userSpaceOnUse">
<stop stop-color="#3658FF"/>
<stop offset="1" stop-color="#FF5D24"/>
</linearGradient>
<linearGradient id="paint29_linear_368_1716" x1="374.899" y1="104.81" x2="0.179443" y2="104.81" gradientUnits="userSpaceOnUse">
<stop stop-color="#3658FF"/>
<stop offset="1" stop-color="#FF5D24"/>
</linearGradient>
<linearGradient id="paint30_linear_368_1716" x1="374.893" y1="101.753" x2="0.153442" y2="101.753" gradientUnits="userSpaceOnUse">
<stop stop-color="#3658FF"/>
<stop offset="1" stop-color="#FF5D24"/>
</linearGradient>
<linearGradient id="paint31_linear_368_1716" x1="374.888" y1="98.741" x2="0.158569" y2="98.741" gradientUnits="userSpaceOnUse">
<stop stop-color="#3658FF"/>
<stop offset="1" stop-color="#FF5D24"/>
</linearGradient>
<linearGradient id="paint32_linear_368_1716" x1="374.88" y1="95.7283" x2="0.150787" y2="95.7283" gradientUnits="userSpaceOnUse">
<stop stop-color="#3658FF"/>
<stop offset="1" stop-color="#FF5D24"/>
</linearGradient>
<linearGradient id="paint33_linear_368_1716" x1="374.875" y1="92.6547" x2="0.137817" y2="92.6547" gradientUnits="userSpaceOnUse">
<stop stop-color="#3658FF"/>
<stop offset="1" stop-color="#FF5D24"/>
</linearGradient>
<linearGradient id="paint34_linear_368_1716" x1="374.87" y1="89.5586" x2="0.14032" y2="89.5586" gradientUnits="userSpaceOnUse">
<stop stop-color="#3658FF"/>
<stop offset="1" stop-color="#FF5D24"/>
</linearGradient>
<linearGradient id="paint35_linear_368_1716" x1="374.865" y1="86.39" x2="0.12735" y2="86.39" gradientUnits="userSpaceOnUse">
<stop stop-color="#3658FF"/>
<stop offset="1" stop-color="#FF5D24"/>
</linearGradient>
<linearGradient id="paint36_linear_368_1716" x1="374.86" y1="83.2277" x2="0.129974" y2="83.2277" gradientUnits="userSpaceOnUse">
<stop stop-color="#3658FF"/>
<stop offset="1" stop-color="#FF5D24"/>
</linearGradient>
<linearGradient id="paint37_linear_368_1716" x1="374.852" y1="80.0209" x2="0.114319" y2="80.0209" gradientUnits="userSpaceOnUse">
<stop stop-color="#3658FF"/>
<stop offset="1" stop-color="#FF5D24"/>
</linearGradient>
<linearGradient id="paint38_linear_368_1716" x1="374.847" y1="76.8447" x2="0.119629" y2="76.8447" gradientUnits="userSpaceOnUse">
<stop stop-color="#3658FF"/>
<stop offset="1" stop-color="#FF5D24"/>
</linearGradient>
<linearGradient id="paint39_linear_368_1716" x1="374.841" y1="73.6386" x2="0.111725" y2="73.6386" gradientUnits="userSpaceOnUse">
<stop stop-color="#3658FF"/>
<stop offset="1" stop-color="#FF5D24"/>
</linearGradient>
<linearGradient id="paint40_linear_368_1716" x1="374.836" y1="70.4166" x2="0.111786" y2="70.4166" gradientUnits="userSpaceOnUse">
<stop stop-color="#3658FF"/>
<stop offset="1" stop-color="#FF5D24"/>
</linearGradient>
<linearGradient id="paint41_linear_368_1716" x1="374.831" y1="67.2746" x2="0.101318" y2="67.2746" gradientUnits="userSpaceOnUse">
<stop stop-color="#3658FF"/>
<stop offset="1" stop-color="#FF5D24"/>
</linearGradient>
<linearGradient id="paint42_linear_368_1716" x1="374.826" y1="64.1251" x2="0.0960999" y2="64.1251" gradientUnits="userSpaceOnUse">
<stop stop-color="#3658FF"/>
<stop offset="1" stop-color="#FF5D24"/>
</linearGradient>
<linearGradient id="paint43_linear_368_1716" x1="374.821" y1="61.0822" x2="0.0909119" y2="61.0822" gradientUnits="userSpaceOnUse">
<stop stop-color="#3658FF"/>
<stop offset="1" stop-color="#FF5D24"/>
</linearGradient>
<linearGradient id="paint44_linear_368_1716" x1="374.815" y1="58.0628" x2="0.0857544" y2="58.0628" gradientUnits="userSpaceOnUse">
<stop stop-color="#3658FF"/>
<stop offset="1" stop-color="#FF5D24"/>
</linearGradient>
<linearGradient id="paint45_linear_368_1716" x1="374.81" y1="55.1595" x2="0.0805664" y2="55.1595" gradientUnits="userSpaceOnUse">
<stop stop-color="#3658FF"/>
<stop offset="1" stop-color="#FF5D24"/>
</linearGradient>
<linearGradient id="paint46_linear_368_1716" x1="374.805" y1="52.4009" x2="0.0935974" y2="52.4009" gradientUnits="userSpaceOnUse">
<stop stop-color="#3658FF"/>
<stop offset="1" stop-color="#FF5D24"/>
</linearGradient>
<linearGradient id="paint47_linear_368_1716" x1="374.8" y1="49.6259" x2="0.0572205" y2="49.6259" gradientUnits="userSpaceOnUse">
<stop stop-color="#3658FF"/>
<stop offset="1" stop-color="#FF5D24"/>
</linearGradient>
<linearGradient id="paint48_linear_368_1716" x1="374.795" y1="47.6303" x2="0.0649719" y2="47.6303" gradientUnits="userSpaceOnUse">
<stop stop-color="#3658FF"/>
<stop offset="1" stop-color="#FF5D24"/>
</linearGradient>
<linearGradient id="paint49_linear_368_1716" x1="374.789" y1="45.4698" x2="0.0597534" y2="45.4698" gradientUnits="userSpaceOnUse">
<stop stop-color="#3658FF"/>
<stop offset="1" stop-color="#FF5D24"/>
</linearGradient>
<linearGradient id="paint50_linear_368_1716" x1="374.784" y1="43.711" x2="0.0466614" y2="43.711" gradientUnits="userSpaceOnUse">
<stop stop-color="#3658FF"/>
<stop offset="1" stop-color="#FF5D24"/>
</linearGradient>
<linearGradient id="paint51_linear_368_1716" x1="374.782" y1="42.2245" x2="0.0519714" y2="42.2245" gradientUnits="userSpaceOnUse">
<stop stop-color="#3658FF"/>
<stop offset="1" stop-color="#FF5D24"/>
</linearGradient>
<linearGradient id="paint52_linear_368_1716" x1="374.776" y1="40.9449" x2="0.0597839" y2="40.9449" gradientUnits="userSpaceOnUse">
<stop stop-color="#3658FF"/>
<stop offset="1" stop-color="#FF5D24"/>
</linearGradient>
<linearGradient id="paint53_linear_368_1716" x1="374.771" y1="39.8647" x2="0.0493774" y2="39.8647" gradientUnits="userSpaceOnUse">
<stop stop-color="#3658FF"/>
<stop offset="1" stop-color="#FF5D24"/>
</linearGradient>
<linearGradient id="paint54_linear_368_1716" x1="374.769" y1="38.9534" x2="0.049408" y2="38.9534" gradientUnits="userSpaceOnUse">
<stop stop-color="#3658FF"/>
<stop offset="1" stop-color="#FF5D24"/>
</linearGradient>
<linearGradient id="paint55_linear_368_1716" x1="374.766" y1="38.1919" x2="0.041626" y2="38.1919" gradientUnits="userSpaceOnUse">
<stop stop-color="#3658FF"/>
<stop offset="1" stop-color="#FF5D24"/>
</linearGradient>
<linearGradient id="paint56_linear_368_1716" x1="374.761" y1="37.5742" x2="0.020874" y2="37.5742" gradientUnits="userSpaceOnUse">
<stop stop-color="#3658FF"/>
<stop offset="1" stop-color="#FF5D24"/>
</linearGradient>
<linearGradient id="paint57_linear_368_1716" x1="374.758" y1="37.0754" x2="0.026001" y2="37.0754" gradientUnits="userSpaceOnUse">
<stop stop-color="#3658FF"/>
<stop offset="1" stop-color="#FF5D24"/>
</linearGradient>
<linearGradient id="paint58_linear_368_1716" x1="374.755" y1="36.6909" x2="0.0259399" y2="36.6909" gradientUnits="userSpaceOnUse">
<stop stop-color="#3658FF"/>
<stop offset="1" stop-color="#FF5D24"/>
</linearGradient>
<linearGradient id="paint59_linear_368_1716" x1="374.74" y1="36.4066" x2="0.023407" y2="36.4066" gradientUnits="userSpaceOnUse">
<stop stop-color="#3658FF"/>
<stop offset="1" stop-color="#FF5D24"/>
</linearGradient>
<linearGradient id="paint60_linear_368_1716" x1="374.74" y1="36.1999" x2="0.0207825" y2="36.1999" gradientUnits="userSpaceOnUse">
<stop stop-color="#3658FF"/>
<stop offset="1" stop-color="#FF5D24"/>
</linearGradient>
<linearGradient id="paint61_linear_368_1716" x1="374.74" y1="36.0626" x2="0.01297" y2="36.0626" gradientUnits="userSpaceOnUse">
<stop stop-color="#3658FF"/>
<stop offset="1" stop-color="#FF5D24"/>
</linearGradient>
<linearGradient id="paint62_linear_368_1716" x1="374.74" y1="35.9738" x2="0.01297" y2="35.9738" gradientUnits="userSpaceOnUse">
<stop stop-color="#3658FF"/>
<stop offset="1" stop-color="#FF5D24"/>
</linearGradient>
<linearGradient id="paint63_linear_368_1716" x1="374.74" y1="35.9405" x2="0.0103455" y2="35.9405" gradientUnits="userSpaceOnUse">
<stop stop-color="#3658FF"/>
<stop offset="1" stop-color="#FF5D24"/>
</linearGradient>
<linearGradient id="paint64_linear_368_1716" x1="374.74" y1="35.9866" x2="0.01297" y2="35.9866" gradientUnits="userSpaceOnUse">
<stop stop-color="#3658FF"/>
<stop offset="1" stop-color="#FF5D24"/>
</linearGradient>
<linearGradient id="paint65_linear_368_1716" x1="374.74" y1="36.0026" x2="0.0103455" y2="36.0026" gradientUnits="userSpaceOnUse">
<stop stop-color="#3658FF"/>
<stop offset="1" stop-color="#FF5D24"/>
</linearGradient>
<linearGradient id="paint66_linear_368_1716" x1="374.74" y1="36.0805" x2="0.0103455" y2="36.0805" gradientUnits="userSpaceOnUse">
<stop stop-color="#3658FF"/>
<stop offset="1" stop-color="#FF5D24"/>
</linearGradient>
<linearGradient id="paint67_linear_368_1716" x1="374.74" y1="36.1214" x2="0.0207825" y2="36.1214" gradientUnits="userSpaceOnUse">
<stop stop-color="#3658FF"/>
<stop offset="1" stop-color="#FF5D24"/>
</linearGradient>
<linearGradient id="paint68_linear_368_1716" x1="374.74" y1="35.8576" x2="0" y2="35.8576" gradientUnits="userSpaceOnUse">
<stop stop-color="#3658FF"/>
<stop offset="1" stop-color="#FF5D24"/>
</linearGradient>
</defs>
</svg>
