<svg width="375" height="638" viewBox="0 0 375 638" fill="none" xmlns="http://www.w3.org/2000/svg">
<g opacity="0.2">
<path opacity="0.0526316" d="M-65.2792 885.821L-65.5474 885.395L-65.2792 885.821ZM520.027 632.732L519.711 632.317L520.027 632.732ZM-451.196 843.95C-408.023 874.958 -270.552 926.56 -65.0109 886.248L-65.5474 885.395C-270.879 925.666 -407.88 874.055 -450.583 843.384L-451.196 843.95ZM-65.0109 886.248C63.4633 861.051 152.539 815.056 238.125 766.728C323.718 718.395 405.803 667.741 520.343 633.147L519.711 632.317C405.057 666.946 322.886 717.654 237.324 765.97C151.754 814.289 62.7736 860.228 -65.5474 885.395L-65.0109 886.248ZM520.343 633.147C604.888 607.612 760.779 575.672 928.198 560.709C1095.64 545.744 1274.5 547.772 1405.03 590.093L1405.18 589.295C1274.34 546.871 1095.24 544.873 927.777 559.84C760.29 574.809 604.327 606.761 519.711 632.317L520.343 633.147Z" fill="url(#paint0_linear_368_1900)"/>
<path opacity="0.105263" d="M-117.906 842.697L-118.099 842.233L-117.906 842.697ZM513.198 624.022L512.96 623.566L513.198 624.022ZM-493.576 779.3C-475.093 795.952 -434.165 819.034 -371.367 834.395C-308.554 849.759 -223.828 857.407 -117.713 843.161L-118.099 842.233C-224.096 856.464 -308.673 848.817 -371.316 833.494C-433.976 818.167 -474.659 795.168 -492.909 778.726L-493.576 779.3ZM-117.713 843.161C14.9291 825.352 112.418 784.638 206.893 741.404C301.374 698.167 392.82 652.42 513.436 624.478L512.96 623.566C392.234 651.534 300.699 697.326 206.248 740.549C111.791 783.775 14.399 824.443 -118.099 842.233L-117.713 843.161ZM513.436 624.478C602.466 603.853 763.691 580.885 933.093 575.451C1102.52 570.016 1280.01 582.126 1401.64 631.584L1401.88 630.745C1279.98 581.173 1102.25 569.079 932.814 574.514C763.349 579.95 602.058 602.926 512.96 623.566L513.436 624.478Z" fill="url(#paint1_linear_368_1900)"/>
<path opacity="0.157895" d="M-164.289 798.005L-164.394 797.515L-164.289 798.005ZM505.698 616.141L505.549 615.657L505.698 616.141ZM-525.612 713.774C-510.451 731.381 -474.215 756.646 -414.741 775.465C-355.25 794.289 -272.473 806.675 -164.184 798.495L-164.394 797.515C-272.57 805.687 -355.207 793.309 -414.543 774.534C-473.897 755.753 -509.903 730.584 -524.866 713.206L-525.612 713.774ZM-164.184 798.495C-28.8248 788.269 76.0105 753.281 178.338 715.615C280.673 677.946 380.479 637.61 505.847 616.626L505.549 615.657C380.073 636.658 280.175 677.033 177.872 714.69C75.5626 752.349 -29.1735 787.299 -164.394 797.515L-164.184 798.495ZM505.847 616.626C598.385 601.138 763.175 587.393 932.703 591.549C1102.26 595.705 1276.44 617.764 1387.82 673.816L1388.2 672.956C1276.56 616.778 1102.16 594.722 932.596 590.566C763.009 586.409 598.154 600.157 505.549 615.657L505.847 616.626Z" fill="url(#paint2_linear_368_1900)"/>
<path opacity="0.210526" d="M-204.158 752.102L-204.168 751.602L-204.158 752.102ZM497.372 609.042L497.319 608.545L497.372 609.042ZM-547.188 647.95C-535.52 666.318 -504.374 693.488 -448.87 715.559C-393.351 737.637 -313.427 754.627 -204.149 752.602L-204.168 751.602C-313.334 753.625 -393.123 736.651 -448.5 714.63C-503.893 692.603 -534.829 665.54 -546.344 647.414L-547.188 647.95ZM-204.149 752.602C-67.5526 750.07 43.4821 721.19 152.542 689.505C261.609 657.817 368.679 623.333 497.425 609.539L497.319 608.545C368.465 622.351 261.298 656.867 152.263 688.544C43.2224 720.224 -67.7082 749.073 -204.168 751.602L-204.149 752.602ZM497.425 609.539C592.456 599.357 759.005 594.987 926.801 608.686C1094.62 622.387 1263.58 654.156 1363.5 716.187L1364.03 715.337C1263.88 653.168 1094.71 621.391 926.882 607.69C759.03 593.986 592.417 598.356 497.319 608.545L497.425 609.539Z" fill="url(#paint3_linear_368_1900)"/>
<path opacity="0.263158" d="M-237.315 705.365L-237.229 704.874L-237.315 705.365ZM488.072 602.676L488.113 602.185L488.072 602.676ZM-558.302 582.42C-550.254 601.344 -524.54 630.124 -473.613 655.207C-422.671 680.297 -346.474 701.704 -237.401 705.856L-237.229 704.874C-346.188 700.726 -422.252 679.343 -473.061 654.318C-523.884 629.286 -549.411 600.626 -557.354 581.948L-558.302 582.42ZM-237.401 705.856C-101.061 711.047 14.9581 688.59 129.556 663.233C244.161 637.874 357.321 609.621 488.031 603.167L488.113 602.185C357.291 608.644 244.027 636.924 129.456 662.275C14.8789 687.628 -101.029 710.059 -237.229 704.874L-237.401 705.856ZM488.031 603.167C584.512 598.404 750.995 603.456 915.218 626.549C1079.47 649.644 1241.35 690.773 1328.71 758.102L1329.4 757.302C1241.84 689.822 1079.75 648.672 915.491 625.575C751.211 602.474 584.664 597.418 488.113 602.185L488.031 603.167Z" fill="url(#paint4_linear_368_1900)"/>
<path opacity="0.315789" d="M-263.634 658.177L-263.461 657.711L-263.634 658.177ZM477.663 596.984L477.788 596.515L477.663 596.984ZM-559.061 517.773C-554.722 537.043 -534.723 567.117 -488.928 594.939C-443.121 622.768 -371.483 648.358 -263.808 658.643L-263.461 657.711C-371.016 647.437 -442.519 621.88 -488.202 594.127C-533.897 566.366 -553.736 536.423 -558.02 517.395L-559.061 517.773ZM-263.808 658.643C-129.216 671.5 -9.47997 655.712 109.4 636.96C228.289 618.207 346.296 596.495 477.537 597.453L477.788 596.515C346.429 595.557 228.306 617.291 109.456 636.038C-9.40257 654.786 -129.015 670.553 -263.461 657.711L-263.808 658.643ZM477.537 597.453C574.409 598.16 739 612.579 897.85 644.811C1056.72 677.049 1209.75 727.086 1283.6 798.973L1284.45 798.261C1210.43 726.207 1057.19 676.134 898.301 643.894C739.392 611.65 574.735 597.223 477.788 596.515L477.537 597.453Z" fill="url(#paint5_linear_368_1900)"/>
<path opacity="0.368421" d="M-283.065 610.922L-282.818 610.492L-283.065 610.922ZM466.029 591.887L466.225 591.451L466.029 591.887ZM-549.686 454.592C-548.521 493.378 -493.491 578.746 -283.312 611.352L-282.818 610.492C-492.782 577.919 -547.422 492.693 -548.575 454.329L-549.686 454.592ZM-283.312 611.352C-151.939 631.732 -29.7949 622.786 92.0674 610.844C213.94 598.9 335.501 583.966 465.834 592.322L466.225 591.451C335.764 583.086 214.073 598.037 92.2445 609.976C-29.5946 621.916 -151.601 630.848 -282.818 610.492L-283.312 611.352ZM465.834 592.322C562.036 598.491 722.931 622.116 874.667 663.134C1026.43 704.158 1168.92 762.552 1228.44 838.208L1229.43 837.611C1169.77 761.771 1027.05 703.325 875.273 662.297C723.475 621.262 562.508 597.624 466.225 591.451L465.834 592.322Z" fill="url(#paint6_linear_368_1900)"/>
<path opacity="0.421053" d="M-295.634 563.996L-295.327 563.607L-295.634 563.996ZM453.045 587.334L453.295 586.937L453.045 587.334ZM-530.524 393.448C-536.874 432.074 -498.68 520.091 -295.941 564.384L-295.327 563.607C-497.81 519.371 -535.654 431.54 -529.37 393.309L-530.524 393.448ZM-295.941 564.384C-169.224 592.068 -46.008 590.062 77.4999 585.062C201.02 580.061 324.801 572.068 452.794 587.732L453.295 586.937C325.161 571.255 201.234 579.258 77.7631 584.257C-45.7206 589.256 -168.78 591.254 -295.327 563.607L-295.941 564.384ZM452.794 587.732C547.27 599.295 702.705 631.868 845.665 681.222C988.647 730.583 1119.04 796.694 1163.58 875.289L1164.68 874.826C1120.03 796.03 989.401 729.847 846.398 680.479C703.373 631.102 547.86 598.51 453.295 586.937L452.794 587.732Z" fill="url(#paint7_linear_368_1900)"/>
<path opacity="0.473684" d="M-301.446 517.787L-301.094 517.442L-301.446 517.787ZM438.597 583.254L438.887 582.895L438.597 583.254ZM-502.027 334.884C-515.814 372.925 -494.88 462.63 -301.799 518.132L-301.094 517.442C-493.868 462.028 -514.513 372.555 -500.856 334.872L-502.027 334.884ZM-301.799 518.132C-181.126 552.82 -58.1894 557.78 65.6073 559.778C189.42 561.776 314.058 560.813 438.306 583.614L438.887 582.895C314.484 560.065 189.681 561.03 65.9249 559.033C-57.8472 557.035 -180.606 552.076 -301.094 517.442L-301.799 518.132ZM438.306 583.614C530.018 600.444 678.287 641.611 810.902 698.762C943.537 755.921 1060.41 829.025 1089.49 909.699L1090.66 909.378C1061.51 828.488 944.401 755.289 811.736 698.117C679.051 640.936 530.698 599.743 438.887 582.895L438.306 583.614Z" fill="url(#paint8_linear_368_1900)"/>
<path opacity="0.526316" d="M-300.669 472.661L-300.282 472.358L-300.669 472.661ZM422.643 579.53L422.962 579.206L422.643 579.53ZM-464.736 279.412C-485.802 316.449 -482.372 406.857 -301.057 472.965L-300.282 472.358C-481.233 406.383 -484.46 316.249 -463.571 279.525L-464.736 279.412ZM-301.057 472.965C-187.748 514.277 -66.4318 526.147 56.2996 535.12C179.051 544.094 303.182 550.17 422.324 579.855L422.962 579.206C303.65 549.479 179.333 543.396 56.6461 534.426C-66.0615 525.455 -187.175 513.597 -300.282 472.358L-301.057 472.965ZM422.324 579.855C510.267 601.766 649.746 651.072 770.564 715.39C891.399 779.717 993.466 859.009 1006.76 940.877L1007.99 940.703C994.653 858.605 892.352 779.193 771.478 714.844C650.586 650.487 511.016 601.145 422.962 579.206L422.324 579.855Z" fill="url(#paint9_linear_368_1900)"/>
<path opacity="0.578947" d="M-293.553 428.99L-293.139 428.726L-293.553 428.99ZM405.105 576.091L405.443 575.798L405.105 576.091ZM-419.304 227.513C-447.41 263.138 -461.531 353.258 -293.967 429.254L-293.139 428.726C-460.282 352.921 -446.066 263.113 -418.166 227.748L-419.304 227.513ZM-293.967 429.254C-189.262 476.742 -70.8927 495.395 49.4279 511.244C169.775 527.097 292.037 540.142 404.766 576.384L405.443 575.798C292.529 539.497 170.058 526.43 49.785 510.587C-70.5144 494.741 -188.652 476.115 -293.139 428.726L-293.967 429.254ZM404.766 576.384C487.975 603.135 617.137 660.037 724.833 730.817C832.543 801.606 918.691 886.215 916.064 968.381L917.306 968.354C919.941 885.95 833.57 801.192 725.809 730.37C618.035 659.539 488.775 602.588 405.443 575.798L404.766 576.384Z" fill="url(#paint10_linear_368_1900)"/>
<path opacity="0.631579" d="M-280.414 387.124L-279.98 386.896L-280.414 387.124ZM385.934 572.843L386.286 572.577L385.934 572.843ZM-366.468 179.626C-401.297 213.449 -432.824 302.291 -280.848 387.352L-279.98 386.896C-431.485 302.1 -399.992 213.598 -365.375 179.981L-366.468 179.626ZM-280.848 387.352C-185.893 440.498 -71.7662 465.73 44.8242 488.282C161.449 510.84 280.501 530.712 385.582 573.11L386.286 572.577C281.005 530.097 161.721 510.19 45.1809 487.648C-71.3935 465.099 -185.26 439.911 -279.98 386.896L-280.848 387.352ZM385.582 573.11C463.146 604.406 580.573 668.28 673.969 744.745C767.373 821.216 836.661 910.215 818.14 991.779L819.374 991.899C837.95 910.093 768.458 820.917 674.992 744.394C581.517 667.865 463.984 603.927 386.286 572.577L385.582 573.11Z" fill="url(#paint11_linear_368_1900)"/>
<path opacity="0.684211" d="M-261.634 347.393L-261.185 347.198L-261.634 347.393ZM365.104 569.697L365.465 569.451L365.104 569.697ZM-307.046 136.147C-348.205 167.798 -396.804 254.384 -262.083 347.587L-261.185 347.198C-395.394 254.349 -346.98 168.119 -306.016 136.619L-307.046 136.147ZM-262.083 347.587C-177.92 405.814 -69.2831 437.352 42.2984 466.359C153.923 495.376 268.461 521.854 364.743 569.943L365.465 569.451C268.972 521.256 154.182 494.723 42.651 465.73C-68.9224 436.726 -177.268 405.255 -261.185 347.198L-262.083 347.587ZM364.743 569.943C435.81 605.439 540.218 675.583 618.29 756.892C696.366 838.205 748.041 930.618 713.829 1010.69L715.027 1010.95C749.342 930.643 697.495 838.025 619.348 756.638C541.197 675.246 436.679 605.019 365.465 569.451L364.743 569.943Z" fill="url(#paint12_linear_368_1900)"/>
<path opacity="0.736842" d="M-237.658 310.101L-237.197 309.936L-237.658 310.101ZM342.603 566.553L342.972 566.323L342.603 566.553ZM-241.925 97.4196C-265.459 111.999 -293.489 140.123 -301.151 177.143C-308.816 214.175 -296.096 260.109 -238.118 310.265L-237.197 309.936C-294.935 259.988 -307.588 214.271 -299.958 177.407C-292.326 140.53 -264.396 112.513 -240.979 98.0063L-241.925 97.4196ZM-238.118 310.265C-165.67 372.938 -63.714 410.44 41.6348 445.582C147.036 480.742 255.806 513.534 342.235 566.784L342.972 566.323C256.326 512.939 147.287 480.069 41.988 444.944C-63.3634 409.801 -165 372.394 -237.197 309.936L-238.118 310.265ZM342.235 566.784C406.029 606.089 496.273 681.731 558.168 766.993C620.063 852.254 653.563 947.068 604.034 1024.77L605.169 1025.18C654.846 947.243 621.218 852.199 559.248 766.835C497.278 681.471 406.921 605.723 342.972 566.323L342.235 566.784Z" fill="url(#paint13_linear_368_1900)"/>
<path opacity="0.789474" d="M-208.986 275.531L-208.517 275.395L-208.986 275.531ZM318.44 563.323L318.818 563.103L318.44 563.323ZM-172.056 63.744C-198.275 76.9109 -231.596 103.295 -246.384 139.68C-261.177 176.077 -257.425 222.492 -209.456 275.667L-208.517 275.395C-256.246 222.485 -259.982 176.319 -245.257 140.088C-230.526 103.844 -197.322 77.5523 -171.216 64.4422L-172.056 63.744ZM-209.456 275.667C-149.522 342.105 -55.3637 385.163 42.5972 426.054C140.62 466.972 242.431 505.718 318.063 563.543L318.818 563.103C242.97 505.112 140.879 466.265 42.965 425.393C-55.0111 384.494 -148.825 341.564 -208.517 275.395L-209.456 275.667ZM318.063 563.543C373.885 606.223 448.98 686.534 494.023 774.811C539.063 863.083 554.025 959.26 489.72 1033.74L490.763 1034.29C555.256 959.587 540.219 863.158 495.11 774.75C450.003 686.347 374.799 605.904 318.818 563.103L318.063 563.543Z" fill="url(#paint14_linear_368_1900)"/>
<path opacity="0.842105" d="M-176.172 243.931L-175.694 243.821L-176.172 243.931ZM292.642 559.909L293.032 559.697L292.642 559.909ZM-98.4416 35.3581C-127.059 46.9704 -165.303 71.3265 -187.054 106.677C-208.812 142.038 -214.077 188.424 -176.649 244.041L-175.694 243.821C-212.901 188.534 -207.686 142.424 -186.025 107.221C-164.357 72.0058 -126.241 47.7283 -97.7322 36.1602L-98.4416 35.3581ZM-176.649 244.041C-129.894 313.519 -44.5675 361.662 44.9321 407.854C134.502 454.083 228.241 498.356 292.251 560.122L293.032 559.697C228.817 497.733 134.796 453.333 45.3384 407.162C-44.1891 360.956 -129.157 312.975 -175.694 243.821L-176.649 244.041ZM292.251 560.122C339.494 605.708 398.62 689.805 426.32 780.13C454.017 870.444 450.28 966.933 371.903 1037.38L372.825 1038.06C451.426 967.404 455.148 870.65 427.399 780.165C399.654 689.691 340.43 605.433 293.032 559.697L292.251 560.122Z" fill="url(#paint15_linear_368_1900)"/>
<path opacity="0.894737" d="M-139.812 215.521L-139.327 215.437L-139.812 215.521ZM265.252 556.223L265.662 556.018L265.252 556.223ZM-22.1234 12.4503C-52.827 22.3822 -95.5739 44.4445 -124.05 78.3724C-152.534 112.31 -166.763 158.156 -140.297 215.606L-139.327 215.437C-165.613 158.377 -151.51 112.826 -123.149 79.0349C-94.7804 45.2348 -52.1693 23.2388 -21.5714 13.341L-22.1234 12.4503ZM-140.297 215.606C-107.241 287.361 -31.6869 340.064 48.3722 391.049C88.4285 416.559 129.615 441.639 167.272 468.489C204.924 495.337 239.006 523.926 264.842 556.428L265.662 556.018C239.715 523.376 205.515 494.698 167.812 467.814C130.113 440.933 88.8699 415.819 48.8483 390.331C-31.2483 339.321 -106.444 286.817 -139.327 215.437L-140.297 215.606ZM264.842 556.428C302.992 604.421 345.507 691.382 355.564 782.765C365.621 874.133 343.228 969.88 251.635 1035.52L252.408 1036.3C344.254 970.479 366.697 874.462 356.618 782.891C346.542 691.337 303.952 604.188 265.662 556.018L264.842 556.428Z" fill="url(#paint16_linear_368_1900)"/>
<path opacity="0.947368" d="M-100.544 190.481L-100.052 190.422L-100.544 190.481ZM236.333 552.174L236.77 551.981L236.333 552.174ZM55.8211 -4.85533C23.3663 3.28875 -23.416 22.8165 -58.3044 54.9509C-93.2007 87.0925 -116.239 131.892 -101.037 190.539L-100.052 190.422C-115.141 132.211 -92.3055 87.7118 -57.5545 55.704C-22.7957 23.6891 23.8434 4.21665 56.1937 -3.9012L55.8211 -4.85533ZM-101.037 190.539C-82.0511 263.783 -17.1051 320.466 52.6392 375.686C87.5371 403.317 123.641 430.583 155.893 459.411C188.141 488.236 216.497 518.59 235.896 552.367L236.77 551.981C217.282 518.048 188.82 487.595 156.528 458.731C124.24 429.87 88.0854 402.565 53.2184 374.959C-16.5669 319.706 -81.1737 263.252 -100.052 190.422L-101.037 190.539ZM235.896 552.367C264.539 602.243 289.982 691.118 282.291 782.561C274.602 873.985 233.798 967.942 129.993 1028.06L130.596 1028.92C234.681 968.641 275.597 874.415 283.305 782.767C291.011 691.138 265.528 602.055 236.77 551.981L235.896 552.367Z" fill="url(#paint17_linear_368_1900)"/>
<path d="M-59.0377 168.957L-58.5387 168.925L-59.0377 168.957ZM205.961 547.679L206.43 547.507L205.961 547.679ZM134.295 -16.4916C100.442 -10.2238 50.1359 6.55665 9.21703 36.5459C-31.7103 66.5413 -63.3003 109.798 -59.5367 168.989L-58.5387 168.925C-62.2735 110.189 -30.9512 67.2248 9.80816 37.3525C50.5759 7.47405 100.731 -9.26027 134.477 -15.5084L134.295 -16.4916ZM-59.5367 168.989C-54.8366 242.908 -1.21836 302.948 57.4505 361.8C86.8073 391.249 117.434 420.403 143.927 450.893C170.417 481.38 192.74 513.167 205.492 547.852L206.43 547.507C193.619 512.659 171.208 480.765 144.682 450.237C118.159 419.712 87.4893 390.517 58.1587 361.094C-0.547325 302.204 -53.8659 242.416 -58.5387 168.925L-59.5367 168.989ZM205.492 547.852C224.32 599.067 232.415 688.888 207.062 779.394C181.714 869.879 122.943 961.019 8.06464 1014.95L8.4896 1015.86C123.675 961.78 182.613 870.378 208.025 779.663C233.431 688.969 225.336 598.932 206.43 547.507L205.492 547.852Z" fill="url(#paint18_linear_368_1900)"/>
</g>
<defs>
<linearGradient id="paint0_linear_368_1900" x1="1426" y1="624.411" x2="1398.68" y2="468.631" gradientUnits="userSpaceOnUse">
<stop stop-color="#3658FF"/>
<stop offset="1" stop-color="#FF5D24"/>
</linearGradient>
<linearGradient id="paint1_linear_368_1900" x1="1415.82" y1="666.871" x2="1398.14" y2="512.774" gradientUnits="userSpaceOnUse">
<stop stop-color="#3658FF"/>
<stop offset="1" stop-color="#FF5D24"/>
</linearGradient>
<linearGradient id="paint2_linear_368_1900" x1="1395.08" y1="709.69" x2="1386.4" y2="556.628" gradientUnits="userSpaceOnUse">
<stop stop-color="#3658FF"/>
<stop offset="1" stop-color="#FF5D24"/>
</linearGradient>
<linearGradient id="paint3_linear_368_1900" x1="1363.77" y1="752.266" x2="1363.77" y2="599.552" gradientUnits="userSpaceOnUse">
<stop stop-color="#3658FF"/>
<stop offset="1" stop-color="#FF5D24"/>
</linearGradient>
<linearGradient id="paint4_linear_368_1900" x1="1321.99" y1="794.006" x2="1330.68" y2="640.944" gradientUnits="userSpaceOnUse">
<stop stop-color="#3658FF"/>
<stop offset="1" stop-color="#FF5D24"/>
</linearGradient>
<linearGradient id="paint5_linear_368_1900" x1="1269.97" y1="834.324" x2="1287.65" y2="680.228" gradientUnits="userSpaceOnUse">
<stop stop-color="#3658FF"/>
<stop offset="1" stop-color="#FF5D24"/>
</linearGradient>
<linearGradient id="paint6_linear_368_1900" x1="1208.04" y1="872.628" x2="1235.36" y2="716.846" gradientUnits="userSpaceOnUse">
<stop stop-color="#3658FF"/>
<stop offset="1" stop-color="#FF5D24"/>
</linearGradient>
<linearGradient id="paint7_linear_368_1900" x1="1136.63" y1="908.406" x2="1174.61" y2="750.369" gradientUnits="userSpaceOnUse">
<stop stop-color="#3658FF"/>
<stop offset="1" stop-color="#FF5D24"/>
</linearGradient>
<linearGradient id="paint8_linear_368_1900" x1="1056.27" y1="941.153" x2="1106.36" y2="780.428" gradientUnits="userSpaceOnUse">
<stop stop-color="#3658FF"/>
<stop offset="1" stop-color="#FF5D24"/>
</linearGradient>
<linearGradient id="paint9_linear_368_1900" x1="967.633" y1="970.323" x2="1031.8" y2="806.726" gradientUnits="userSpaceOnUse">
<stop stop-color="#3658FF"/>
<stop offset="1" stop-color="#FF5D24"/>
</linearGradient>
<linearGradient id="paint10_linear_368_1900" x1="871.442" y1="995.496" x2="952.239" y2="829.274" gradientUnits="userSpaceOnUse">
<stop stop-color="#3658FF"/>
<stop offset="1" stop-color="#FF5D24"/>
</linearGradient>
<linearGradient id="paint11_linear_368_1900" x1="768.509" y1="1016.27" x2="869.162" y2="848.388" gradientUnits="userSpaceOnUse">
<stop stop-color="#3658FF"/>
<stop offset="1" stop-color="#FF5D24"/>
</linearGradient>
<linearGradient id="paint12_linear_368_1900" x1="659.725" y1="1032.28" x2="784.105" y2="864.887" gradientUnits="userSpaceOnUse">
<stop stop-color="#3658FF"/>
<stop offset="1" stop-color="#FF5D24"/>
</linearGradient>
<linearGradient id="paint13_linear_368_1900" x1="546.044" y1="1043.23" x2="698.413" y2="880.274" gradientUnits="userSpaceOnUse">
<stop stop-color="#3658FF"/>
<stop offset="1" stop-color="#FF5D24"/>
</linearGradient>
<linearGradient id="paint14_linear_368_1900" x1="428.47" y1="1048.87" x2="612.768" y2="896.871" gradientUnits="userSpaceOnUse">
<stop stop-color="#3658FF"/>
<stop offset="1" stop-color="#FF5D24"/>
</linearGradient>
<linearGradient id="paint15_linear_368_1900" x1="308.056" y1="1049" x2="526.4" y2="917.587" gradientUnits="userSpaceOnUse">
<stop stop-color="#3658FF"/>
<stop offset="1" stop-color="#FF5D24"/>
</linearGradient>
<linearGradient id="paint16_linear_368_1900" x1="185.882" y1="1043.51" x2="436.266" y2="944.921" gradientUnits="userSpaceOnUse">
<stop stop-color="#3658FF"/>
<stop offset="1" stop-color="#FF5D24"/>
</linearGradient>
<linearGradient id="paint17_linear_368_1900" x1="63.0471" y1="1032.31" x2="337.098" y2="978.953" gradientUnits="userSpaceOnUse">
<stop stop-color="#3658FF"/>
<stop offset="1" stop-color="#FF5D24"/>
</linearGradient>
<linearGradient id="paint18_linear_368_1900" x1="-59.3412" y1="1015.4" x2="223.54" y2="1015.4" gradientUnits="userSpaceOnUse">
<stop stop-color="#3658FF"/>
<stop offset="1" stop-color="#FF5D24"/>
</linearGradient>
</defs>
</svg>
