<svg width="375" height="202" viewBox="0 0 375 202" fill="none" xmlns="http://www.w3.org/2000/svg">
<g opacity="0.25">
<path d="M374 201C249.09 201 124.18 201 -0.729619 201" stroke="url(#paint0_linear_1204_3990)" stroke-miterlimit="10"/>
<path d="M374 195.391C310.749 195.432 247.529 194.429 184.293 193.294C156.933 192.801 129.385 192.963 102.027 194.003C67.7809 195.304 33.5192 194.079 -0.719157 195.391" stroke="url(#paint1_linear_1204_3990)" stroke-miterlimit="10"/>
<path d="M374 189.863C356.078 189.863 338.151 190.063 320.232 189.965C304.217 189.878 288.239 187.997 272.23 187.673C242.407 187.07 212.59 187.771 182.771 187.058C156.303 186.425 129.562 184.747 103.112 187.307C87.6962 188.815 72.4389 189.501 57.01 190.123C37.753 190.9 18.5195 188.792 -0.729619 189.863" stroke="url(#paint2_linear_1204_3990)" stroke-miterlimit="10"/>
<path d="M374 184.412C356.336 184.412 338.624 184.842 320.965 184.378C304.371 183.941 287.872 180.876 271.29 180.088C241.411 178.667 211.765 182.727 181.917 182.003C155.652 181.377 129.76 176.295 103.466 180.842C88.0969 183.5 73.204 185.581 57.723 186.188C38.2058 186.942 18.7849 183.274 -0.729619 184.412" stroke="url(#paint3_linear_1204_3990)" stroke-miterlimit="10"/>
<path d="M374 179.066C356.656 179.066 339.184 179.752 321.853 178.806C304.521 177.859 287.437 173.505 270.158 172.099C254.451 170.821 238.965 171.164 223.34 173.946C209.338 176.442 195.735 178.244 181.618 177.972C169.244 177.731 157.651 175.009 145.431 172.472C131.446 169.565 117.047 170.922 103.193 174.625C87.9434 178.704 73.5605 182.606 57.9884 183.051C38.3464 183.616 18.9255 178.089 -0.729619 179.066" stroke="url(#paint4_linear_1204_3990)" stroke-miterlimit="10"/>
<path d="M374 173.796C357.03 173.796 339.803 174.719 322.862 173.241C304.761 171.666 286.966 165.958 268.904 163.816C253.395 161.954 237.784 163.231 222.518 167.609C208.89 171.462 195.715 174.904 181.785 174.746C168.885 174.599 157.214 169.867 144.691 166.041C130.478 161.698 116.412 163.345 102.415 168.612C87.4125 174.267 73.5631 180.359 57.8843 180.521C38.2084 180.729 18.9801 173.162 -0.729619 173.799" stroke="url(#paint5_linear_1204_3990)" stroke-miterlimit="10"/>
<path d="M374 168.608C357.431 168.585 340.456 169.739 323.945 167.722C304.99 165.426 286.472 158.342 267.587 155.383C251.739 152.902 237.094 155.209 221.808 161.441C208.721 166.78 196.045 172.126 182.318 172.137C168.744 172.137 156.67 165.03 143.788 159.843C129.114 153.935 115.582 155.654 101.244 162.791C86.65 170.052 73.2508 178.625 57.4862 178.437C37.8389 178.18 18.9723 168.435 -0.729619 168.608" stroke="url(#paint6_linear_1204_3990)" stroke-miterlimit="10"/>
<path d="M374 163.503C357.85 163.469 341.13 164.751 325.077 162.271C305.253 159.209 286.043 150.757 266.289 146.942C250.22 143.839 236.271 147.157 221.233 155.458C208.825 162.308 196.638 169.731 183.135 169.965C168.864 170.214 155.998 160.453 142.8 153.882C127.558 146.293 114.544 147.907 99.8151 157.155C85.7887 165.961 72.7096 177.268 56.8773 176.634C37.3003 175.85 18.9307 163.865 -0.724366 163.503" stroke="url(#paint7_linear_1204_3990)" stroke-miterlimit="10"/>
<path d="M374 158.482C358.264 158.436 341.804 159.801 326.186 156.91C305.513 153.083 285.608 143.304 265.032 138.636C248.637 134.915 235.48 139.175 220.759 149.664C209.116 157.958 197.422 167.537 184.106 168.042C169.137 168.604 155.239 155.926 141.735 148.133C134.662 144.073 127.207 140.269 119.496 141.143C111.949 142.003 104.804 146.606 98.2042 151.699C84.9013 161.943 71.9419 176.042 56.1122 174.964C36.621 173.633 18.8656 159.417 -0.732224 158.493" stroke="url(#paint8_linear_1204_3990)" stroke-miterlimit="10"/>
<path d="M373.988 153.547C358.634 153.49 342.443 154.889 327.25 151.662C305.789 147.115 285.263 136.073 263.924 130.598C247.155 126.293 234.757 131.417 220.434 144.065C209.575 153.656 198.369 165.377 185.173 166.172C169.56 167.111 154.466 151.451 140.705 142.587C133.497 137.943 125.547 133.045 117.496 134.123C109.949 135.134 102.879 140.653 96.568 146.376C83.9859 157.792 71.1592 174.738 55.2905 173.226C35.8826 171.371 18.8116 154.994 -0.734213 153.547" stroke="url(#paint9_linear_1204_3990)" stroke-miterlimit="10"/>
<path d="M373.984 148.699C358.998 148.631 343.046 150.029 328.241 146.565C306.08 141.373 285.002 129.166 263.002 122.961C254.625 120.601 246.686 119.236 238.48 123.375C231.795 126.75 225.914 132.672 220.241 138.659C210.092 149.362 199.379 163.089 186.214 164.163C170.027 165.487 153.721 146.987 139.737 137.219C132.403 132.095 123.964 126.161 115.606 127.417C108.025 128.548 101.048 134.908 95.0085 141.189C83.0953 153.57 70.4221 173.166 54.4675 171.27C35.1299 168.966 18.7667 150.561 -0.74528 148.68" stroke="url(#paint10_linear_1204_3990)" stroke-miterlimit="10"/>
<path d="M373.982 143.93C359.31 143.858 343.574 145.249 329.11 141.626C306.387 135.934 284.908 122.678 262.354 115.888C253.949 113.359 246.032 111.79 237.869 116.488C231.246 120.322 225.602 126.901 220.205 133.475C210.652 145.098 200.386 160.548 187.156 161.849C178.701 162.682 170.199 156.292 162.897 150.882C154.796 144.88 147.007 138.041 138.909 132.032C131.467 126.512 122.619 119.741 113.979 121.155C106.344 122.403 99.4766 129.411 93.6527 136.16C82.2859 149.355 69.8521 171.168 53.744 168.959C34.4402 166.32 18.7614 146.082 -0.74793 143.915" stroke="url(#paint11_linear_1204_3990)" stroke-miterlimit="10"/>
<path d="M373.979 139.247C359.57 139.175 344.001 140.57 329.816 136.88C306.692 130.866 284.963 116.706 262.031 109.494C253.665 106.855 245.689 105.17 237.609 110.203C230.994 114.323 225.519 121.468 220.317 128.495C211.162 140.857 201.283 157.588 187.892 159.032C179.206 159.96 170.457 153.038 163.04 147.315C154.669 140.849 146.646 133.49 138.274 127.017C130.728 121.177 121.62 113.875 112.748 115.364C105.033 116.661 98.2822 124.107 92.617 131.243C81.6015 145.113 69.5477 168.491 53.1819 166.135C33.8781 163.356 18.7979 141.494 -0.750536 139.262" stroke="url(#paint12_linear_1204_3990)" stroke-miterlimit="10"/>
<path d="M373.974 134.648C359.768 134.587 344.295 136.009 330.318 132.348C306.999 126.241 285.21 111.338 262.102 103.93C253.85 101.291 245.725 99.5714 237.76 104.638C231.09 108.88 225.69 116.408 220.585 123.733C211.576 136.68 201.989 154.082 188.316 155.485C179.437 156.397 170.665 149.404 163.144 143.421C154.596 136.635 146.425 128.898 137.879 122.105C130.236 116.028 121.089 108.608 112.035 110.086C104.229 111.36 97.5928 118.942 91.9978 126.384C81.0682 140.917 69.5896 164.887 52.8412 162.553C33.488 159.858 18.8631 136.65 -0.765911 134.655" stroke="url(#paint13_linear_1204_3990)" stroke-miterlimit="10"/>
<path d="M373.972 130.124C359.818 129.996 344.394 131.594 330.477 127.862C307.317 121.637 285.806 106.29 262.88 98.7082C254.651 95.99 246.532 94.3613 238.572 99.3679C231.806 103.632 226.299 111.251 221.118 118.667C211.943 131.801 202.254 149.426 188.402 151.07C179.461 152.129 170.741 145.223 163.186 139.145C154.625 132.254 146.469 124.367 137.91 117.472C130.231 111.281 121.131 103.964 112.009 105.547C104.151 106.912 97.5538 114.508 91.9485 122.033C80.9746 136.77 69.7145 160.424 52.8334 158.226C33.4256 155.707 18.9516 131.866 -0.758104 130.124" stroke="url(#paint14_linear_1204_3990)" stroke-miterlimit="10"/>
<path d="M373.969 125.701C359.755 125.468 344.378 127.485 330.412 123.492C307.662 116.989 286.636 101.388 264.129 93.5392C255.801 90.6326 247.896 89.1208 239.821 94.1613C232.933 98.4554 227.231 105.995 221.86 113.347C212.38 126.338 202.283 144.141 188.431 146.384C179.544 147.824 170.792 140.898 163.303 134.825C154.846 127.967 146.812 120.073 138.358 113.207C130.694 106.983 121.594 99.7221 112.486 101.603C104.65 103.221 97.957 110.927 92.2736 118.369C81.2425 132.808 69.6571 156.016 52.9791 153.882C33.5244 151.39 19.0036 127.413 -0.752969 125.701" stroke="url(#paint15_linear_1204_3990)" stroke-miterlimit="10"/>
<path d="M373.963 121.354C359.669 121.075 344.334 123.654 330.281 119.428C307.995 112.725 287.518 96.9209 265.484 88.8907C257.087 85.8219 249.366 84.4534 241.2 89.4298C234.205 93.6937 228.274 101.038 222.703 108.333C212.905 121.151 202.342 138.889 188.503 141.675C179.697 143.451 171.013 136.668 163.592 130.621C155.277 123.835 147.413 115.99 139.104 109.207C131.464 102.972 122.449 95.9181 113.383 98.067C105.54 99.9294 98.727 107.669 92.9161 115.032C81.7392 129.17 69.7739 151.797 53.2234 149.694C33.6828 147.213 19.0813 123.081 -0.76111 121.377" stroke="url(#paint16_linear_1204_3990)" stroke-miterlimit="10"/>
<path d="M373.958 117.09C359.565 116.823 344.238 120.084 330.086 115.642C308.31 108.815 288.429 92.8489 266.913 84.6793C258.482 81.4785 250.907 80.2759 242.673 85.109C235.553 89.2862 229.401 96.4191 223.614 103.582C213.408 116.17 202.475 133.652 188.597 136.951C179.895 139.017 171.365 132.528 164.016 126.523C155.884 119.872 148.22 112.095 140.093 105.437C132.482 99.1976 123.642 92.4945 114.63 94.881C106.75 96.9733 99.7968 104.683 93.8116 111.944C82.4109 125.769 70.0188 147.703 53.5567 145.61C33.8965 143.111 19.1831 118.817 -0.779028 117.101" stroke="url(#paint17_linear_1204_3990)" stroke-miterlimit="10"/>
<path d="M373.956 112.909C359.445 112.698 344.123 116.743 329.844 112.11C308.615 105.222 289.366 89.1127 268.404 80.8978C259.978 77.5877 252.507 76.5585 244.232 81.1806C236.984 85.2296 230.617 92.1137 224.592 99.058C213.923 111.36 202.658 128.423 188.727 132.197C171.917 136.755 154.929 113.034 141.306 101.852C133.723 95.6236 125.122 89.3842 116.189 91.9968C108.247 94.3229 101.147 101.957 94.9566 109.109C83.2671 122.609 70.4119 143.759 53.9914 141.656C34.1854 139.122 19.3315 114.651 -0.773766 112.909" stroke="url(#paint18_linear_1204_3990)" stroke-miterlimit="10"/>
<path d="M373.951 108.815C359.313 108.698 343.988 113.611 329.561 108.815C308.901 101.924 290.316 85.7389 269.937 77.4976C261.54 74.1046 254.141 73.2601 245.843 77.6145C238.462 81.4939 231.874 88.0726 225.612 94.7983C214.48 106.749 202.879 123.243 188.878 127.484C172.323 132.491 156.066 109.456 142.696 98.4552C135.303 92.3817 126.684 86.2592 117.995 89.3883C109.928 92.2912 102.821 99.3299 96.2786 106.493C84.2534 119.65 70.9037 139.944 54.4832 137.818C34.5081 135.236 19.4955 110.58 -0.778978 108.789" stroke="url(#paint19_linear_1204_3990)" stroke-miterlimit="10"/>
<path d="M373.945 104.8C359.17 104.8 343.829 110.655 329.241 105.683C309.169 98.8401 291.265 82.5875 271.488 74.3914C237.138 60.1445 219.219 112.74 189.045 122.806C172.781 128.239 157.346 106.033 144.218 95.2548C136.859 89.2227 128.573 83.7298 119.993 87.0361C111.825 90.1841 104.551 97.0681 97.7463 104.095C85.3463 116.914 71.4787 136.284 55.0245 134.124C34.8645 131.485 19.675 106.636 -0.786832 104.8" stroke="url(#paint20_linear_1204_3990)" stroke-miterlimit="10"/>
<path d="M373.94 100.872C359.021 101.03 343.655 107.847 328.892 102.727C309.419 95.9749 292.2 79.6846 273.039 71.5602C239.399 57.3019 218.912 107.375 189.225 118.161C173.241 123.975 158.734 102.753 145.844 92.1822C138.516 86.1728 130.592 81.4037 122.135 84.8608C113.857 88.2539 106.399 94.9645 99.3208 101.845C86.5227 114.286 72.1268 132.725 55.6023 130.516C35.2446 127.798 19.8651 102.768 -0.794478 100.872" stroke="url(#paint21_linear_1204_3990)" stroke-miterlimit="10"/>
<path d="M373.935 97.0264C358.868 97.3468 343.47 105.158 328.522 99.9104C309.645 93.2827 293.131 76.9736 274.564 68.9585C241.637 54.7417 218.615 102.078 189.409 113.584C173.712 119.767 160.191 99.59 147.528 89.2262C140.226 83.2507 132.695 79.2469 124.368 82.8171C115.975 86.4326 108.325 92.9962 100.965 99.7069C87.7561 111.771 72.8294 129.249 56.2216 126.991C35.6635 124.189 20.081 98.9717 -0.784134 97.0113" stroke="url(#paint22_linear_1204_3990)" stroke-miterlimit="10"/>
<path d="M373.93 93.2638C358.717 93.7502 343.275 102.561 328.13 97.2035C309.836 90.7266 294.003 74.4099 276.034 66.5306C243.808 52.3967 218.323 96.8906 189.597 109.087C174.183 115.631 161.677 96.5287 149.23 86.3647C141.959 80.4269 134.795 77.211 126.606 80.9094C118.096 84.7549 110.245 91.1526 102.61 97.6974C88.9871 109.384 73.5347 125.897 56.8228 123.582C36.0487 120.702 20.2736 95.3072 -0.79973 93.2638" stroke="url(#paint23_linear_1204_3990)" stroke-miterlimit="10"/>
<path d="M373.925 89.588C358.571 90.2365 343.077 100.023 327.757 94.5758C310.025 88.2685 294.862 71.9556 277.466 64.2308C245.876 50.2063 218.029 91.8048 189.768 104.683C174.636 111.582 163.147 93.5541 150.903 83.571C143.664 77.671 136.851 75.2431 128.818 79.047C120.191 83.1262 112.142 89.3769 104.234 95.7407C90.2101 107.028 74.2425 122.61 57.4161 120.246C36.4338 117.286 20.4636 91.6841 -0.815317 89.5956" stroke="url(#paint24_linear_1204_3990)" stroke-miterlimit="10"/>
<path d="M373.919 85.9913C358.412 86.7944 342.882 97.5201 327.375 91.997C310.176 85.8707 295.653 69.5691 278.798 62.0102C247.815 48.1139 217.74 86.8245 189.953 100.385C175.073 107.646 164.612 90.6172 152.537 80.8339C145.321 74.9904 138.865 73.2939 130.967 77.2072C122.229 81.5201 113.985 87.6464 105.819 93.8255C91.4097 104.725 74.9502 119.39 58.0067 116.966C36.8267 113.931 20.6691 88.144 -0.805012 85.9913" stroke="url(#paint25_linear_1204_3990)" stroke-miterlimit="10"/>
<path d="M373.914 82.4812C358.261 83.4162 342.687 95.0241 327.005 89.4444C310.299 83.5029 296.376 67.2013 280.026 59.8196C264.165 52.6565 247.292 60.7432 232.477 69.3841C218.191 77.7197 204.609 88.6527 190.109 96.2116C175.417 103.872 166.046 87.6461 154.062 78.1155C138.149 65.4671 121.851 81.5085 107.286 91.91C92.5287 102.436 75.606 116.227 58.5506 113.75C37.1832 110.651 20.8487 84.6829 -0.815392 82.4774" stroke="url(#paint26_linear_1204_3990)" stroke-miterlimit="10"/>
<path d="M373.909 79.051C358.111 80.0953 342.533 92.5062 326.652 86.8851C310.39 81.1245 297.022 64.8342 281.111 57.6146C265.396 50.4742 248.078 58.2291 233.193 66.1424C218.617 73.8936 204.745 84.1292 190.247 92.182C175.75 100.235 167.282 84.8041 155.452 75.4091C139.901 63.0623 122.924 80.3102 108.611 89.9803C93.5437 100.159 76.1916 113.113 59.0425 110.602C37.5086 107.447 21.0127 81.3055 -0.810088 79.051" stroke="url(#paint27_linear_1204_3990)" stroke-miterlimit="10"/>
<path d="M373.904 75.7068C357.957 76.8379 342.393 89.9425 326.326 84.2874C310.452 78.704 297.576 62.4213 282.087 55.3411C266.492 48.2346 248.778 55.6729 233.825 62.9302C218.992 70.1347 204.841 79.7559 190.367 88.3025C183.539 92.3327 178.534 92.4986 171.932 87.2997C166.566 83.0735 162.028 76.9359 156.67 72.6795C149.521 66.9943 143.828 67.1526 136.341 71.3788C127.345 76.4646 118.58 82.3119 109.753 87.9934C94.4336 97.8256 76.7042 110.025 59.4771 107.492C37.7948 104.303 21.161 77.9877 -0.817953 75.7068" stroke="url(#paint28_linear_1204_3990)" stroke-miterlimit="10"/>
<path d="M373.899 72.4416C357.803 73.5726 342.286 87.303 326.032 81.6291C310.473 76.1965 298.037 59.8535 282.86 52.9543C267.345 45.9006 249.306 53.0297 234.294 59.7404C219.281 66.451 204.867 75.5745 190.44 84.6225C183.773 88.8035 178.899 89.3954 172.354 84.2229C167.165 80.1211 162.835 74.0665 157.659 69.9345C150.549 64.2569 144.944 64.8601 137.587 69.2257C128.547 74.5905 119.647 80.4265 110.654 85.9496C95.1414 95.4727 77.0659 106.994 59.8128 104.453C38.0108 101.245 21.2651 74.7715 -0.820554 72.4755" stroke="url(#paint29_linear_1204_3990)" stroke-miterlimit="10"/>
<path d="M373.893 69.2679C357.647 70.3687 342.218 84.5742 325.782 78.8852C310.455 73.5732 298.406 57.1057 283.44 50.4102C267.946 43.4696 249.712 50.2745 234.606 56.5063C219.377 62.7834 204.838 71.5261 190.471 81.0718C183.939 85.4074 179.12 86.3197 172.625 81.1472C167.576 77.1321 163.42 71.1152 158.387 67.0624C151.312 61.3659 145.712 62.2895 138.467 66.8211C129.414 72.4762 120.41 78.3272 111.278 83.7335C95.6645 92.9813 77.2871 103.907 60.047 101.385C38.1591 98.1802 21.3327 71.5563 -0.846567 69.2679" stroke="url(#paint30_linear_1204_3990)" stroke-miterlimit="10"/>
<path d="M373.888 66.1729C357.494 67.172 342.198 81.7205 325.579 76.0165C310.411 70.8101 298.622 54.2709 283.836 47.6545C268.391 40.7478 249.918 47.4057 234.772 53.2493C219.388 59.1871 204.784 67.6922 190.484 77.7544C184.059 82.2785 179.214 83.3718 172.752 78.1654C167.808 74.1805 163.782 68.1597 158.845 64.1371C151.796 58.3916 146.118 59.4773 138.959 64.2163C129.924 70.1955 120.852 76.0881 111.619 81.4038C95.9585 90.418 77.3678 100.853 60.1979 98.369C38.258 95.1984 21.3899 68.4312 -0.841435 66.1729" stroke="url(#paint31_linear_1204_3990)" stroke-miterlimit="10"/>
<path d="M373.88 63.1559C357.403 64.0532 342.213 78.7601 325.493 73.0032C310.377 67.8006 298.659 51.2766 283.919 44.6979C268.49 37.8138 249.933 44.6074 234.783 50.3265C219.343 56.155 204.786 64.5961 190.468 74.7035C184.067 79.2276 179.154 80.1701 172.736 74.9976C167.826 71.0391 163.826 65.0711 158.916 61.1013C151.89 55.4236 146.107 56.4792 139.016 61.3539C130.02 67.5367 120.938 73.4745 111.666 78.7374C96.0808 87.5857 77.2481 97.9043 60.2109 95.3256C38.3022 92.0155 21.3249 65.7007 -0.849205 63.1672" stroke="url(#paint32_linear_1204_3990)" stroke-miterlimit="10"/>
<path d="M373.875 60.189C357.361 61.041 342.216 75.8459 325.457 70.0212C310.364 64.7733 298.586 48.3888 283.836 41.8516C268.407 35.0127 249.892 42.1042 234.765 47.861C219.375 53.7196 204.88 62.1456 190.463 71.7743C176.817 80.8864 170.054 66.8732 158.814 58.1343C151.788 52.6715 145.969 53.6668 138.943 58.5603C129.986 64.7997 120.92 70.7224 111.65 75.9251C96.1563 84.6188 77.079 94.9863 60.1641 92.189C38.3491 88.5773 21.1636 63.3332 -0.862189 60.2455" stroke="url(#paint33_linear_1204_3990)" stroke-miterlimit="10"/>
<path d="M373.87 57.2676C357.306 58.0895 342.198 73.0037 325.387 67.13C310.293 61.852 298.469 45.6408 283.711 39.1639C268.282 32.3779 249.821 39.7407 234.718 45.5164C219.388 51.3788 204.948 59.7671 190.448 68.9095C176.916 77.4448 169.91 63.6804 158.663 55.3374C151.637 50.1121 145.766 51.0772 138.803 55.9783C129.887 62.2516 120.847 68.1291 111.58 73.2412C96.1485 81.7577 76.8811 92.016 60.1068 89.0301C38.4011 85.1696 21.0048 61.0226 -0.859667 57.4448" stroke="url(#paint34_linear_1204_3990)" stroke-miterlimit="10"/>
<path d="M373.865 54.3983C357.244 55.1975 342.158 70.2324 325.285 64.3323C310.21 59.0618 298.315 43.0354 283.547 36.6263C268.118 29.9534 249.717 37.501 234.642 43.2804C219.385 49.124 204.976 57.4482 190.424 66.0853C176.989 74.0514 169.744 60.5924 158.468 52.6376C151.424 47.6725 145.509 48.6377 138.597 53.5349C129.731 59.8196 120.709 65.6292 111.458 70.6207C96.0652 78.9336 76.6808 88.9392 60.0209 85.7988C38.4219 81.7309 20.8252 58.7187 -0.872645 54.6999" stroke="url(#paint35_linear_1204_3990)" stroke-miterlimit="10"/>
<path d="M373.86 51.5786C357.169 52.3703 342.112 67.522 325.153 61.6182C310.091 56.3778 298.123 40.5324 283.342 34.2515C267.918 27.6955 249.611 35.4127 234.541 41.1733C219.367 46.9792 205.002 55.2167 190.39 63.3335C177.056 70.7416 169.556 57.637 158.229 50.1121C151.161 45.4146 145.199 46.4137 138.332 51.2958C129.535 57.6124 120.508 63.233 111.291 68.1328C95.9117 76.2157 76.4726 85.8519 59.909 82.5682C38.4506 78.3345 20.6379 56.4834 -0.870043 52.0838" stroke="url(#paint36_linear_1204_3990)" stroke-miterlimit="10"/>
<path d="M373.852 48.8117C357.085 49.6034 342.034 64.8871 324.991 58.9908C309.942 53.7919 297.894 38.1576 283.094 32.0049C267.676 25.5959 249.447 33.4338 234.406 39.168C219.312 44.9135 204.987 53.0379 190.341 60.627C177.106 67.4885 169.335 54.7721 157.94 47.7033C150.838 43.2962 144.832 44.3518 138.004 49.2114C129.26 55.4861 120.266 61.0013 111.07 65.7279C95.6827 73.5582 76.2462 82.6704 59.7711 79.3C38.4505 74.938 20.4349 54.282 -0.88567 49.5393" stroke="url(#paint37_linear_1204_3990)" stroke-miterlimit="10"/>
<path d="M373.847 46.105C356.994 46.9004 341.945 62.3161 324.806 56.465C309.768 51.3302 297.633 35.9221 282.829 29.9165C267.418 23.6658 249.285 31.5979 234.257 37.2831C219.276 42.9381 204.955 50.9344 190.294 57.9843C177.153 64.3067 169.096 52.0239 157.622 45.4339C150.482 41.3321 144.429 42.4669 137.629 47.3189C128.945 53.5337 119.992 58.9248 110.825 63.4584C95.4121 70.9985 76.0354 79.5037 59.6306 76.0541C38.4584 71.6054 20.2476 52.1672 -0.880371 47.1342" stroke="url(#paint38_linear_1204_3990)" stroke-miterlimit="10"/>
<path d="M373.841 43.4504C356.895 44.2647 341.833 59.8274 324.596 54.0065C309.567 48.9622 297.344 33.7991 282.524 27.9556C267.124 21.8858 249.09 29.8745 234.096 35.4956C219.219 41.0753 204.914 48.8905 190.247 55.3976C177.197 61.1846 168.838 49.3656 157.279 43.2807C150.094 39.5107 143.994 40.7322 137.215 45.5428C128.589 51.6838 119.673 56.931 110.534 61.2449C95.0711 68.4947 75.8038 76.2798 59.4588 72.7699C38.4401 68.2459 20.0419 50.0706 -0.888268 44.7774" stroke="url(#paint39_linear_1204_3990)" stroke-miterlimit="10"/>
<path d="M373.836 40.8564C356.788 41.6934 341.729 57.4069 324.364 51.6651C309.346 46.6962 297.027 31.7895 282.191 26.127C266.804 20.257 248.882 28.2721 233.908 33.8216C219.135 39.2994 204.843 46.9187 190.19 52.8753C177.228 58.1533 168.549 46.8169 156.899 41.2561C149.665 37.8065 143.518 39.1599 136.755 43.8951C128.188 49.943 119.315 55.0299 110.211 59.1109C94.6886 66.0289 75.5774 73.011 59.2793 69.4597C38.4167 64.9356 19.8442 48.0082 -0.888221 42.4964" stroke="url(#paint40_linear_1204_3990)" stroke-miterlimit="10"/>
<path d="M373.831 38.327C356.677 39.1941 341.602 55.0584 324.127 49.3958C309.102 44.5438 296.686 29.8935 281.832 24.4269C266.46 18.7719 248.663 26.7832 233.69 32.2497C219.026 37.6107 204.745 45.0113 190.107 50.4137C177.233 55.1677 168.216 44.3591 156.47 39.3487C149.183 36.2422 142.992 37.7276 136.234 42.4401C127.73 48.3819 118.901 53.291 109.837 57.1168C94.254 63.6805 75.3354 69.803 59.0737 66.2101C38.3751 61.6597 19.636 46.0518 -0.898686 40.3515" stroke="url(#paint41_linear_1204_3990)" stroke-miterlimit="10"/>
<path d="M373.826 35.8734C356.565 36.7669 341.471 52.7819 323.844 47.2136C308.841 42.4709 296.322 28.1071 281.452 22.8479C266.099 17.4153 248.424 25.4078 233.484 30.765C218.927 35.9978 204.656 43.1533 190.049 48.0053C177.257 52.2579 167.883 41.9733 156.045 37.5397C148.707 34.7838 142.467 36.4087 135.706 41.0873C127.266 46.9102 118.484 51.6278 109.464 55.1835C93.7804 61.3663 75.096 66.5312 58.8603 62.9459C38.323 58.4219 19.4356 44.126 -0.903893 38.2636" stroke="url(#paint42_linear_1204_3990)" stroke-miterlimit="10"/>
<path d="M373.821 33.4601C356.435 34.4064 341.313 50.5761 323.56 45.1133C308.56 40.5025 295.931 26.4253 281.052 21.3847C265.711 16.1934 248.169 24.1406 233.25 29.4074C218.802 34.5082 204.542 41.3923 189.974 45.6939C177.257 49.4639 167.514 39.7335 155.587 35.8918C148.194 33.4978 141.907 35.2961 135.136 39.9107C126.761 45.603 118.027 50.1164 109.056 53.3885C93.2756 59.1642 74.8513 63.3376 58.6365 59.7485C38.2605 55.2434 19.2378 42.3122 -0.909105 36.314" stroke="url(#paint43_linear_1204_3990)" stroke-miterlimit="10"/>
<path d="M373.815 31.1262C356.305 32.1214 341.157 48.4457 323.256 43.1035C308.269 38.6285 295.539 24.8491 280.633 20.0385C265.313 15.0922 247.906 22.9829 233.011 28.1328C218.667 33.0903 204.425 39.6841 189.904 43.4353C177.252 46.7039 167.131 37.5616 155.114 34.293C147.669 32.2685 141.337 34.244 134.543 38.817C126.233 44.3678 117.55 48.6632 108.632 51.6351C92.7578 56.9735 74.6146 60.1101 58.4075 56.5361C38.1904 52.0837 19.0479 40.5173 -0.914232 34.3985" stroke="url(#paint44_linear_1204_3990)" stroke-miterlimit="10"/>
<path d="M373.81 28.8641C356.177 29.9122 340.99 46.391 322.951 41.177C307.962 36.8453 295.125 23.3712 280.201 18.7982C264.902 14.112 247.633 21.9235 232.748 26.9527C218.506 31.7671 204.284 38.0442 189.81 41.2487C177.212 44.0347 166.707 35.4881 154.604 32.8227C147.104 31.1676 140.728 33.3316 133.908 37.8368C125.662 43.244 117.03 47.3176 108.169 49.9838C92.1878 54.8585 74.3544 56.9245 58.1525 53.3769C38.1149 48.981 18.858 38.8095 -0.919438 32.5889" stroke="url(#paint45_linear_1204_3990)" stroke-miterlimit="10"/>
<path d="M373.805 26.6737C356.044 27.7783 340.818 44.3928 322.631 39.3372C307.642 35.1562 294.698 21.9875 279.756 17.6633C264.478 13.2524 247.349 20.9658 232.482 25.8669C218.336 30.5304 204.141 36.472 189.729 39.1336C177.176 41.4522 166.288 33.5125 154.107 31.4503C146.56 30.1723 140.135 32.5323 133.288 36.9809C125.107 42.2343 116.527 46.0747 107.726 48.423C91.644 52.8075 74.1254 53.7839 57.9236 50.2627C38.0317 45.9423 18.6992 37.177 -0.9064 30.8659" stroke="url(#paint46_linear_1204_3990)" stroke-miterlimit="10"/>
<path d="M373.8 24.5627C355.909 25.7238 340.639 42.508 322.306 37.5844C307.319 33.5542 294.261 20.7022 279.3 16.6456C264.048 12.4986 247.063 20.1254 232.199 24.8907C218.147 29.4147 203.982 34.9906 189.631 37.1131C177.101 38.968 165.841 31.6466 153.566 30.1913C145.964 29.2903 139.513 31.8577 132.601 36.246C124.483 41.3429 115.956 44.945 107.219 46.968C70.5265 55.7484 34.5707 40.9359 -0.942764 29.2488" stroke="url(#paint47_linear_1204_3990)" stroke-miterlimit="10"/>
<path d="M373.795 22.5197C355.771 23.745 340.457 40.6762 321.973 35.9071C306.986 32.039 293.816 19.5075 278.837 15.6884C263.611 11.8053 246.769 19.3378 231.936 23.9636C217.964 28.3331 203.842 33.5471 189.555 35.1192C177.028 36.5103 165.414 29.8411 153.048 28.974C145.402 28.4462 138.896 31.236 131.946 35.5603C123.92 40.5857 115.398 43.7902 106.745 45.5621C70.987 52.8873 33.691 39.2888 -0.93502 27.6809" stroke="url(#paint48_linear_1204_3990)" stroke-miterlimit="10"/>
<path d="M373.789 20.559C355.633 21.8483 340.272 38.9265 321.637 34.3158C306.648 30.5948 293.368 18.3987 278.371 14.8361C263.171 11.2281 246.475 18.6589 231.658 23.1301C217.761 27.3337 203.688 32.1782 189.467 33.2376C176.916 34.1725 164.974 28.1329 152.514 27.8803C144.824 27.7258 138.277 30.7343 131.272 35.0057C123.298 39.8653 114.833 42.7946 106.253 44.2498C89.9083 47.0208 73.3343 44.6607 57.1246 41.2715C37.6751 37.2036 18.197 32.7399 -0.940227 26.1914" stroke="url(#paint49_linear_1204_3990)" stroke-miterlimit="10"/>
<path d="M373.784 18.6774C355.651 20.0083 340.311 37.1166 321.694 32.9018C306.765 29.5087 293.459 17.7877 278.579 14.2326C263.538 10.6397 247.178 17.7689 232.49 22.0742C218.292 26.2213 203.909 30.8546 189.375 31.4352C176.473 31.9517 163.902 26.2439 151.028 26.9112C143.258 27.3146 136.781 30.9941 129.658 35.0808C122.26 39.3259 114.448 41.7576 106.547 42.9074C89.7312 45.3542 73.0532 41.7462 56.4376 38.3419C37.2587 34.4135 17.9081 31.39 -0.953333 24.8226" stroke="url(#paint50_linear_1204_3990)" stroke-miterlimit="10"/>
<path d="M373.782 16.8792C355.524 18.2741 340.121 35.5258 321.366 31.473C306.434 28.2459 293.022 16.834 278.119 13.539C263.109 10.2364 246.878 17.2638 232.212 21.4297C218.081 25.4485 203.753 29.7237 189.295 29.7237C176.317 29.7237 163.467 24.7737 150.487 26.0366C142.706 26.7906 136.174 30.6813 128.997 34.6813C121.648 38.7756 113.888 40.9509 106.055 41.8104C89.1848 43.6615 72.7956 38.9 56.1826 35.5899C37.1286 31.7935 17.7806 30.1761 -0.948046 23.5258" stroke="url(#paint51_linear_1204_3990)" stroke-miterlimit="10"/>
<path d="M373.776 15.1678C355.381 16.6268 339.947 34.018 321.033 30.1235C306.096 27.0472 292.58 15.9558 277.656 12.9171C262.677 9.85962 246.574 16.8379 231.915 20.8681C217.863 24.7399 203.589 28.6306 189.206 28.0802C176.135 27.5788 163.033 23.3714 149.943 25.2225C142.152 26.3271 135.568 30.4251 128.344 34.3384C121.058 38.2856 113.334 40.2046 105.574 40.7739C88.6592 42.0217 72.5406 36.1292 55.9328 32.9096C36.9986 29.2376 17.6792 29.034 -0.940217 22.3007" stroke="url(#paint52_linear_1204_3990)" stroke-miterlimit="10"/>
<path d="M373.771 13.5432C355.248 15.0513 339.749 32.5894 320.703 28.8571C305.763 25.9278 292.143 15.138 277.195 12.3708C262.247 9.60356 246.275 16.4876 231.655 20.3783C217.636 24.1106 203.431 27.6356 189.126 26.531C175.94 25.5131 162.614 22.0597 149.415 24.4914C141.608 25.9278 134.977 30.2482 127.686 34.0711C120.394 37.8939 112.769 39.5376 105.082 39.8241C88.1673 40.4612 72.2621 33.4641 55.6725 30.335C36.8476 26.7836 17.5438 27.99 -0.950643 21.1587" stroke="url(#paint53_linear_1204_3990)" stroke-miterlimit="10"/>
<path d="M373.769 12.0049C355.118 13.5883 339.564 31.232 320.383 27.6731C305.435 24.8871 291.716 14.4252 276.747 11.8918C261.842 9.36962 245.968 16.2085 231.374 19.9672C217.397 23.5638 203.269 26.7193 189.035 25.0718C175.719 23.5299 162.195 20.8267 148.879 23.8277C141.095 25.5845 134.387 30.1312 127.043 33.8673C119.835 37.5317 112.21 38.9417 104.606 38.953C87.6912 38.9832 71.9889 30.9153 55.4228 27.8692C36.6863 24.4233 17.4294 27.036 -0.950602 20.0954" stroke="url(#paint54_linear_1204_3990)" stroke-miterlimit="10"/>
<path d="M373.766 10.561C354.99 12.1972 339.39 29.988 320.07 26.5648C305.115 23.9258 291.297 13.7467 276.31 11.4847C261.42 9.22267 245.705 16.0087 231.109 19.6355C217.16 23.0888 203.103 25.89 188.951 23.7071C175.492 21.6336 161.794 19.6807 148.356 23.2396C140.575 25.2943 133.809 30.0709 126.411 33.7203C119.236 37.2566 111.676 38.414 104.143 38.1576C87.254 37.5884 71.7157 28.4875 55.173 25.513C36.5432 22.1652 17.3357 26.184 -0.958375 19.1039" stroke="url(#paint55_linear_1204_3990)" stroke-miterlimit="10"/>
<path d="M373.761 9.20801C354.868 10.9008 339.213 28.8121 319.766 25.5398C304.803 23.0176 290.88 13.1665 275.886 11.1194C261.027 9.09114 245.439 15.8659 230.851 19.3569C216.929 22.6783 202.941 25.1288 188.871 22.422C175.261 19.8056 161.393 18.5916 147.861 22.6972C140.088 25.0534 133.265 30.0563 125.802 33.6302C118.671 37.0233 111.151 37.9582 103.682 37.4417C86.8377 36.2843 71.4321 26.1958 54.918 23.2853C36.3767 20.0167 17.2265 25.4304 -0.979136 18.2108" stroke="url(#paint56_linear_1204_3990)" stroke-miterlimit="10"/>
<path d="M373.758 7.94824C354.761 9.69376 339.049 27.7333 319.477 24.5929C304.506 22.1876 290.506 12.6344 275.478 10.8135C260.644 9.01893 245.171 15.7824 230.606 19.1528C216.702 22.3761 202.785 24.4572 188.798 21.2376C175.029 18.0708 161.037 17.5807 147.388 22.2178C139.63 24.8568 132.742 30.0858 125.229 33.5769C118.135 36.8719 110.656 37.5543 103.266 36.7927C86.4811 35.0623 71.1822 24.0425 54.6993 21.1697C36.2231 17.9614 17.1509 24.7626 -0.974013 17.3695" stroke="url(#paint57_linear_1204_3990)" stroke-miterlimit="10"/>
<path d="M373.755 6.79102C354.639 8.57801 338.885 26.7382 319.204 23.7222C304.22 21.43 290.134 12.1595 275.09 10.561C260.28 8.98894 244.927 15.7524 230.375 19.0172C216.484 22.135 202.634 23.8692 188.725 20.1482C174.816 16.4272 160.685 16.6459 146.93 21.7957C139.19 24.6949 132.234 30.0898 124.68 33.5658C117.654 36.8042 110.164 37.2114 102.865 36.2048C86.148 33.9428 70.935 22.0332 54.4859 19.1982C36.0904 16.0276 17.0728 24.2048 -0.97404 16.6119" stroke="url(#paint58_linear_1204_3990)" stroke-miterlimit="10"/>
<path d="M373.74 5.71252C354.519 7.53722 338.731 25.8181 318.933 22.9189C303.954 20.7361 289.785 11.7446 274.723 10.3534C259.947 8.98868 244.692 15.7747 230.156 18.9453C216.273 21.9613 202.489 23.3676 188.66 19.1564C174.571 14.8699 160.358 15.7634 146.503 21.4185C138.779 24.5627 131.764 30.1612 124.165 33.5881C117.167 36.7436 109.717 36.9246 102.493 35.7144C94.6107 34.3911 86.9261 31.36 79.3586 27.9972C71.1927 24.3742 62.7899 18.8473 54.283 17.3845C35.9499 14.229 16.9974 23.7634 -0.976605 15.9444" stroke="url(#paint59_linear_1204_3990)" stroke-miterlimit="10"/>
<path d="M373.74 4.77002C354.426 6.62487 338.609 25.0226 318.696 22.2215C303.705 20.1103 289.46 11.3676 274.379 10.1838C259.627 9.0113 244.482 15.8388 229.958 18.9302C216.075 21.8784 202.345 22.9529 188.598 18.2667C174.355 13.4109 160.048 14.9529 146.092 21.098C138.402 24.491 131.326 30.2592 123.689 33.6371C116.72 36.7172 109.303 36.6946 102.149 35.2771C94.2828 33.7238 86.6424 30.4288 79.1192 26.8511C71.0131 22.9981 62.5973 17.1847 54.093 15.7106C35.8172 12.5476 16.9245 23.4204 -0.979209 15.3336" stroke="url(#paint60_linear_1204_3990)" stroke-miterlimit="10"/>
<path d="M373.74 3.91455C354.337 5.79956 338.479 24.3066 318.48 21.5884C303.478 19.5451 289.166 11.0663 274.072 10.0522C259.341 9.06064 244.297 15.9673 229.784 18.9796C215.898 21.8561 202.218 22.629 188.551 17.4716C174.144 12.054 159.772 14.203 145.717 20.8194C138.056 24.4235 130.928 30.3688 123.251 33.7091C116.311 36.7251 108.939 36.514 101.837 34.9117C93.9887 33.1398 86.3874 29.596 78.9032 25.8222C70.8518 21.7619 62.4256 15.6921 53.9213 14.1954C35.7053 10.9909 16.8569 23.1869 -0.987024 14.8099" stroke="url(#paint61_linear_1204_3990)" stroke-miterlimit="10"/>
<path d="M373.74 3.16357C354.257 5.04859 338.372 23.6838 318.288 21.0297C303.267 19.0429 288.882 10.7979 273.773 9.94962C259.057 9.12022 244.107 16.1287 229.61 19.0806C215.719 21.9044 202.077 22.3907 188.493 16.7922C173.939 10.7941 159.53 13.5085 145.376 20.5623C137.741 24.3738 130.566 30.4737 122.859 33.7837C115.942 36.7508 108.595 36.3738 101.561 34.6018C93.7233 32.6263 86.1636 28.8563 78.7133 24.9016C70.706 20.6452 62.2746 14.3681 53.7599 12.8375C35.5803 9.56508 16.7788 23.0542 -0.987024 14.3455" stroke="url(#paint62_linear_1204_3990)" stroke-miterlimit="10"/>
<path d="M373.74 2.52295C354.181 4.40796 338.281 23.1601 318.119 20.5474C303.096 18.6021 288.645 10.5757 273.523 9.85942C258.823 9.17705 243.972 16.3099 229.474 19.2204C215.575 22.0102 201.96 22.2364 188.454 16.2044C173.749 9.63322 159.332 12.8604 145.074 20.3514C137.473 24.3476 130.257 30.587 122.52 33.8745C115.624 36.8076 108.314 36.2873 101.33 34.3646C93.502 32.2044 85.9762 28.2308 78.5571 24.1101C70.5863 19.6803 62.1627 13.2411 53.6246 11.669C35.484 8.29486 16.7059 23.0545 -0.989672 13.9612" stroke="url(#paint63_linear_1204_3990)" stroke-miterlimit="10"/>
<path d="M373.74 1.98779C354.277 3.87281 338.43 22.6249 318.384 20.1933C302.544 18.2743 287.232 9.60702 271.249 9.78421C257.584 9.93501 243.873 16.4383 230.375 19.2357C216.033 22.2065 202.306 22.1235 188.418 15.7635C173.018 8.7286 158.588 12.427 143.744 20.7927C137.09 24.5401 130.751 29.6523 124.048 33.1622C116.954 36.8756 109.165 36.5137 101.866 34.4515C93.5828 32.1141 85.6536 27.6655 77.8415 23.1414C69.967 18.5646 61.5954 12.1216 53.1042 10.6136C35.1484 7.44302 16.4743 23.0962 -0.987024 13.656" stroke="url(#paint64_linear_1204_3990)" stroke-miterlimit="10"/>
<path d="M373.74 1.56543C354.223 3.42405 338.375 22.3006 318.275 19.8651C302.429 17.9424 287.047 9.47872 271.069 9.76147C257.415 10.0065 243.774 16.6908 230.284 19.4919C215.932 22.4702 202.207 22.1762 188.387 15.4014C172.83 7.7709 158.476 11.9028 143.51 20.6795C136.887 24.5626 130.53 29.72 123.808 33.2337C116.73 36.9509 108.975 36.5136 101.717 34.3345C93.4396 31.8501 85.5416 27.2092 77.753 22.5645C69.8889 17.8746 61.5199 11.36 53.0078 9.77655C35.0859 6.46647 16.391 23.2921 -0.989672 13.3958" stroke="url(#paint65_linear_1204_3990)" stroke-miterlimit="10"/>
<path d="M373.74 1.26367C354.184 3.09213 338.349 22.0818 318.192 19.6086C302.344 17.6633 286.928 9.38054 270.929 9.75377C257.28 10.0705 243.704 16.9696 230.219 19.7934C215.859 22.8094 202.114 22.3306 188.382 15.1487C172.674 6.93756 158.434 11.4164 143.341 20.5624C136.734 24.5624 130.361 29.7726 123.634 33.3277C116.561 37.0638 108.874 36.5926 101.621 34.3117C84.8651 29.0337 69.8524 12.5097 52.935 9.17696C35.0442 5.65198 16.2999 23.6124 -0.989672 13.2184" stroke="url(#paint66_linear_1204_3990)" stroke-miterlimit="10"/>
<path d="M373.74 1.07263C354.153 2.8634 338.323 21.9661 318.142 19.4327C302.292 17.4383 286.824 9.31768 270.832 9.75124C257.181 10.1282 243.665 17.2687 230.185 20.1414C215.82 23.2027 202.028 22.5844 188.374 15.0142C172.528 6.22626 158.447 10.9652 143.211 20.4807C136.658 24.5637 130.27 29.9737 123.527 33.3893C116.366 37.0123 108.91 36.7182 101.58 34.3356C84.7948 28.8766 69.8655 12.3375 52.8882 8.76349C35.0209 4.99346 16.1959 24.051 -0.979209 13.1066" stroke="url(#paint67_linear_1204_3990)" stroke-miterlimit="10"/>
<path d="M373.74 1C354.132 2.73798 338.331 21.9538 318.129 19.3261C302.279 17.2639 286.79 9.27898 270.767 9.74647C257.113 10.1461 243.649 17.5881 230.172 20.5287C215.807 23.6616 201.942 22.9416 188.369 14.9906C172.401 5.6296 158.518 10.5382 143.136 20.4156C129.083 29.4336 117.506 39.6993 101.593 34.4138C84.7636 28.8228 69.9046 12.4232 52.8674 8.56268C35.0209 4.51744 16.097 24.6041 -1.00002 13.0867" stroke="url(#paint68_linear_1204_3990)" stroke-miterlimit="10"/>
</g>
<defs>
<linearGradient id="paint0_linear_1204_3990" x1="374" y1="202" x2="-0.729614" y2="202" gradientUnits="userSpaceOnUse">
<stop stop-color="#3658FF"/>
<stop offset="1" stop-color="#5FA7FF"/>
</linearGradient>
<linearGradient id="paint1_linear_1204_3990" x1="374" y1="195.392" x2="-0.719147" y2="195.392" gradientUnits="userSpaceOnUse">
<stop stop-color="#3658FF"/>
<stop offset="1" stop-color="#5FA7FF"/>
</linearGradient>
<linearGradient id="paint2_linear_1204_3990" x1="374" y1="190.299" x2="-0.729614" y2="190.299" gradientUnits="userSpaceOnUse">
<stop stop-color="#3658FF"/>
<stop offset="1" stop-color="#5FA7FF"/>
</linearGradient>
<linearGradient id="paint3_linear_1204_3990" x1="374" y1="186.291" x2="-0.729614" y2="186.291" gradientUnits="userSpaceOnUse">
<stop stop-color="#3658FF"/>
<stop offset="1" stop-color="#5FA7FF"/>
</linearGradient>
<linearGradient id="paint4_linear_1204_3990" x1="374" y1="183.091" x2="-0.729614" y2="183.091" gradientUnits="userSpaceOnUse">
<stop stop-color="#3658FF"/>
<stop offset="1" stop-color="#5FA7FF"/>
</linearGradient>
<linearGradient id="paint5_linear_1204_3990" x1="374" y1="180.526" x2="-0.729614" y2="180.526" gradientUnits="userSpaceOnUse">
<stop stop-color="#3658FF"/>
<stop offset="1" stop-color="#5FA7FF"/>
</linearGradient>
<linearGradient id="paint6_linear_1204_3990" x1="374" y1="178.44" x2="-0.729614" y2="178.44" gradientUnits="userSpaceOnUse">
<stop stop-color="#3658FF"/>
<stop offset="1" stop-color="#5FA7FF"/>
</linearGradient>
<linearGradient id="paint7_linear_1204_3990" x1="374" y1="176.66" x2="-0.724365" y2="176.66" gradientUnits="userSpaceOnUse">
<stop stop-color="#3658FF"/>
<stop offset="1" stop-color="#5FA7FF"/>
</linearGradient>
<linearGradient id="paint8_linear_1204_3990" x1="374" y1="175.023" x2="-0.732208" y2="175.023" gradientUnits="userSpaceOnUse">
<stop stop-color="#3658FF"/>
<stop offset="1" stop-color="#5FA7FF"/>
</linearGradient>
<linearGradient id="paint9_linear_1204_3990" x1="373.988" y1="173.321" x2="-0.734192" y2="173.321" gradientUnits="userSpaceOnUse">
<stop stop-color="#3658FF"/>
<stop offset="1" stop-color="#5FA7FF"/>
</linearGradient>
<linearGradient id="paint10_linear_1204_3990" x1="373.984" y1="171.398" x2="-0.7453" y2="171.398" gradientUnits="userSpaceOnUse">
<stop stop-color="#3658FF"/>
<stop offset="1" stop-color="#5FA7FF"/>
</linearGradient>
<linearGradient id="paint11_linear_1204_3990" x1="373.982" y1="169.115" x2="-0.747925" y2="169.115" gradientUnits="userSpaceOnUse">
<stop stop-color="#3658FF"/>
<stop offset="1" stop-color="#5FA7FF"/>
</linearGradient>
<linearGradient id="paint12_linear_1204_3990" x1="373.979" y1="166.3" x2="-0.750519" y2="166.3" gradientUnits="userSpaceOnUse">
<stop stop-color="#3658FF"/>
<stop offset="1" stop-color="#5FA7FF"/>
</linearGradient>
<linearGradient id="paint13_linear_1204_3990" x1="373.974" y1="162.712" x2="-0.7659" y2="162.712" gradientUnits="userSpaceOnUse">
<stop stop-color="#3658FF"/>
<stop offset="1" stop-color="#5FA7FF"/>
</linearGradient>
<linearGradient id="paint14_linear_1204_3990" x1="373.972" y1="158.369" x2="-0.758118" y2="158.369" gradientUnits="userSpaceOnUse">
<stop stop-color="#3658FF"/>
<stop offset="1" stop-color="#5FA7FF"/>
</linearGradient>
<linearGradient id="paint15_linear_1204_3990" x1="373.969" y1="154.02" x2="-0.75296" y2="154.02" gradientUnits="userSpaceOnUse">
<stop stop-color="#3658FF"/>
<stop offset="1" stop-color="#5FA7FF"/>
</linearGradient>
<linearGradient id="paint16_linear_1204_3990" x1="373.963" y1="149.831" x2="-0.761108" y2="149.831" gradientUnits="userSpaceOnUse">
<stop stop-color="#3658FF"/>
<stop offset="1" stop-color="#5FA7FF"/>
</linearGradient>
<linearGradient id="paint17_linear_1204_3990" x1="373.958" y1="145.75" x2="-0.779022" y2="145.75" gradientUnits="userSpaceOnUse">
<stop stop-color="#3658FF"/>
<stop offset="1" stop-color="#5FA7FF"/>
</linearGradient>
<linearGradient id="paint18_linear_1204_3990" x1="373.956" y1="141.801" x2="-0.773773" y2="141.801" gradientUnits="userSpaceOnUse">
<stop stop-color="#3658FF"/>
<stop offset="1" stop-color="#5FA7FF"/>
</linearGradient>
<linearGradient id="paint19_linear_1204_3990" x1="373.951" y1="137.973" x2="-0.778992" y2="137.973" gradientUnits="userSpaceOnUse">
<stop stop-color="#3658FF"/>
<stop offset="1" stop-color="#5FA7FF"/>
</linearGradient>
<linearGradient id="paint20_linear_1204_3990" x1="373.945" y1="134.29" x2="-0.786835" y2="134.29" gradientUnits="userSpaceOnUse">
<stop stop-color="#3658FF"/>
<stop offset="1" stop-color="#5FA7FF"/>
</linearGradient>
<linearGradient id="paint21_linear_1204_3990" x1="373.94" y1="130.698" x2="-0.794495" y2="130.698" gradientUnits="userSpaceOnUse">
<stop stop-color="#3658FF"/>
<stop offset="1" stop-color="#5FA7FF"/>
</linearGradient>
<linearGradient id="paint22_linear_1204_3990" x1="373.935" y1="127.189" x2="-0.784149" y2="127.189" gradientUnits="userSpaceOnUse">
<stop stop-color="#3658FF"/>
<stop offset="1" stop-color="#5FA7FF"/>
</linearGradient>
<linearGradient id="paint23_linear_1204_3990" x1="373.93" y1="123.802" x2="-0.799744" y2="123.802" gradientUnits="userSpaceOnUse">
<stop stop-color="#3658FF"/>
<stop offset="1" stop-color="#5FA7FF"/>
</linearGradient>
<linearGradient id="paint24_linear_1204_3990" x1="373.925" y1="120.486" x2="-0.815338" y2="120.486" gradientUnits="userSpaceOnUse">
<stop stop-color="#3658FF"/>
<stop offset="1" stop-color="#5FA7FF"/>
</linearGradient>
<linearGradient id="paint25_linear_1204_3990" x1="373.919" y1="117.232" x2="-0.805023" y2="117.232" gradientUnits="userSpaceOnUse">
<stop stop-color="#3658FF"/>
<stop offset="1" stop-color="#5FA7FF"/>
</linearGradient>
<linearGradient id="paint26_linear_1204_3990" x1="373.914" y1="114.042" x2="-0.815399" y2="114.042" gradientUnits="userSpaceOnUse">
<stop stop-color="#3658FF"/>
<stop offset="1" stop-color="#5FA7FF"/>
</linearGradient>
<linearGradient id="paint27_linear_1204_3990" x1="373.909" y1="110.919" x2="-0.810089" y2="110.919" gradientUnits="userSpaceOnUse">
<stop stop-color="#3658FF"/>
<stop offset="1" stop-color="#5FA7FF"/>
</linearGradient>
<linearGradient id="paint28_linear_1204_3990" x1="373.904" y1="107.831" x2="-0.817932" y2="107.831" gradientUnits="userSpaceOnUse">
<stop stop-color="#3658FF"/>
<stop offset="1" stop-color="#5FA7FF"/>
</linearGradient>
<linearGradient id="paint29_linear_1204_3990" x1="373.899" y1="104.81" x2="-0.820557" y2="104.81" gradientUnits="userSpaceOnUse">
<stop stop-color="#3658FF"/>
<stop offset="1" stop-color="#5FA7FF"/>
</linearGradient>
<linearGradient id="paint30_linear_1204_3990" x1="373.893" y1="101.753" x2="-0.846558" y2="101.753" gradientUnits="userSpaceOnUse">
<stop stop-color="#3658FF"/>
<stop offset="1" stop-color="#5FA7FF"/>
</linearGradient>
<linearGradient id="paint31_linear_1204_3990" x1="373.888" y1="98.7413" x2="-0.841431" y2="98.7413" gradientUnits="userSpaceOnUse">
<stop stop-color="#3658FF"/>
<stop offset="1" stop-color="#5FA7FF"/>
</linearGradient>
<linearGradient id="paint32_linear_1204_3990" x1="373.88" y1="95.728" x2="-0.849213" y2="95.728" gradientUnits="userSpaceOnUse">
<stop stop-color="#3658FF"/>
<stop offset="1" stop-color="#5FA7FF"/>
</linearGradient>
<linearGradient id="paint33_linear_1204_3990" x1="373.875" y1="92.6545" x2="-0.862183" y2="92.6545" gradientUnits="userSpaceOnUse">
<stop stop-color="#3658FF"/>
<stop offset="1" stop-color="#5FA7FF"/>
</linearGradient>
<linearGradient id="paint34_linear_1204_3990" x1="373.87" y1="89.5589" x2="-0.85968" y2="89.5589" gradientUnits="userSpaceOnUse">
<stop stop-color="#3658FF"/>
<stop offset="1" stop-color="#5FA7FF"/>
</linearGradient>
<linearGradient id="paint35_linear_1204_3990" x1="373.865" y1="86.3898" x2="-0.87265" y2="86.3898" gradientUnits="userSpaceOnUse">
<stop stop-color="#3658FF"/>
<stop offset="1" stop-color="#5FA7FF"/>
</linearGradient>
<linearGradient id="paint36_linear_1204_3990" x1="373.86" y1="83.2277" x2="-0.870026" y2="83.2277" gradientUnits="userSpaceOnUse">
<stop stop-color="#3658FF"/>
<stop offset="1" stop-color="#5FA7FF"/>
</linearGradient>
<linearGradient id="paint37_linear_1204_3990" x1="373.852" y1="80.0209" x2="-0.885681" y2="80.0209" gradientUnits="userSpaceOnUse">
<stop stop-color="#3658FF"/>
<stop offset="1" stop-color="#5FA7FF"/>
</linearGradient>
<linearGradient id="paint38_linear_1204_3990" x1="373.847" y1="76.8449" x2="-0.880371" y2="76.8449" gradientUnits="userSpaceOnUse">
<stop stop-color="#3658FF"/>
<stop offset="1" stop-color="#5FA7FF"/>
</linearGradient>
<linearGradient id="paint39_linear_1204_3990" x1="373.841" y1="73.6389" x2="-0.888275" y2="73.6389" gradientUnits="userSpaceOnUse">
<stop stop-color="#3658FF"/>
<stop offset="1" stop-color="#5FA7FF"/>
</linearGradient>
<linearGradient id="paint40_linear_1204_3990" x1="373.836" y1="70.4163" x2="-0.888214" y2="70.4163" gradientUnits="userSpaceOnUse">
<stop stop-color="#3658FF"/>
<stop offset="1" stop-color="#5FA7FF"/>
</linearGradient>
<linearGradient id="paint41_linear_1204_3990" x1="373.831" y1="67.2748" x2="-0.898682" y2="67.2748" gradientUnits="userSpaceOnUse">
<stop stop-color="#3658FF"/>
<stop offset="1" stop-color="#5FA7FF"/>
</linearGradient>
<linearGradient id="paint42_linear_1204_3990" x1="373.826" y1="64.1254" x2="-0.9039" y2="64.1254" gradientUnits="userSpaceOnUse">
<stop stop-color="#3658FF"/>
<stop offset="1" stop-color="#5FA7FF"/>
</linearGradient>
<linearGradient id="paint43_linear_1204_3990" x1="373.821" y1="61.0822" x2="-0.909088" y2="61.0822" gradientUnits="userSpaceOnUse">
<stop stop-color="#3658FF"/>
<stop offset="1" stop-color="#5FA7FF"/>
</linearGradient>
<linearGradient id="paint44_linear_1204_3990" x1="373.815" y1="58.063" x2="-0.914246" y2="58.063" gradientUnits="userSpaceOnUse">
<stop stop-color="#3658FF"/>
<stop offset="1" stop-color="#5FA7FF"/>
</linearGradient>
<linearGradient id="paint45_linear_1204_3990" x1="373.81" y1="55.1594" x2="-0.919434" y2="55.1594" gradientUnits="userSpaceOnUse">
<stop stop-color="#3658FF"/>
<stop offset="1" stop-color="#5FA7FF"/>
</linearGradient>
<linearGradient id="paint46_linear_1204_3990" x1="373.805" y1="52.4009" x2="-0.906403" y2="52.4009" gradientUnits="userSpaceOnUse">
<stop stop-color="#3658FF"/>
<stop offset="1" stop-color="#5FA7FF"/>
</linearGradient>
<linearGradient id="paint47_linear_1204_3990" x1="373.8" y1="49.6259" x2="-0.94278" y2="49.6259" gradientUnits="userSpaceOnUse">
<stop stop-color="#3658FF"/>
<stop offset="1" stop-color="#5FA7FF"/>
</linearGradient>
<linearGradient id="paint48_linear_1204_3990" x1="373.795" y1="47.6305" x2="-0.935028" y2="47.6305" gradientUnits="userSpaceOnUse">
<stop stop-color="#3658FF"/>
<stop offset="1" stop-color="#5FA7FF"/>
</linearGradient>
<linearGradient id="paint49_linear_1204_3990" x1="373.789" y1="45.4698" x2="-0.940247" y2="45.4698" gradientUnits="userSpaceOnUse">
<stop stop-color="#3658FF"/>
<stop offset="1" stop-color="#5FA7FF"/>
</linearGradient>
<linearGradient id="paint50_linear_1204_3990" x1="373.784" y1="43.711" x2="-0.953339" y2="43.711" gradientUnits="userSpaceOnUse">
<stop stop-color="#3658FF"/>
<stop offset="1" stop-color="#5FA7FF"/>
</linearGradient>
<linearGradient id="paint51_linear_1204_3990" x1="373.782" y1="42.2247" x2="-0.948029" y2="42.2247" gradientUnits="userSpaceOnUse">
<stop stop-color="#3658FF"/>
<stop offset="1" stop-color="#5FA7FF"/>
</linearGradient>
<linearGradient id="paint52_linear_1204_3990" x1="373.776" y1="40.9447" x2="-0.940216" y2="40.9447" gradientUnits="userSpaceOnUse">
<stop stop-color="#3658FF"/>
<stop offset="1" stop-color="#5FA7FF"/>
</linearGradient>
<linearGradient id="paint53_linear_1204_3990" x1="373.771" y1="39.8649" x2="-0.950623" y2="39.8649" gradientUnits="userSpaceOnUse">
<stop stop-color="#3658FF"/>
<stop offset="1" stop-color="#5FA7FF"/>
</linearGradient>
<linearGradient id="paint54_linear_1204_3990" x1="373.769" y1="38.9532" x2="-0.950592" y2="38.9532" gradientUnits="userSpaceOnUse">
<stop stop-color="#3658FF"/>
<stop offset="1" stop-color="#5FA7FF"/>
</linearGradient>
<linearGradient id="paint55_linear_1204_3990" x1="373.766" y1="38.1919" x2="-0.958374" y2="38.1919" gradientUnits="userSpaceOnUse">
<stop stop-color="#3658FF"/>
<stop offset="1" stop-color="#5FA7FF"/>
</linearGradient>
<linearGradient id="paint56_linear_1204_3990" x1="373.761" y1="37.5744" x2="-0.979126" y2="37.5744" gradientUnits="userSpaceOnUse">
<stop stop-color="#3658FF"/>
<stop offset="1" stop-color="#5FA7FF"/>
</linearGradient>
<linearGradient id="paint57_linear_1204_3990" x1="373.758" y1="37.0754" x2="-0.973999" y2="37.0754" gradientUnits="userSpaceOnUse">
<stop stop-color="#3658FF"/>
<stop offset="1" stop-color="#5FA7FF"/>
</linearGradient>
<linearGradient id="paint58_linear_1204_3990" x1="373.755" y1="36.6912" x2="-0.97406" y2="36.6912" gradientUnits="userSpaceOnUse">
<stop stop-color="#3658FF"/>
<stop offset="1" stop-color="#5FA7FF"/>
</linearGradient>
<linearGradient id="paint59_linear_1204_3990" x1="373.74" y1="36.4067" x2="-0.976593" y2="36.4067" gradientUnits="userSpaceOnUse">
<stop stop-color="#3658FF"/>
<stop offset="1" stop-color="#5FA7FF"/>
</linearGradient>
<linearGradient id="paint60_linear_1204_3990" x1="373.74" y1="36.1996" x2="-0.979218" y2="36.1996" gradientUnits="userSpaceOnUse">
<stop stop-color="#3658FF"/>
<stop offset="1" stop-color="#5FA7FF"/>
</linearGradient>
<linearGradient id="paint61_linear_1204_3990" x1="373.74" y1="36.0626" x2="-0.98703" y2="36.0626" gradientUnits="userSpaceOnUse">
<stop stop-color="#3658FF"/>
<stop offset="1" stop-color="#5FA7FF"/>
</linearGradient>
<linearGradient id="paint62_linear_1204_3990" x1="373.74" y1="35.9738" x2="-0.98703" y2="35.9738" gradientUnits="userSpaceOnUse">
<stop stop-color="#3658FF"/>
<stop offset="1" stop-color="#5FA7FF"/>
</linearGradient>
<linearGradient id="paint63_linear_1204_3990" x1="373.74" y1="35.9405" x2="-0.989655" y2="35.9405" gradientUnits="userSpaceOnUse">
<stop stop-color="#3658FF"/>
<stop offset="1" stop-color="#5FA7FF"/>
</linearGradient>
<linearGradient id="paint64_linear_1204_3990" x1="373.74" y1="35.9869" x2="-0.98703" y2="35.9869" gradientUnits="userSpaceOnUse">
<stop stop-color="#3658FF"/>
<stop offset="1" stop-color="#5FA7FF"/>
</linearGradient>
<linearGradient id="paint65_linear_1204_3990" x1="373.74" y1="36.0023" x2="-0.989655" y2="36.0023" gradientUnits="userSpaceOnUse">
<stop stop-color="#3658FF"/>
<stop offset="1" stop-color="#5FA7FF"/>
</linearGradient>
<linearGradient id="paint66_linear_1204_3990" x1="373.74" y1="36.0803" x2="-0.989655" y2="36.0803" gradientUnits="userSpaceOnUse">
<stop stop-color="#3658FF"/>
<stop offset="1" stop-color="#5FA7FF"/>
</linearGradient>
<linearGradient id="paint67_linear_1204_3990" x1="373.74" y1="36.1213" x2="-0.979218" y2="36.1213" gradientUnits="userSpaceOnUse">
<stop stop-color="#3658FF"/>
<stop offset="1" stop-color="#5FA7FF"/>
</linearGradient>
<linearGradient id="paint68_linear_1204_3990" x1="373.74" y1="35.8576" x2="-1.00003" y2="35.8576" gradientUnits="userSpaceOnUse">
<stop stop-color="#3658FF"/>
<stop offset="1" stop-color="#5FA7FF"/>
</linearGradient>
</defs>
</svg>
