<svg width="375" height="402" viewBox="0 0 375 402" fill="none" xmlns="http://www.w3.org/2000/svg">
<g opacity="0.2">
<path opacity="0.0526316" d="M-65.2791 238.821L-65.5474 238.395L-65.2791 238.821ZM520.027 -14.2681L519.711 -14.6827L520.027 -14.2681ZM-451.196 196.95C-408.023 227.958 -270.552 279.56 -65.0109 239.248L-65.5474 238.395C-270.879 278.666 -407.88 227.055 -450.583 196.384L-451.196 196.95ZM-65.0109 239.248C63.4633 214.051 152.539 168.056 238.125 119.728C323.718 71.3949 405.803 20.7409 520.343 -13.8535L519.711 -14.6827C405.058 19.9457 322.887 70.6542 237.324 118.97C151.754 167.289 62.7736 213.228 -65.5474 238.395L-65.0109 239.248ZM520.343 -13.8535C604.888 -39.3885 760.779 -71.328 928.198 -86.2911C1095.64 -101.257 1274.5 -99.2283 1405.03 -56.9071L1405.18 -57.7049C1274.34 -100.129 1095.24 -102.127 927.777 -87.1603C760.29 -72.1911 604.327 -40.2392 519.711 -14.6827L520.343 -13.8535Z" fill="url(#paint0_linear_694_4407)"/>
<path opacity="0.105263" d="M-117.906 195.697L-118.099 195.233L-117.906 195.697ZM513.198 -22.9778L512.96 -23.4335L513.198 -22.9778ZM-493.576 132.3C-475.093 148.952 -434.165 172.034 -371.367 187.395C-308.554 202.759 -223.828 210.407 -117.713 196.161L-118.099 195.233C-224.096 209.464 -308.673 201.817 -371.316 186.494C-433.976 171.167 -474.659 148.168 -492.909 131.726L-493.576 132.3ZM-117.713 196.161C14.9291 178.352 112.418 137.638 206.893 94.4041C301.374 51.1669 392.82 5.42045 513.436 -22.522L512.96 -23.4335C392.234 4.53422 300.699 50.3261 206.248 93.5491C111.791 136.775 14.399 177.443 -118.099 195.233L-117.713 196.161ZM513.436 -22.522C602.466 -43.147 763.691 -66.1151 933.093 -71.5489C1102.52 -76.9836 1280.01 -64.8735 1401.64 -15.416L1401.88 -16.2545C1279.98 -65.8267 1102.25 -77.9208 932.814 -72.4858C763.349 -67.0499 602.058 -44.0744 512.96 -23.4335L513.436 -22.522Z" fill="url(#paint1_linear_694_4407)"/>
<path opacity="0.157895" d="M-164.289 151.005L-164.394 150.515L-164.289 151.005ZM505.698 -30.8583L505.549 -31.3432L505.698 -30.8583ZM-525.612 66.7745C-510.451 84.3816 -474.215 109.646 -414.741 128.465C-355.25 147.289 -272.473 159.676 -164.184 151.495L-164.394 150.515C-272.57 158.687 -355.207 146.309 -414.543 127.534C-473.897 108.753 -509.903 83.5844 -524.866 66.2065L-525.612 66.7745ZM-164.184 151.495C-28.8248 141.27 76.0105 106.281 178.338 68.6151C280.673 30.9467 380.479 -9.38994 505.847 -30.3735L505.549 -31.3432C380.073 -10.3417 280.175 30.033 177.872 67.6898C75.5626 105.349 -29.1735 140.3 -164.394 150.515L-164.184 151.495ZM505.847 -30.3735C598.385 -45.862 763.175 -59.6064 932.703 -55.4511C1102.26 -51.2953 1276.44 -29.2353 1387.82 26.8165L1388.2 25.9563C1276.56 -30.2214 1102.16 -52.2779 932.596 -56.434C763.009 -60.5908 598.154 -46.8428 505.549 -31.3432L505.847 -30.3735Z" fill="url(#paint2_linear_694_4407)"/>
<path opacity="0.210526" d="M-204.158 105.102L-204.168 104.602L-204.158 105.102ZM497.372 -37.958L497.319 -38.4552L497.372 -37.958ZM-547.188 0.950066C-535.52 19.3176 -504.374 46.4881 -448.87 68.5595C-393.351 90.6369 -313.427 107.627 -204.149 105.602L-204.168 104.602C-313.334 106.625 -393.123 89.6514 -448.5 67.6302C-503.893 45.603 -534.829 18.5396 -546.344 0.413834L-547.188 0.950066ZM-204.149 105.602C-67.5526 103.07 43.4821 74.1898 152.542 42.5045C261.609 10.8173 368.679 -23.6667 497.425 -37.4609L497.319 -38.4552C368.465 -24.6494 261.298 9.86652 152.263 41.5442C43.2224 73.2239 -67.7082 102.073 -204.168 104.602L-204.149 105.602ZM497.425 -37.4609C592.456 -47.6427 759.005 -52.0128 926.801 -38.3138C1094.62 -24.6127 1263.58 7.15559 1363.5 69.1866L1364.03 68.337C1263.88 6.16823 1094.71 -25.6088 926.882 -39.3104C759.03 -53.0141 592.417 -48.6442 497.319 -38.4552L497.425 -37.4609Z" fill="url(#paint3_linear_694_4407)"/>
<path opacity="0.263158" d="M-237.315 58.3652L-237.229 57.874L-237.315 58.3652ZM488.072 -44.3237L488.113 -44.8147L488.072 -44.3237ZM-558.302 -64.58C-550.254 -45.656 -524.54 -16.8764 -473.613 8.20673C-422.671 33.2967 -346.474 54.7038 -237.401 58.8564L-237.229 57.874C-346.188 53.7256 -422.252 32.343 -473.061 7.31802C-523.884 -17.7138 -549.411 -46.3742 -557.354 -65.0519L-558.302 -64.58ZM-237.401 58.8564C-101.061 64.0472 14.9581 41.5901 129.556 16.2327C244.161 -9.12641 357.321 -37.3793 488.031 -43.8328L488.113 -44.8147C357.291 -38.3557 244.027 -10.076 129.456 15.2753C14.8789 40.6282 -101.029 63.0594 -237.229 57.874L-237.401 58.8564ZM488.031 -43.8328C584.512 -48.5962 750.995 -43.544 915.218 -20.4515C1079.47 2.64446 1241.35 43.7728 1328.71 111.102L1329.4 110.302C1241.84 42.8218 1079.75 1.67213 915.491 -21.425C751.211 -44.5256 584.664 -49.5816 488.113 -44.8147L488.031 -43.8328Z" fill="url(#paint4_linear_694_4407)"/>
<path opacity="0.315789" d="M-263.634 11.1773L-263.461 10.711L-263.634 11.1773ZM477.663 -50.0156L477.788 -50.4843L477.663 -50.0156ZM-559.061 -129.227C-554.722 -109.956 -534.723 -79.8825 -488.928 -52.061C-443.121 -24.2323 -371.483 1.35838 -263.808 11.6436L-263.461 10.711C-371.016 0.437278 -442.519 -25.1195 -488.202 -52.8729C-533.897 -80.6335 -553.736 -110.577 -558.02 -129.604L-559.061 -129.227ZM-263.808 11.6436C-129.216 24.5 -9.47997 8.71229 109.4 -10.0396C228.289 -28.7927 346.296 -50.5047 477.537 -49.5469L477.788 -50.4843C346.429 -51.443 228.306 -29.7091 109.456 -10.962C-9.40257 7.78637 -129.015 23.5534 -263.461 10.711L-263.808 11.6436ZM477.537 -49.5469C574.409 -48.8399 739 -34.421 897.85 -2.18829C1056.72 30.0493 1209.75 80.0861 1283.6 151.974L1284.45 151.261C1210.43 79.2069 1057.19 29.1345 898.301 -3.10533C739.392 -35.35 574.735 -49.7767 477.788 -50.4843L477.537 -49.5469Z" fill="url(#paint5_linear_694_4407)"/>
<path opacity="0.368421" d="M-283.065 -36.0783L-282.818 -36.5084L-283.065 -36.0783ZM466.029 -55.1134L466.225 -55.5491L466.029 -55.1134ZM-549.686 -192.408C-548.521 -153.622 -493.491 -68.2541 -283.312 -35.6481L-282.818 -36.5084C-492.782 -69.0812 -547.422 -154.307 -548.575 -192.671L-549.686 -192.408ZM-283.312 -35.6481C-151.939 -15.2676 -29.795 -24.2142 92.0673 -36.1564C213.94 -48.0996 335.501 -63.0343 465.834 -54.6776L466.225 -55.5491C335.764 -63.914 214.073 -48.9627 92.2445 -37.0238C-29.5947 -25.0838 -151.601 -16.1521 -282.818 -36.5084L-283.312 -35.6481ZM465.834 -54.6776C562.036 -48.5094 722.931 -24.884 874.667 16.1336C1026.43 57.1576 1168.92 115.552 1228.44 191.208L1229.43 190.611C1169.77 114.771 1027.05 56.3248 875.273 15.2967C723.474 -25.7376 562.508 -49.3756 466.225 -55.5491L465.834 -54.6776Z" fill="url(#paint6_linear_694_4407)"/>
<path opacity="0.421053" d="M-295.634 -83.0043L-295.327 -83.3927L-295.634 -83.0043ZM453.045 -59.6656L453.295 -60.0635L453.045 -59.6656ZM-530.524 -253.552C-536.874 -214.926 -498.68 -126.909 -295.941 -82.616L-295.327 -83.3927C-497.81 -127.629 -535.654 -215.46 -529.369 -253.691L-530.524 -253.552ZM-295.941 -82.616C-169.224 -54.9321 -46.008 -56.9378 77.4999 -61.9382C201.02 -66.9391 324.801 -74.932 452.794 -59.2677L453.295 -60.0635C325.161 -75.745 201.234 -67.7419 77.7631 -62.743C-45.7206 -57.7436 -168.78 -55.7459 -295.327 -83.3927L-295.941 -82.616ZM452.794 -59.2677C547.27 -47.7054 702.706 -15.1317 845.665 34.222C988.647 83.5833 1119.04 149.694 1163.58 228.289L1164.68 227.826C1120.03 149.03 989.401 82.8472 846.398 33.4785C703.373 -15.8977 547.86 -48.4902 453.295 -60.0635L452.794 -59.2677Z" fill="url(#paint7_linear_694_4407)"/>
<path opacity="0.473684" d="M-301.446 -129.213L-301.094 -129.558L-301.446 -129.213ZM438.596 -63.7456L438.887 -64.1053L438.596 -63.7456ZM-502.027 -312.116C-515.814 -274.075 -494.88 -184.37 -301.799 -128.868L-301.094 -129.558C-493.868 -184.972 -514.513 -274.445 -500.856 -312.128L-502.027 -312.116ZM-301.799 -128.868C-181.126 -94.1799 -58.1894 -89.2203 65.6073 -87.2224C189.42 -85.2242 314.058 -86.1869 438.306 -63.3858L438.887 -64.1053C314.484 -86.9348 189.681 -85.9699 65.9248 -87.9671C-57.8473 -89.9647 -180.606 -94.9236 -301.094 -129.558L-301.799 -128.868ZM438.306 -63.3858C530.018 -46.5556 678.287 -5.38879 810.902 51.7619C943.537 108.921 1060.41 182.025 1089.49 262.699L1090.66 262.378C1061.51 181.488 944.401 108.289 811.736 51.1171C679.051 -6.0636 530.698 -47.2568 438.887 -64.1053L438.306 -63.3858Z" fill="url(#paint8_linear_694_4407)"/>
<path opacity="0.526316" d="M-300.669 -174.339L-300.282 -174.642L-300.669 -174.339ZM422.643 -67.4695L422.962 -67.7937L422.643 -67.4695ZM-464.736 -367.588C-485.802 -330.551 -482.372 -240.143 -301.057 -174.035L-300.282 -174.642C-481.233 -240.617 -484.46 -330.751 -463.571 -367.475L-464.736 -367.588ZM-301.057 -174.035C-187.748 -132.723 -66.4318 -120.853 56.2996 -111.88C179.051 -102.906 303.182 -96.83 422.324 -67.1453L422.962 -67.7937C303.65 -97.5208 179.333 -103.604 56.6461 -112.574C-66.0615 -121.545 -187.175 -133.403 -300.282 -174.642L-301.057 -174.035ZM422.324 -67.1453C510.267 -45.2338 649.746 4.07163 770.564 68.3899C891.399 132.717 993.466 212.009 1006.76 293.877L1007.99 293.703C994.653 211.605 892.352 132.193 771.478 67.8444C650.586 3.48691 511.016 -45.8548 422.962 -67.7937L422.324 -67.1453Z" fill="url(#paint9_linear_694_4407)"/>
<path opacity="0.578947" d="M-293.553 -218.01L-293.139 -218.274L-293.553 -218.01ZM405.105 -70.9095L405.443 -71.2025L405.105 -70.9095ZM-419.304 -419.487C-447.41 -383.862 -461.531 -293.742 -293.967 -217.746L-293.139 -218.274C-460.282 -294.079 -446.066 -383.887 -418.166 -419.252L-419.304 -419.487ZM-293.967 -217.746C-189.262 -170.258 -70.8927 -151.605 49.4279 -135.756C169.775 -119.904 292.037 -106.858 404.766 -70.6165L405.443 -71.2025C292.529 -107.503 170.058 -120.57 49.785 -136.413C-70.5144 -152.259 -188.652 -170.885 -293.139 -218.274L-293.967 -217.746ZM404.766 -70.6165C487.976 -43.8654 617.137 13.0371 724.833 83.8169C832.543 154.606 918.691 239.215 916.064 321.381L917.306 321.354C919.941 238.95 833.57 154.192 725.809 83.3697C618.035 12.539 488.776 -44.412 405.443 -71.2025L404.766 -70.6165Z" fill="url(#paint10_linear_694_4407)"/>
<path opacity="0.631579" d="M-280.414 -259.876L-279.98 -260.104L-280.414 -259.876ZM385.934 -74.1565L386.286 -74.4233L385.934 -74.1565ZM-366.468 -467.374C-401.297 -433.551 -432.824 -344.709 -280.848 -259.648L-279.98 -260.104C-431.485 -344.9 -399.992 -433.402 -365.375 -467.019L-366.468 -467.374ZM-280.848 -259.648C-185.893 -206.502 -71.7661 -181.27 44.8242 -158.718C161.449 -136.16 280.501 -116.288 385.582 -73.8898L386.286 -74.4233C281.005 -116.903 161.721 -136.81 45.1809 -159.352C-71.3934 -181.901 -185.26 -207.089 -279.98 -260.104L-280.848 -259.648ZM385.582 -73.8898C463.146 -42.5938 580.573 21.2804 673.969 97.7448C767.373 174.216 836.662 263.215 818.14 344.779L819.374 344.899C837.95 263.093 768.458 173.917 674.992 97.3944C581.517 20.8651 463.984 -43.073 386.286 -74.4233L385.582 -73.8898Z" fill="url(#paint11_linear_694_4407)"/>
<path opacity="0.684211" d="M-261.634 -299.607L-261.185 -299.802L-261.634 -299.607ZM365.104 -77.3032L365.465 -77.5493L365.104 -77.3032ZM-307.046 -510.853C-348.205 -479.202 -396.804 -392.616 -262.083 -299.413L-261.185 -299.802C-395.394 -392.651 -346.98 -478.881 -306.016 -510.381L-307.046 -510.853ZM-262.083 -299.413C-177.92 -241.186 -69.2831 -209.647 42.2985 -180.641C153.923 -151.624 268.461 -125.146 364.743 -77.0572L365.465 -77.5493C268.972 -125.744 154.182 -152.277 42.651 -181.27C-68.9224 -210.274 -177.268 -241.745 -261.185 -299.802L-262.083 -299.413ZM364.743 -77.0572C435.811 -41.5614 540.218 28.5826 618.29 109.892C696.366 191.205 748.041 283.618 713.829 363.689L715.027 363.954C749.342 283.643 697.495 191.025 619.348 109.638C541.197 28.2464 436.679 -41.9806 365.465 -77.5493L364.743 -77.0572Z" fill="url(#paint12_linear_694_4407)"/>
<path opacity="0.736842" d="M-237.658 -336.899L-237.197 -337.064L-237.658 -336.899ZM342.603 -80.4466L342.972 -80.6773L342.603 -80.4466ZM-241.925 -549.58C-265.459 -535.001 -293.489 -506.877 -301.151 -469.857C-308.816 -432.825 -296.096 -386.891 -238.118 -336.735L-237.197 -337.064C-294.935 -387.012 -307.588 -432.729 -299.958 -469.593C-292.326 -506.47 -264.396 -534.487 -240.979 -548.994L-241.925 -549.58ZM-238.118 -336.735C-165.67 -274.062 -63.714 -236.56 41.6348 -201.418C147.036 -166.258 255.806 -133.466 342.235 -80.2158L342.972 -80.6773C256.326 -134.061 147.287 -166.931 41.988 -202.056C-63.3634 -237.199 -165 -274.606 -237.197 -337.064L-238.118 -336.735ZM342.235 -80.2158C406.029 -40.9115 496.273 34.7315 558.168 119.993C620.063 205.254 653.563 300.068 604.034 377.77L605.169 378.178C654.846 300.243 621.218 205.199 559.248 119.835C497.278 34.4713 406.921 -41.2775 342.972 -80.6773L342.235 -80.2158Z" fill="url(#paint13_linear_694_4407)"/>
<path opacity="0.789474" d="M-208.986 -371.469L-208.517 -371.605L-208.986 -371.469ZM318.44 -83.6769L318.818 -83.8971L318.44 -83.6769ZM-172.056 -583.256C-198.275 -570.089 -231.596 -543.705 -246.384 -507.32C-261.177 -470.923 -257.425 -424.508 -209.456 -371.333L-208.517 -371.605C-256.246 -424.515 -259.982 -470.681 -245.257 -506.912C-230.526 -543.156 -197.322 -569.448 -171.216 -582.558L-172.056 -583.256ZM-209.456 -371.333C-149.522 -304.895 -55.3637 -261.837 42.5972 -220.945C140.62 -180.028 242.431 -141.282 318.063 -83.4567L318.818 -83.8971C242.97 -141.888 140.879 -180.735 42.9651 -221.607C-55.0111 -262.506 -148.825 -305.436 -208.517 -371.605L-209.456 -371.333ZM318.063 -83.4567C373.885 -40.7768 448.98 39.5338 494.023 127.811C539.063 216.083 554.025 312.26 489.72 386.744L490.763 387.289C555.256 312.587 540.219 216.158 495.11 127.75C450.004 39.3475 374.799 -41.0956 318.818 -83.8971L318.063 -83.4567Z" fill="url(#paint14_linear_694_4407)"/>
<path opacity="0.842105" d="M-176.172 -403.069L-175.694 -403.179L-176.172 -403.069ZM292.642 -87.0905L293.032 -87.3033L292.642 -87.0905ZM-98.4416 -611.642C-127.059 -600.03 -165.303 -575.673 -187.054 -540.323C-208.812 -504.962 -214.077 -458.576 -176.649 -402.959L-175.694 -403.179C-212.901 -458.466 -207.686 -504.576 -186.025 -539.779C-164.357 -574.994 -126.241 -599.272 -97.7322 -610.84L-98.4416 -611.642ZM-176.649 -402.959C-129.894 -333.481 -44.5674 -285.338 44.9321 -239.146C134.502 -192.917 228.241 -148.644 292.251 -86.8778L293.032 -87.3033C228.817 -149.267 134.796 -193.667 45.3384 -239.838C-44.1891 -286.044 -129.157 -334.025 -175.694 -403.179L-176.649 -402.959ZM292.251 -86.8778C339.494 -41.2916 398.62 42.8051 426.32 133.13C454.017 223.444 450.28 319.933 371.903 390.384L372.825 391.055C451.426 320.404 455.148 223.65 427.399 133.165C399.654 42.6906 340.43 -41.5672 293.032 -87.3033L292.251 -86.8778Z" fill="url(#paint15_linear_694_4407)"/>
<path opacity="0.894737" d="M-139.812 -431.479L-139.327 -431.563L-139.812 -431.479ZM265.252 -90.777L265.662 -90.9823L265.252 -90.777ZM-22.1234 -634.55C-52.827 -624.618 -95.5739 -602.556 -124.05 -568.628C-152.534 -534.69 -166.763 -488.844 -140.297 -431.394L-139.327 -431.563C-165.613 -488.623 -151.51 -534.174 -123.149 -567.965C-94.7804 -601.765 -52.1693 -623.761 -21.5714 -633.659L-22.1234 -634.55ZM-140.297 -431.394C-107.241 -359.639 -31.6869 -306.936 48.3722 -255.951C88.4285 -230.441 129.615 -205.362 167.272 -178.511C204.924 -151.663 239.006 -123.074 264.842 -90.5716L265.662 -90.9823C239.715 -123.624 205.515 -152.303 167.812 -179.186C130.113 -206.067 88.8699 -231.181 48.8483 -256.669C-31.2483 -307.679 -106.444 -360.183 -139.327 -431.563L-140.297 -431.394ZM264.842 -90.5716C302.992 -42.579 345.507 44.3822 355.564 135.765C365.621 227.133 343.228 322.88 251.635 388.524L252.408 389.304C344.254 323.479 366.697 227.461 356.618 135.891C346.542 44.3369 303.952 -42.8125 265.662 -90.9823L264.842 -90.5716Z" fill="url(#paint16_linear_694_4407)"/>
<path opacity="0.947368" d="M-100.544 -456.519L-100.052 -456.578L-100.544 -456.519ZM236.333 -94.826L236.77 -95.0195L236.333 -94.826ZM55.8211 -651.855C23.3663 -643.711 -23.416 -624.183 -58.3044 -592.049C-93.2007 -559.908 -116.239 -515.108 -101.037 -456.461L-100.052 -456.578C-115.141 -514.789 -92.3055 -559.288 -57.5545 -591.296C-22.7957 -623.311 23.8434 -642.783 56.1937 -650.901L55.8211 -651.855ZM-101.037 -456.461C-82.0511 -383.217 -17.1052 -326.534 52.6392 -271.314C87.537 -243.683 123.641 -216.417 155.893 -187.589C188.141 -158.764 216.497 -128.41 235.896 -94.6325L236.77 -95.0195C217.282 -128.952 188.82 -159.405 156.528 -188.269C124.24 -217.13 88.0854 -244.435 53.2184 -272.041C-16.5669 -327.294 -81.1737 -383.748 -100.052 -456.578L-101.037 -456.461ZM235.896 -94.6325C264.539 -44.7573 289.982 44.1181 282.291 135.561C274.602 226.985 233.798 320.942 129.993 381.06L130.596 381.922C234.681 321.641 275.597 227.415 283.305 135.767C291.011 44.1382 265.527 -44.9455 236.77 -95.0195L235.896 -94.6325Z" fill="url(#paint17_linear_694_4407)"/>
<path d="M-59.0377 -478.043L-58.5387 -478.075L-59.0377 -478.043ZM205.961 -99.3209L206.43 -99.4935L205.961 -99.3209ZM134.295 -663.492C100.442 -657.224 50.1359 -640.443 9.21703 -610.454C-31.7103 -580.459 -63.3003 -537.202 -59.5367 -478.011L-58.5387 -478.075C-62.2735 -536.811 -30.9512 -579.775 9.80816 -609.648C50.5759 -639.526 100.731 -656.26 134.477 -662.508L134.295 -663.492ZM-59.5367 -478.011C-54.8366 -404.092 -1.21836 -344.052 57.4505 -285.2C86.8073 -255.751 117.434 -226.597 143.927 -196.107C170.417 -165.62 192.74 -133.833 205.492 -99.1484L206.43 -99.4935C193.619 -134.341 171.208 -166.235 144.682 -196.763C118.159 -227.288 87.4893 -256.483 58.1587 -285.906C-0.547325 -344.796 -53.8659 -404.584 -58.5387 -478.075L-59.5367 -478.011ZM205.492 -99.1484C224.32 -47.9329 232.415 41.8883 207.062 132.394C181.714 222.879 122.943 314.019 8.06464 367.95L8.4896 368.855C123.675 314.78 182.613 223.378 208.025 132.663C233.431 41.9687 225.336 -48.0683 206.43 -99.4935L205.492 -99.1484Z" fill="url(#paint18_linear_694_4407)"/>
</g>
<defs>
<linearGradient id="paint0_linear_694_4407" x1="1426" y1="-22.5893" x2="1398.68" y2="-178.369" gradientUnits="userSpaceOnUse">
<stop stop-color="#3658FF"/>
<stop offset="1" stop-color="#FF5D24"/>
</linearGradient>
<linearGradient id="paint1_linear_694_4407" x1="1415.82" y1="19.8705" x2="1398.14" y2="-134.226" gradientUnits="userSpaceOnUse">
<stop stop-color="#3658FF"/>
<stop offset="1" stop-color="#FF5D24"/>
</linearGradient>
<linearGradient id="paint2_linear_694_4407" x1="1395.08" y1="62.6901" x2="1386.4" y2="-90.3717" gradientUnits="userSpaceOnUse">
<stop stop-color="#3658FF"/>
<stop offset="1" stop-color="#FF5D24"/>
</linearGradient>
<linearGradient id="paint3_linear_694_4407" x1="1363.77" y1="105.266" x2="1363.77" y2="-47.4478" gradientUnits="userSpaceOnUse">
<stop stop-color="#3658FF"/>
<stop offset="1" stop-color="#FF5D24"/>
</linearGradient>
<linearGradient id="paint4_linear_694_4407" x1="1321.99" y1="147.006" x2="1330.68" y2="-6.05586" gradientUnits="userSpaceOnUse">
<stop stop-color="#3658FF"/>
<stop offset="1" stop-color="#FF5D24"/>
</linearGradient>
<linearGradient id="paint5_linear_694_4407" x1="1269.97" y1="187.324" x2="1287.65" y2="33.2278" gradientUnits="userSpaceOnUse">
<stop stop-color="#3658FF"/>
<stop offset="1" stop-color="#FF5D24"/>
</linearGradient>
<linearGradient id="paint6_linear_694_4407" x1="1208.04" y1="225.628" x2="1235.36" y2="69.8462" gradientUnits="userSpaceOnUse">
<stop stop-color="#3658FF"/>
<stop offset="1" stop-color="#FF5D24"/>
</linearGradient>
<linearGradient id="paint7_linear_694_4407" x1="1136.63" y1="261.406" x2="1174.61" y2="103.369" gradientUnits="userSpaceOnUse">
<stop stop-color="#3658FF"/>
<stop offset="1" stop-color="#FF5D24"/>
</linearGradient>
<linearGradient id="paint8_linear_694_4407" x1="1056.27" y1="294.153" x2="1106.36" y2="133.428" gradientUnits="userSpaceOnUse">
<stop stop-color="#3658FF"/>
<stop offset="1" stop-color="#FF5D24"/>
</linearGradient>
<linearGradient id="paint9_linear_694_4407" x1="967.633" y1="323.323" x2="1031.8" y2="159.726" gradientUnits="userSpaceOnUse">
<stop stop-color="#3658FF"/>
<stop offset="1" stop-color="#FF5D24"/>
</linearGradient>
<linearGradient id="paint10_linear_694_4407" x1="871.442" y1="348.496" x2="952.239" y2="182.274" gradientUnits="userSpaceOnUse">
<stop stop-color="#3658FF"/>
<stop offset="1" stop-color="#FF5D24"/>
</linearGradient>
<linearGradient id="paint11_linear_694_4407" x1="768.509" y1="369.266" x2="869.163" y2="201.388" gradientUnits="userSpaceOnUse">
<stop stop-color="#3658FF"/>
<stop offset="1" stop-color="#FF5D24"/>
</linearGradient>
<linearGradient id="paint12_linear_694_4407" x1="659.725" y1="385.279" x2="784.105" y2="217.887" gradientUnits="userSpaceOnUse">
<stop stop-color="#3658FF"/>
<stop offset="1" stop-color="#FF5D24"/>
</linearGradient>
<linearGradient id="paint13_linear_694_4407" x1="546.044" y1="396.227" x2="698.413" y2="233.274" gradientUnits="userSpaceOnUse">
<stop stop-color="#3658FF"/>
<stop offset="1" stop-color="#FF5D24"/>
</linearGradient>
<linearGradient id="paint14_linear_694_4407" x1="428.47" y1="401.866" x2="612.768" y2="249.871" gradientUnits="userSpaceOnUse">
<stop stop-color="#3658FF"/>
<stop offset="1" stop-color="#FF5D24"/>
</linearGradient>
<linearGradient id="paint15_linear_694_4407" x1="308.056" y1="402.001" x2="526.4" y2="270.587" gradientUnits="userSpaceOnUse">
<stop stop-color="#3658FF"/>
<stop offset="1" stop-color="#FF5D24"/>
</linearGradient>
<linearGradient id="paint16_linear_694_4407" x1="185.882" y1="396.505" x2="436.266" y2="297.921" gradientUnits="userSpaceOnUse">
<stop stop-color="#3658FF"/>
<stop offset="1" stop-color="#FF5D24"/>
</linearGradient>
<linearGradient id="paint17_linear_694_4407" x1="63.047" y1="385.308" x2="337.098" y2="331.953" gradientUnits="userSpaceOnUse">
<stop stop-color="#3658FF"/>
<stop offset="1" stop-color="#FF5D24"/>
</linearGradient>
<linearGradient id="paint18_linear_694_4407" x1="-59.3412" y1="368.404" x2="223.54" y2="368.404" gradientUnits="userSpaceOnUse">
<stop stop-color="#3658FF"/>
<stop offset="1" stop-color="#FF5D24"/>
</linearGradient>
</defs>
</svg>
