<svg width="1440" height="695" viewBox="0 0 1440 695" fill="none" xmlns="http://www.w3.org/2000/svg">
<g opacity="0.2">
<path opacity="0.0526316" d="M-597.032 688.98C-543.269 715.244 -371.437 759.194 -114.213 724.88C207.317 681.987 331.671 568.291 618.642 509.338C830.448 465.826 1399.58 400.513 1726.84 472.685" stroke="url(#paint0_linear_348_3249)"/>
<path opacity="0.105263" d="M-650.061 633.918C-604.069 662.102 -445.69 712.407 -180.107 688.153C151.872 657.837 307.911 549.536 610.091 501.921C833.123 466.777 1417.73 423.666 1722.65 508.004" stroke="url(#paint1_linear_348_3249)"/>
<path opacity="0.157895" d="M-690.123 578.115C-652.407 607.91 -509.215 664.018 -238.183 650.092C100.608 632.683 286.621 530.965 600.701 495.209C832.515 468.818 1426.19 448.382 1705.43 543.961" stroke="url(#paint2_linear_348_3249)"/>
<path opacity="0.210526" d="M-717.078 522.071C-688.05 553.15 -561.615 614.447 -288.103 610.999C53.7875 606.69 267.738 512.669 590.276 489.163C828.333 471.815 1424.57 474.276 1675.08 580.05" stroke="url(#paint3_linear_348_3249)"/>
<path opacity="0.263158" d="M-730.928 466.29C-710.906 498.313 -602.613 564.127 -329.617 571.196C11.6266 580.033 251.17 494.739 578.632 483.742C820.323 475.626 1412.6 500.959 1631.62 615.769" stroke="url(#paint4_linear_348_3249)"/>
<path opacity="0.315789" d="M-731.82 411.274C-721.024 443.89 -632.059 513.5 -362.572 531.009C-25.7125 552.895 236.799 477.262 565.598 478.894C808.276 480.099 1390.09 528.027 1575.23 650.614" stroke="url(#paint5_linear_348_3249)"/>
<path opacity="0.368421" d="M-720.038 357.515C-718.587 390.367 -649.929 463.009 -386.9 490.764C-58.1149 525.457 224.496 460.312 551.032 474.553C792.04 485.064 1357.03 555.056 1506.25 684.077" stroke="url(#paint6_linear_348_3249)"/>
<path opacity="0.421053" d="M-696.018 305.495C-703.928 338.223 -656.325 413.102 -402.638 450.8C-85.5292 497.922 214.08 443.981 534.774 470.676C771.47 490.379 1313.44 581.673 1425.12 715.714" stroke="url(#paint7_linear_348_3249)"/>
<path opacity="0.473684" d="M-660.328 255.673C-677.508 287.918 -651.479 364.215 -409.916 411.446C-107.962 470.484 205.351 428.34 516.683 467.201C746.47 495.883 1259.48 607.484 1332.39 745.079" stroke="url(#paint8_linear_348_3249)"/>
<path opacity="0.526316" d="M-613.64 208.484C-639.905 239.893 -635.738 316.772 -408.943 373.015C-125.45 443.32 198.143 413.432 496.708 464.03C717.071 501.375 1195.5 632.054 1228.84 771.694" stroke="url(#paint9_linear_348_3249)"/>
<path opacity="0.578947" d="M-556.771 164.336C-591.834 194.565 -609.574 271.182 -400.032 335.823C-138.106 416.623 192.223 399.319 474.749 461.1C683.274 506.698 1121.88 655.025 1115.29 795.179" stroke="url(#paint10_linear_348_3249)"/>
<path opacity="0.631579" d="M-490.645 123.605C-534.12 152.322 -573.574 227.839 -383.581 300.168C-146.091 390.579 187.354 386.049 450.745 458.335C645.148 511.687 1039.13 676.036 992.678 815.17" stroke="url(#paint11_linear_348_3249)"/>
<path opacity="0.684211" d="M-416.282 86.6259C-467.695 113.517 -528.429 187.106 -360.067 266.331C-149.615 365.362 183.293 373.656 424.664 455.655C602.814 516.176 947.851 694.747 862.049 831.336" stroke="url(#paint12_linear_348_3249)"/>
<path opacity="0.736842" d="M-334.797 53.6928C-393.583 78.4635 -474.933 149.318 -330.046 234.571C-148.938 341.138 179.786 362.163 396.492 452.978C556.437 520.006 848.751 710.841 724.536 843.389" stroke="url(#paint13_linear_348_3249)"/>
<path opacity="0.789474" d="M-247.382 25.0607C-312.897 47.4394 -413.971 114.783 -294.147 205.131C-144.367 318.065 176.571 351.592 366.238 450.227C506.226 523.027 742.614 724.036 581.348 851.09" stroke="url(#paint14_linear_348_3249)"/>
<path opacity="0.842105" d="M-155.291 0.930337C-226.818 20.6717 -346.51 83.7674 -253.061 178.219C-136.25 296.283 173.386 341.945 333.935 447.32C452.433 525.094 630.305 734.075 433.755 854.243" stroke="url(#paint15_linear_348_3249)"/>
<path opacity="0.894737" d="M-59.8329 -18.5412C-136.588 -1.65333 -273.585 56.5027 -207.535 154.023C-124.973 275.924 169.968 333.221 299.641 444.18C395.35 526.076 512.757 740.74 283.076 852.706" stroke="url(#paint16_linear_348_3249)"/>
<path opacity="0.947368" d="M37.6481 -33.2524C-43.4936 -19.403 -196.295 33.1761 -158.368 132.698C-110.96 257.1 166.054 325.403 263.431 440.732C335.303 525.853 390.959 743.847 130.662 846.384" stroke="url(#paint17_linear_348_3249)"/>
<path d="M135.785 -43.15C51.1453 -32.4909 -115.787 13.9353 -106.398 114.368C-94.6626 239.908 161.39 318.469 225.404 436.904C272.65 524.317 265.945 743.254 -22.1142 835.237" stroke="url(#paint18_linear_348_3249)"/>
</g>
<defs>
<linearGradient id="paint0_linear_348_3249" x1="-576.801" y1="711.842" x2="833.894" y2="-536.439" gradientUnits="userSpaceOnUse">
<stop stop-color="#4F3BB6"/>
<stop offset="1" stop-color="#3DB7B3"/>
</linearGradient>
<linearGradient id="paint1_linear_348_3249" x1="-636.45" y1="657.432" x2="1195.34" y2="-402.93" gradientUnits="userSpaceOnUse">
<stop stop-color="#4F3BB6"/>
<stop offset="1" stop-color="#3DB7B3"/>
</linearGradient>
<linearGradient id="paint2_linear_348_3249" x1="-683.28" y1="602.023" x2="1539.91" y2="-34.3317" gradientUnits="userSpaceOnUse">
<stop stop-color="#4F3BB6"/>
<stop offset="1" stop-color="#3DB7B3"/>
</linearGradient>
<linearGradient id="paint3_linear_348_3249" x1="-717.078" y1="546.11" x2="1675.08" y2="546.11" gradientUnits="userSpaceOnUse">
<stop stop-color="#4F3BB6"/>
<stop offset="1" stop-color="#3DB7B3"/>
</linearGradient>
<linearGradient id="paint4_linear_348_3249" x1="-737.771" y1="490.198" x2="1485.41" y2="1126.55" gradientUnits="userSpaceOnUse">
<stop stop-color="#4F3BB6"/>
<stop offset="1" stop-color="#3DB7B3"/>
</linearGradient>
<linearGradient id="paint5_linear_348_3249" x1="-745.432" y1="434.788" x2="1086.36" y2="1495.15" gradientUnits="userSpaceOnUse">
<stop stop-color="#4F3BB6"/>
<stop offset="1" stop-color="#3DB7B3"/>
</linearGradient>
<linearGradient id="paint6_linear_348_3249" x1="-740.27" y1="380.378" x2="670.347" y2="1628.68" gradientUnits="userSpaceOnUse">
<stop stop-color="#4F3BB6"/>
<stop offset="1" stop-color="#3DB7B3"/>
</linearGradient>
<linearGradient id="paint7_linear_348_3249" x1="-722.648" y1="327.456" x2="337.332" y2="1612.79" gradientUnits="userSpaceOnUse">
<stop stop-color="#4F3BB6"/>
<stop offset="1" stop-color="#3DB7B3"/>
</linearGradient>
<linearGradient id="paint8_linear_348_3249" x1="-693.061" y1="276.491" x2="102.462" y2="1527.31" gradientUnits="userSpaceOnUse">
<stop stop-color="#4F3BB6"/>
<stop offset="1" stop-color="#3DB7B3"/>
</linearGradient>
<linearGradient id="paint9_linear_348_3249" x1="-652.121" y1="227.932" x2="-50.5165" y2="1418.28" gradientUnits="userSpaceOnUse">
<stop stop-color="#4F3BB6"/>
<stop offset="1" stop-color="#3DB7B3"/>
</linearGradient>
<linearGradient id="paint10_linear_348_3249" x1="-600.577" y1="182.201" x2="-141.569" y2="1307.74" gradientUnits="userSpaceOnUse">
<stop stop-color="#4F3BB6"/>
<stop offset="1" stop-color="#3DB7B3"/>
</linearGradient>
<linearGradient id="paint11_linear_348_3249" x1="-539.296" y1="139.69" x2="-187.012" y2="1205.2" gradientUnits="userSpaceOnUse">
<stop stop-color="#4F3BB6"/>
<stop offset="1" stop-color="#3DB7B3"/>
</linearGradient>
<linearGradient id="paint12_linear_348_3249" x1="-469.246" y1="100.756" x2="-198.834" y2="1114.36" gradientUnits="userSpaceOnUse">
<stop stop-color="#4F3BB6"/>
<stop offset="1" stop-color="#3DB7B3"/>
</linearGradient>
<linearGradient id="paint13_linear_348_3249" x1="-391.494" y1="65.7125" x2="-185.716" y2="1036.36" gradientUnits="userSpaceOnUse">
<stop stop-color="#4F3BB6"/>
<stop offset="1" stop-color="#3DB7B3"/>
</linearGradient>
<linearGradient id="paint14_linear_348_3249" x1="-307.189" y1="34.8384" x2="-154.087" y2="971.323" gradientUnits="userSpaceOnUse">
<stop stop-color="#4F3BB6"/>
<stop offset="1" stop-color="#3DB7B3"/>
</linearGradient>
<linearGradient id="paint15_linear_348_3249" x1="-217.555" y1="8.35889" x2="-108.909" y2="918.988" gradientUnits="userSpaceOnUse">
<stop stop-color="#4F3BB6"/>
<stop offset="1" stop-color="#3DB7B3"/>
</linearGradient>
<linearGradient id="paint16_linear_348_3249" x1="-123.87" y1="-13.5432" x2="-54.2047" y2="879.031" gradientUnits="userSpaceOnUse">
<stop stop-color="#4F3BB6"/>
<stop offset="1" stop-color="#3DB7B3"/>
</linearGradient>
<linearGradient id="paint17_linear_348_3249" x1="-27.4607" y1="-30.7396" x2="6.57559" y2="851.173" gradientUnits="userSpaceOnUse">
<stop stop-color="#4F3BB6"/>
<stop offset="1" stop-color="#3DB7B3"/>
</linearGradient>
<linearGradient id="paint18_linear_348_3249" x1="70.3175" y1="-43.15" x2="70.3175" y2="835.237" gradientUnits="userSpaceOnUse">
<stop stop-color="#4F3BB6"/>
<stop offset="1" stop-color="#3DB7B3"/>
</linearGradient>
</defs>
</svg>
