<svg width="64" height="64" viewBox="0 0 64 64" fill="none" xmlns="http://www.w3.org/2000/svg">
<path d="M10.6667 24C10.6667 16.4575 10.6667 12.6863 13.0099 10.3431C15.353 8 19.1243 8 26.6667 8H37.3334C44.8759 8 48.6471 8 50.9903 10.3431C53.3334 12.6863 53.3334 16.4575 53.3334 24V42.207C53.3334 49.3624 53.3334 52.9401 51.082 54.0344C48.8305 55.1287 46.0173 52.9183 40.3908 48.4975L38.5902 47.0827C35.4265 44.597 33.8447 43.3541 32.0001 43.3541C30.1555 43.3541 28.5736 44.597 25.41 47.0827L23.6093 48.4975C17.9829 52.9183 15.1696 55.1287 12.9182 54.0344C10.6667 52.9401 10.6667 49.3624 10.6667 42.207V24Z" stroke="url(#paint0_linear_1204_3501)"/>
<defs>
<linearGradient id="paint0_linear_1204_3501" x1="10.6667" y1="54.3114" x2="53.3334" y2="54.3114" gradientUnits="userSpaceOnUse">
<stop stop-color="#3658FF"/>
<stop offset="1" stop-color="#5FA7FF"/>
</linearGradient>
</defs>
</svg>
