<svg width="44" height="48" viewBox="0 0 44 48" fill="none" xmlns="http://www.w3.org/2000/svg">
<path d="M0.666687 16.85C0.666687 9.3075 0.666687 5.53627 3.00983 3.19312C5.35298 0.849976 9.12421 0.849976 16.6667 0.849976H27.3334C34.8758 0.849976 38.6471 0.849976 40.9902 3.19312C43.3334 5.53627 43.3334 9.3075 43.3334 16.85V35.0569C43.3334 42.2124 43.3334 45.7901 41.0819 46.8844C38.8305 47.9786 36.0172 45.7683 30.3908 41.3475L28.5901 39.9327C25.4265 37.4469 23.8446 36.2041 22 36.2041C20.1554 36.2041 18.5736 37.4469 15.4099 39.9327L13.6093 41.3475C7.98281 45.7683 5.16959 47.9786 2.91814 46.8844C0.666687 45.7901 0.666687 42.2124 0.666687 35.0569V16.85Z" stroke="url(#paint0_linear_718_294)"/>
<defs>
<linearGradient id="paint0_linear_718_294" x1="0.666687" y1="47.1614" x2="43.3334" y2="47.1614" gradientUnits="userSpaceOnUse">
<stop stop-color="#3658FF"/>
<stop offset="1" stop-color="#FF5D24"/>
</linearGradient>
</defs>
</svg>
