<svg width="49" height="49" viewBox="0 0 49 49" fill="none" xmlns="http://www.w3.org/2000/svg">
<path d="M20.4426 20.9863C19.0746 20.9863 17.9946 22.1863 17.9946 23.6503C17.9946 25.1143 19.0986 26.3143 20.4426 26.3143C21.8106 26.3143 22.8906 25.1143 22.8906 23.6503C22.9146 22.1863 21.8106 20.9863 20.4426 20.9863ZM29.2026 20.9863C27.8346 20.9863 26.7546 22.1863 26.7546 23.6503C26.7546 25.1143 27.8586 26.3143 29.2026 26.3143C30.5706 26.3143 31.6506 25.1143 31.6506 23.6503C31.6506 22.1863 30.5706 20.9863 29.2026 20.9863Z" fill="white"/>
<path d="M40.8666 0.850098H8.70665C5.99465 0.850098 3.78665 3.0581 3.78665 5.7941V38.2421C3.78665 40.9781 5.99465 43.1861 8.70665 43.1861H35.9226L34.6507 38.7461L37.7226 41.6021L40.6267 44.2901L45.7867 48.8501V5.7941C45.7867 3.0581 43.5787 0.850098 40.8666 0.850098ZM31.6026 32.1941C31.6026 32.1941 30.7387 31.1621 30.0187 30.2501C33.1627 29.3621 34.3626 27.3941 34.3626 27.3941C33.3786 28.0421 32.4426 28.4981 31.6026 28.8101C30.4026 29.3141 29.2507 29.6501 28.1227 29.8421C25.8186 30.2741 23.7067 30.1541 21.9067 29.8181C20.5387 29.5541 19.3627 29.1701 18.3787 28.7861C17.8267 28.5701 17.2267 28.3061 16.6267 27.9701C16.5547 27.9221 16.4827 27.8981 16.4107 27.8501C16.3627 27.8261 16.3387 27.8021 16.3147 27.7781C15.8827 27.5381 15.6427 27.3701 15.6427 27.3701C15.6427 27.3701 16.7947 29.2901 19.8427 30.2021C19.1227 31.1141 18.2347 32.1941 18.2347 32.1941C12.9307 32.0261 10.9147 28.5461 10.9147 28.5461C10.9147 20.8181 14.3707 14.5541 14.3707 14.5541C17.8267 11.9621 21.1147 12.0341 21.1147 12.0341L21.3547 12.3221C17.0347 13.5701 15.0427 15.4661 15.0427 15.4661C15.0427 15.4661 15.5707 15.1781 16.4587 14.7701C19.0267 13.6421 21.0667 13.3301 21.9067 13.2581C22.0507 13.2341 22.1707 13.2101 22.3146 13.2101C23.7787 13.0181 25.4347 12.9701 27.1626 13.1621C29.4426 13.4261 31.8907 14.0981 34.3867 15.4661C34.3867 15.4661 32.4907 13.6661 28.4107 12.4181L28.7467 12.0341C28.7467 12.0341 32.0347 11.9621 35.4907 14.5541C35.4907 14.5541 38.9467 20.8181 38.9467 28.5461C38.9467 28.5461 36.9067 32.0261 31.6026 32.1941Z" fill="white"/>
</svg>
