<svg width="24" height="25" viewBox="0 0 24 25" fill="none" xmlns="http://www.w3.org/2000/svg">
<path d="M12 16.85L11.6464 17.2035L12 17.5571L12.3536 17.2035L12 16.85ZM12.5 4.84998C12.5 4.57383 12.2761 4.34998 12 4.34998C11.7239 4.34998 11.5 4.57383 11.5 4.84998L12.5 4.84998ZM5.64645 11.2035L11.6464 17.2035L12.3536 16.4964L6.35355 10.4964L5.64645 11.2035ZM12.3536 17.2035L18.3536 11.2035L17.6464 10.4964L11.6464 16.4964L12.3536 17.2035ZM12.5 16.85L12.5 4.84998L11.5 4.84998L11.5 16.85L12.5 16.85Z" fill="black"/>
<path d="M6 21.85H18" stroke="black" stroke-linecap="round"/>
</svg>
