<svg width="48" height="48" viewBox="0 0 48 48" fill="none" xmlns="http://www.w3.org/2000/svg">
<path fill-rule="evenodd" clip-rule="evenodd" d="M24.0005 0.850098C18.303 0.853054 12.7923 2.87101 8.45374 6.54314C4.11521 10.2153 1.23181 15.3021 0.319089 20.8941C-0.593628 26.4861 0.523853 32.2185 3.47174 37.0665C6.41963 41.9144 11.0057 45.5616 16.4099 47.356C17.6021 47.5773 18.0512 46.8384 18.0512 46.2101C18.0512 45.5818 18.0273 43.7601 18.0194 41.7685C11.3428 43.2108 9.93197 38.9511 9.93197 38.9511C8.84305 36.185 7.26927 35.4579 7.26927 35.4579C5.09143 33.98 7.43223 34.0077 7.43223 34.0077C9.84455 34.1776 11.1123 36.4695 11.1123 36.4695C13.2504 40.1168 16.7278 39.0617 18.0949 38.4453C18.3095 36.9002 18.9335 35.8491 19.621 35.2524C14.2877 34.6518 8.68408 32.6049 8.68408 23.4609C8.65102 21.0895 9.53605 18.7962 11.156 17.0555C10.9096 16.4548 10.087 14.0286 11.3905 10.733C11.3905 10.733 13.4054 10.0928 17.9916 13.179C21.9253 12.1093 26.0757 12.1093 30.0095 13.179C34.5917 10.0928 36.6026 10.733 36.6026 10.733C37.9101 14.0207 37.0875 16.4469 36.8411 17.0555C38.4662 18.7965 39.353 21.0938 39.317 23.4688C39.317 32.6325 33.7015 34.6518 28.3602 35.2406C29.2186 35.9834 29.9856 37.4337 29.9856 39.6623C29.9856 42.8552 29.9578 45.4237 29.9578 46.2101C29.9578 46.8463 30.391 47.5892 31.6071 47.356C37.0119 45.5614 41.5984 41.9135 44.5462 37.0648C47.4941 32.216 48.611 26.4827 47.6972 20.8902C46.7835 15.2977 43.8986 10.2108 39.5587 6.53931C35.2187 2.86781 29.7067 0.85118 24.0085 0.850098H24.0005Z" fill="white"/>
</svg>
