<svg width="49" height="49" viewBox="0 0 49 49" fill="none" xmlns="http://www.w3.org/2000/svg">
<g clip-path="url(#clip0_20_452)">
<path d="M27.7415 24.5055C27.7415 32.0469 21.6805 38.1604 14.2043 38.1604C6.72812 38.1604 0.666656 32.0456 0.666656 24.5055C0.666656 16.9654 6.72766 10.8501 14.2043 10.8501C21.681 10.8501 27.7415 16.9641 27.7415 24.5055Z" fill="white"/>
<path d="M42.5923 24.5054C42.5923 31.604 39.5618 37.3609 35.8234 37.3609C32.0851 37.3609 29.0546 31.604 29.0546 24.5054C29.0546 17.4068 32.0846 11.6499 35.823 11.6499C39.5613 11.6499 42.5918 17.4049 42.5918 24.5054" fill="white"/>
<path d="M48.6666 24.5053C48.6666 30.8639 47.601 36.0218 46.286 36.0218C44.9711 36.0218 43.9059 30.8653 43.9059 24.5053C43.9059 18.1453 44.9715 12.9888 46.286 12.9888C47.6005 12.9888 48.6666 18.1448 48.6666 24.5053Z" fill="white"/>
</g>
<defs>
<clipPath id="clip0_20_452">
<rect width="48" height="48" fill="white" transform="translate(0.666656 0.850098)"/>
</clipPath>
</defs>
</svg>
