<svg width="49" height="49" viewBox="0 0 49 49" fill="none" xmlns="http://www.w3.org/2000/svg">
<g clip-path="url(#clip0_20_438)">
<path d="M24.3333 48.8501C37.5882 48.8501 48.3333 38.1049 48.3333 24.8501C48.3333 11.5953 37.5882 0.850098 24.3333 0.850098C11.0785 0.850098 0.333328 11.5953 0.333328 24.8501C0.333328 38.1049 11.0785 48.8501 24.3333 48.8501Z" fill="#FF4500"/>
<path d="M40.3333 24.8502C40.3333 22.9133 38.7614 21.3414 36.8245 21.3414C35.8702 21.3414 35.0281 21.7063 34.4105 22.3239C32.0245 20.6116 28.7123 19.4888 25.0631 19.3484L26.6631 11.8537L31.8561 12.9484C31.9123 14.2677 33.007 15.3344 34.3544 15.3344C35.7298 15.3344 36.8526 14.2116 36.8526 12.8361C36.8526 11.4607 35.7298 10.3379 34.3544 10.3379C33.3719 10.3379 32.5298 10.8993 32.1368 11.7414L26.3263 10.5063C26.1579 10.4782 25.9895 10.5063 25.8491 10.5905C25.7088 10.6747 25.6245 10.8151 25.5684 10.9835L23.8 19.3484C20.0667 19.4607 16.7263 20.5554 14.3123 22.3239C13.6947 21.7344 12.8245 21.3414 11.8982 21.3414C9.96139 21.3414 8.38946 22.9133 8.38946 24.8502C8.38946 26.2817 9.23156 27.4888 10.4667 28.0502C10.4105 28.387 10.3824 28.7519 10.3824 29.1168C10.3824 34.5063 16.6421 38.8572 24.3895 38.8572C32.1368 38.8572 38.3965 34.5063 38.3965 29.1168C38.3965 28.7519 38.3684 28.4151 38.3123 28.0782C39.4631 27.5168 40.3333 26.2817 40.3333 24.8502ZM16.3333 27.3484C16.3333 25.973 17.4561 24.8502 18.8316 24.8502C20.207 24.8502 21.3298 25.973 21.3298 27.3484C21.3298 28.7239 20.207 29.8467 18.8316 29.8467C17.4561 29.8467 16.3333 28.7239 16.3333 27.3484ZM30.2842 33.9449C28.5719 35.6572 25.3158 35.7695 24.3614 35.7695C23.407 35.7695 20.1228 35.6291 18.4386 33.9449C18.1859 33.6923 18.1859 33.2712 18.4386 33.0186C18.6912 32.766 19.1123 32.766 19.3649 33.0186C20.4316 34.0853 22.7333 34.4782 24.3895 34.4782C26.0456 34.4782 28.3193 34.0853 29.414 33.0186C29.6667 32.766 30.0877 32.766 30.3403 33.0186C30.5368 33.2993 30.5368 33.6923 30.2842 33.9449ZM29.8351 29.8467C28.4596 29.8467 27.3368 28.7239 27.3368 27.3484C27.3368 25.973 28.4596 24.8502 29.8351 24.8502C31.2105 24.8502 32.3333 25.973 32.3333 27.3484C32.3333 28.7239 31.2105 29.8467 29.8351 29.8467Z" fill="white"/>
</g>
<defs>
<clipPath id="clip0_20_438">
<rect width="48" height="48" fill="white" transform="translate(0.333328 0.850098)"/>
</clipPath>
</defs>
</svg>
