<svg width="28" height="28" viewBox="0 0 28 28" fill="none" xmlns="http://www.w3.org/2000/svg">
<path fill-rule="evenodd" clip-rule="evenodd" d="M27.5 14C27.5 21.4558 21.4558 27.5 14 27.5C6.54416 27.5 0.5 21.4558 0.5 14C0.5 6.54416 6.54416 0.5 14 0.5C21.4558 0.5 27.5 6.54416 27.5 14ZM6.58579 20L7.29289 19.2929L12.5858 14L7.29289 8.70711L6.58579 8L8 6.58579L8.70711 7.29289L14 12.5858L19.2929 7.29289L20 6.58578L21.4142 8L20.7071 8.70711L15.4142 14L20.7071 19.2929L21.4142 20L20 21.4142L19.2929 20.7071L14 15.4142L8.70711 20.7071L8 21.4142L6.58579 20Z" fill="white"/>
</svg>
