<svg width="49" height="49" viewBox="0 0 49 49" fill="none" xmlns="http://www.w3.org/2000/svg">
<g clip-path="url(#clip0_20_499)">
<path d="M24.3333 48.8501C37.5882 48.8501 48.3333 38.1049 48.3333 24.8501C48.3333 11.5953 37.5882 0.850098 24.3333 0.850098C11.0785 0.850098 0.333328 11.5953 0.333328 24.8501C0.333328 38.1049 11.0785 48.8501 24.3333 48.8501Z" fill="url(#paint0_linear_20_499)"/>
<path fill-rule="evenodd" clip-rule="evenodd" d="M11.1971 24.597C18.1936 21.5487 22.859 19.5391 25.1934 18.5682C31.8584 15.796 33.2434 15.3144 34.146 15.2985C34.3446 15.295 34.7885 15.3442 35.076 15.5775C35.3188 15.7746 35.3856 16.0407 35.4176 16.2275C35.4496 16.4143 35.4894 16.8398 35.4577 17.1723C35.0966 20.9673 33.5337 30.1766 32.7387 34.427C32.4022 36.2256 31.7398 36.8286 31.0985 36.8876C29.7048 37.0159 28.6464 35.9665 27.2965 35.0817C25.1842 33.697 23.9909 32.8351 21.9405 31.4839C19.571 29.9224 21.1071 29.0642 22.4575 27.6616C22.8109 27.2946 28.9517 21.709 29.0705 21.2023C29.0854 21.139 29.0992 20.9028 28.9588 20.778C28.8185 20.6533 28.6114 20.696 28.4619 20.7299C28.2501 20.778 24.8756 23.0083 18.3386 27.421C17.3808 28.0787 16.5132 28.3992 15.7359 28.3824C14.879 28.3639 13.2306 27.8979 12.0052 27.4996C10.5022 27.011 9.30762 26.7527 9.41164 25.9229C9.46582 25.4908 10.061 25.0488 11.1971 24.597Z" fill="white"/>
</g>
<defs>
<linearGradient id="paint0_linear_20_499" x1="24.3333" y1="0.850098" x2="24.3333" y2="48.4941" gradientUnits="userSpaceOnUse">
<stop stop-color="#2AABEE"/>
<stop offset="1" stop-color="#229ED9"/>
</linearGradient>
<clipPath id="clip0_20_499">
<rect width="48" height="48" fill="white" transform="translate(0.333328 0.850098)"/>
</clipPath>
</defs>
</svg>
