<svg width="48" height="40" viewBox="0 0 48 40" fill="none" xmlns="http://www.w3.org/2000/svg">
<path d="M15.095 39.3516C33.2083 39.3516 43.1155 24.3449 43.1155 11.3311C43.1155 10.9049 43.1155 10.4806 43.0867 10.0582C45.0141 8.66409 46.6778 6.93795 48 4.96058C46.2028 5.75738 44.2961 6.27969 42.3437 6.51002C44.3996 5.2794 45.9383 3.34358 46.6733 1.06298C44.7402 2.21019 42.6253 3.01863 40.4198 3.45338C38.935 1.87453 36.9712 0.82906 34.8324 0.478747C32.6935 0.128433 30.4988 0.492807 28.5879 1.51548C26.677 2.53816 25.1564 4.16213 24.2615 6.13607C23.3665 8.11002 23.1471 10.3239 23.6371 12.4351C19.7218 12.2387 15.8915 11.2212 12.3949 9.44859C8.89831 7.67597 5.81353 5.1879 3.3408 2.14586C2.08146 4.31385 1.69574 6.88031 2.2622 9.3227C2.82865 11.7651 4.30468 13.8998 6.38976 15.2921C4.82246 15.2462 3.2893 14.8234 1.92 14.0595V14.1843C1.92062 16.458 2.7077 18.6614 4.14774 20.421C5.58778 22.1805 7.59212 23.3878 9.8208 23.838C8.37096 24.2335 6.84975 24.2913 5.37408 24.007C6.00363 25.9636 7.22886 27.6747 8.87848 28.9009C10.5281 30.1271 12.5197 30.8071 14.5747 30.846C12.5329 32.451 10.1946 33.6376 7.69375 34.338C5.19287 35.0384 2.57843 35.2389 0 34.9279C4.50367 37.818 9.74385 39.351 15.095 39.3439" fill="#1DA1F2"/>
</svg>
